<svg width="60" height="60" viewBox="0 0 60 60" fill="none" xmlns="http://www.w3.org/2000/svg">
<path d="M30 1.23073L58.7371 29.9679L30 58.705L1.26288 29.9679L30 1.23073Z" stroke="#FFAC4A" stroke-width="1.13491"/>
<path d="M30 5.80251L54.1975 30L30 54.1975L5.80251 30L30 5.80251Z" fill="#FFAC4A" stroke="#634016" stroke-width="1.13491"/>
<path d="M23.5959 33.0389L17.8491 27.2921V25.793H19.3483L25.095 31.5397" stroke="#45220A" stroke-width="0.999438" stroke-linecap="round" stroke-linejoin="round"/>
<path d="M22.8457 33.7884L25.844 30.79" stroke="#45220A" stroke-width="0.999438" stroke-linecap="round" stroke-linejoin="round"/>
<path d="M24.3452 32.2896L26.3441 34.2884" stroke="#45220A" stroke-width="0.999438" stroke-linecap="round" stroke-linejoin="round"/>
<path d="M25.8442 34.7875L26.8437 33.7881" stroke="#45220A" stroke-width="0.999438" stroke-linecap="round" stroke-linejoin="round"/>
<path d="M23.5957 27.542L25.3447 25.793H26.8439V27.2921L25.0949 29.0411" stroke="#45220A" stroke-width="0.999438" stroke-linecap="round" stroke-linejoin="round"/>
<path d="M18.8481 31.29L20.847 33.2889" stroke="#45220A" stroke-width="0.999438" stroke-linecap="round" stroke-linejoin="round"/>
<path d="M19.8473 32.7886L18.3481 34.2877" stroke="#45220A" stroke-width="0.999438" stroke-linecap="round" stroke-linejoin="round"/>
<path d="M17.8491 33.7881L18.8486 34.7875" stroke="#45220A" stroke-width="0.999438" stroke-linecap="round" stroke-linejoin="round"/>
</svg>
