<svg width="32" height="32" viewBox="0 0 32 32" fill="#FFAC4A" xmlns="http://www.w3.org/2000/svg">
<path d="M2 4C2 2.89375 2.89375 2 4 2H22C23.1063 2 24 2.89375 24 4V6H27.2C29.85 6 32 8.15 32 10.8V17.1812C32 19.0812 30.8812 20.8 29.15 21.5688L24 23.8563V26C24 28.2062 22.2062 30 20 30H6C3.79375 30 2 28.2062 2 26V4ZM24 19.475L27.525 17.9062C27.8125 17.775 28 17.4937 28 17.175V10.8C28 10.3563 27.6438 10 27.2 10H24V19.475ZM10 9C10 8.45 9.55 8 9 8C8.45 8 8 8.45 8 9V23C8 23.55 8.45 24 9 24C9.55 24 10 23.55 10 23V9ZM14 9C14 8.45 13.55 8 13 8C12.45 8 12 8.45 12 9V23C12 23.55 12.45 24 13 24C13.55 24 14 23.55 14 23V9ZM18 9C18 8.45 17.55 8 17 8C16.45 8 16 8.45 16 9V23C16 23.55 16.45 24 17 24C17.55 24 18 23.55 18 23V9Z" fill="#FFAC4A"/>
</svg>
