<svg width="20" height="20" viewBox="0 0 20 20" fill="none" xmlns="http://www.w3.org/2000/svg">
<path d="M10.7292 4.58279C11.125 4.33847 11.3889 3.89521 11.3889 3.3961C11.3889 2.62476 10.7674 2 10 2C9.23264 2 8.61111 2.62476 8.61111 3.3961C8.61111 3.8987 8.875 4.33847 9.27083 4.58279L7.28125 8.58263C6.96528 9.21786 6.14583 9.39935 5.59375 8.95609L2.5 6.46753C2.67361 6.23368 2.77778 5.94399 2.77778 5.62987C2.77778 4.85852 2.15625 4.23377 1.38889 4.23377C0.621528 4.23377 0 4.85852 0 5.62987C0 6.40122 0.621528 7.02597 1.38889 7.02597C1.39583 7.02597 1.40625 7.02597 1.41319 7.02597L3 15.8005C3.19097 16.8615 4.11111 17.6364 5.1875 17.6364H14.8125C15.8854 17.6364 16.8056 16.865 17 15.8005L18.5868 7.02597C18.5938 7.02597 18.6042 7.02597 18.6111 7.02597C19.3785 7.02597 20 6.40122 20 5.62987C20 4.85852 19.3785 4.23377 18.6111 4.23377C17.8438 4.23377 17.2222 4.85852 17.2222 5.62987C17.2222 5.94399 17.3264 6.23368 17.5 6.46753L14.4063 8.95609C13.8542 9.39935 13.0347 9.21786 12.7188 8.58263L10.7292 4.58279Z" fill="#FFAC4A"/>
</svg>
