<svg width="25" height="24" viewBox="0 0 25 24" fill="none" xmlns="http://www.w3.org/2000/svg">
<path d="M4.50003 16V13.62C4.50003 11.5 3.47003 10.5 3.50003 8C3.53003 5.28 4.99003 2 8.00003 2C9.87003 2 10.5 3.8 10.5 5.5C10.5 8.61 8.50003 11.16 8.50003 14.18V16C8.50003 16.5304 8.28932 17.0391 7.91425 17.4142C7.53917 17.7893 7.03047 18 6.50003 18C5.9696 18 5.46089 17.7893 5.08582 17.4142C4.71075 17.0391 4.50003 16.5304 4.50003 16Z" stroke="#FFC581" stroke-width="2" stroke-linecap="round" stroke-linejoin="round"/>
<path d="M20.5 20V17.62C20.5 15.5 21.53 14.5 21.5 12C21.47 9.28 20.01 6 17 6C15.13 6 14.5 7.8 14.5 9.5C14.5 12.61 16.5 15.16 16.5 18.18V20C16.5 20.5304 16.7107 21.0391 17.0858 21.4142C17.4609 21.7893 17.9696 22 18.5 22C19.0304 22 19.5391 21.7893 19.9142 21.4142C20.2893 21.0391 20.5 20.5304 20.5 20Z" stroke="#FFC581" stroke-width="2" stroke-linecap="round" stroke-linejoin="round"/>
<path d="M16.5 17H20.5" stroke="#FFC581" stroke-width="2" stroke-linecap="round" stroke-linejoin="round"/>
<path d="M4.5 13H8.5" stroke="#FFC581" stroke-width="2" stroke-linecap="round" stroke-linejoin="round"/>
</svg>
