<svg width="22" height="289" viewBox="0 0 22 289" fill="none" xmlns="http://www.w3.org/2000/svg">
<g clip-path="url(#clip0_2427_5047)">
<path d="M22 64.6826L22 53.7622C22.0023 51.5451 21.3474 49.3782 20.1197 47.5412C18.9259 45.7539 17.2452 44.3549 15.2813 43.5137C13.5954 42.7922 11.7579 42.5082 9.93581 42.6875C8.11373 42.8667 6.36483 43.5036 4.84804 44.5401C3.08076 45.7471 1.69736 47.4463 0.865284 49.4319C0.291604 50.8017 -0.00269628 52.2746 1.81212e-05 53.7622L1.76439e-05 64.6826C-0.00320356 66.8998 0.651835 69.0668 1.88033 70.9032C3.07336 72.6908 4.75379 74.0899 6.71772 74.9307C8.3902 75.6458 10.2118 75.9311 12.0198 75.761C13.8279 75.5909 15.5662 74.9707 17.0795 73.9559C18.5928 72.941 19.8341 71.563 20.6925 69.9449C21.5509 68.3268 21.9998 66.5189 21.999 64.6826L22 64.6826ZM5.02362 53.7622C5.02362 52.1594 5.65327 50.6222 6.77407 49.4888C7.89486 48.3555 9.41498 47.7187 11 47.7187C12.5851 47.7187 14.1052 48.3555 15.226 49.4888C16.3468 50.6222 16.9764 52.1594 16.9764 53.7622L16.9764 64.6826C16.9764 66.2855 16.3468 67.8227 15.226 68.9561C14.1052 70.0894 12.5851 70.7262 11 70.7262C9.41498 70.7262 7.89486 70.0894 6.77407 68.9561C5.65327 67.8227 5.02362 66.2855 5.02362 64.6826L5.02362 53.7622Z" fill="#B2B2B2"/>
<path d="M3.96189 53.7524L3.96189 64.6728C3.96223 65.8176 4.2415 66.9448 4.77499 67.9546C5.30848 68.9644 6.07977 69.8257 7.02068 70.4625C7.32077 70.6677 7.53902 70.9741 7.63652 71.3269C7.73401 71.6798 7.70441 72.0561 7.55299 72.389L7.4948 72.5174C7.40286 72.7206 7.26835 72.9011 7.10059 73.0466C6.93283 73.192 6.73583 73.2988 6.52321 73.3596C6.3106 73.4205 6.08745 73.4339 5.86921 73.3989C5.65098 73.3639 5.44286 73.2814 5.25928 73.157L5.21526 73.1273C3.59472 72.0209 2.32623 70.463 1.56343 68.6424C1.03772 67.3866 0.768036 66.0364 0.770524 64.6728L0.770524 53.7524C0.767561 51.7201 1.36776 49.7337 2.49347 48.0501C3.21868 46.9654 4.14258 46.0311 5.21526 45.2978L5.22993 45.2881C5.4102 45.1658 5.61424 45.0838 5.82837 45.0478C6.04251 45.0117 6.26179 45.0224 6.47152 45.079C6.68125 45.1357 6.87659 45.237 7.04443 45.3762C7.21228 45.5154 7.34875 45.6893 7.44471 45.8862L7.50948 46.0187C7.67265 46.3528 7.71068 46.7354 7.61655 47.0956C7.52242 47.4559 7.30248 47.7695 6.9974 47.9785C6.06297 48.6164 5.29758 49.4764 4.76835 50.483C4.23911 51.4897 3.9622 52.6123 3.96189 53.7524Z" fill="#848484"/>
<path d="M17.9307 64.6917L17.9307 53.7718C17.9304 52.6269 17.6512 51.4997 17.1177 50.4899C16.5842 49.4801 15.8129 48.6188 14.8719 47.982C14.5718 47.7768 14.3536 47.4704 14.2561 47.1176C14.1586 46.7648 14.1882 46.3884 14.3396 46.0556L14.3978 45.9266C14.4898 45.7235 14.6244 45.543 14.7921 45.3976C14.9599 45.2523 15.1569 45.1455 15.3695 45.0846C15.5821 45.0238 15.8052 45.0104 16.0234 45.0453C16.2416 45.0803 16.4497 45.1627 16.6333 45.287L16.6774 45.3172C18.0469 46.2499 19.1687 47.5089 19.9438 48.9832C20.7189 50.4576 21.1235 52.102 21.1221 53.7718L21.1221 64.6917C21.1247 66.0554 20.855 67.4055 20.3292 68.6613C19.5661 70.4817 18.2976 72.0395 16.6774 73.1462L16.6627 73.1565C16.4824 73.2787 16.2783 73.3605 16.0642 73.3965C15.85 73.4324 15.6307 73.4217 15.421 73.365C15.2113 73.3084 15.016 73.207 14.8482 73.0678C14.6804 72.9286 14.5439 72.7547 14.4479 72.5578L14.3831 72.4258C14.2199 72.0917 14.1818 71.7091 14.2759 71.3488C14.37 70.9886 14.5901 70.6749 14.8952 70.466C15.8296 69.828 16.595 68.9679 17.1243 67.9612C17.6535 66.9545 17.9304 65.8318 17.9307 64.6917Z" fill="#848484"/>
<path opacity="0.63" d="M5.02369 53.7623L5.02369 64.6827C5.02592 66.2474 5.62747 67.7503 6.70208 68.8761C7.77669 70.0019 9.24079 70.663 10.7871 70.7205C10.7167 70.7205 10.6459 70.7246 10.5745 70.7246C8.99035 70.7227 7.47154 70.0856 6.3512 68.953C5.23085 67.8203 4.60042 66.2847 4.59814 64.6827L4.59814 53.7623C4.59989 52.1598 5.23024 50.6235 6.35087 49.4904C7.47151 48.3574 8.99088 47.7202 10.5756 47.7188C10.6469 47.7188 10.7177 47.7188 10.7881 47.7223C9.24132 47.7798 7.77674 48.441 6.70188 49.5673C5.62703 50.6935 5.02553 52.1971 5.02369 53.7623Z" fill="black"/>
<path d="M18.1943 53.6759L18.1943 64.7718C18.1922 66.3997 17.5519 67.9603 16.4136 69.1113C15.2753 70.2624 13.732 70.91 12.1222 70.912C11.9535 70.912 11.7849 70.9049 11.6162 70.8905C13.1331 70.7601 14.5464 70.0591 15.577 68.9261C16.6076 67.793 17.1804 66.3102 17.1822 64.7708L17.1822 53.6759C17.1804 52.1364 16.6076 50.6537 15.577 49.5206C14.5464 48.3875 13.1331 47.6865 11.6162 47.5561C11.7825 47.5425 11.9512 47.5355 12.1222 47.5352C13.7321 47.5371 15.2756 48.1846 16.4139 49.3359C17.5522 50.4871 18.1925 52.0479 18.1943 53.6759Z" fill="white"/>
<path opacity="0.44" d="M20.2906 53.7623C20.2932 51.8893 19.7395 50.0588 18.7013 48.5078C17.6933 46.998 16.274 45.8162 14.6153 45.1056C13.4708 44.6182 12.2415 44.3672 10.9996 44.3672C9.75781 44.3672 8.52851 44.6182 7.384 45.1056C5.15726 46.0596 3.38476 47.852 2.44136 50.1037C1.9573 51.2605 1.70896 52.5041 1.7112 53.7602L1.7112 64.6806C1.70842 66.5524 2.2612 68.3819 3.29802 69.9325C4.306 71.4423 5.72531 72.6241 7.384 73.3347C8.80714 73.944 10.3583 74.1841 11.8965 74.0332C13.4347 73.8822 14.9112 73.3451 16.192 72.4705C17.685 71.4512 18.8537 70.016 19.5564 68.3386C20.042 67.1824 20.2918 65.9389 20.2906 64.6826L20.2906 53.7623ZM3.31421 53.7623C3.31421 49.4753 6.76313 45.9882 11.0024 45.9882C15.2417 45.9882 18.6901 49.4754 18.6901 53.7623L18.6901 64.6826C18.6901 68.969 15.2412 72.4567 11.0024 72.4567C6.76364 72.4567 3.31168 68.969 3.31168 64.6826L3.31421 53.7623Z" fill="black"/>
<path d="M3.8588 71.8622C3.71847 71.7353 3.58185 71.6046 3.44894 71.4702C2.52688 70.5383 1.79151 69.435 1.28324 68.221C0.756025 66.962 0.485479 65.6084 0.487807 64.2411L0.487808 54.2039C0.485072 52.1661 1.08703 50.1744 2.21581 48.4863C2.57824 47.9432 2.99116 47.4364 3.44894 46.9728C3.59534 46.8247 3.74613 46.6814 3.90131 46.5429C3.95554 46.4946 4.01899 46.4579 4.08775 46.4352C4.15651 46.4125 4.22913 46.4042 4.30115 46.411C4.37318 46.4177 4.44309 46.4392 4.50659 46.4742C4.57009 46.5092 4.62585 46.557 4.67043 46.6146C4.74818 46.7147 4.78825 46.8396 4.78353 46.9668C4.7788 47.094 4.72958 47.2155 4.64462 47.3095C3.86949 48.1674 3.24442 49.1524 2.79619 50.2225C2.26902 51.4817 1.99847 52.8355 2.00076 54.2029L2.00076 64.2401C1.99836 66.2778 2.60029 68.2695 3.72876 69.9577C3.99611 70.3577 4.291 70.7381 4.61123 71.0962C4.69259 71.1871 4.74077 71.3034 4.74777 71.4258C4.75476 71.5481 4.72015 71.6693 4.64968 71.769L4.64665 71.7736C4.60318 71.8352 4.54737 71.8868 4.48286 71.9251C4.41836 71.9633 4.3466 71.9874 4.27227 71.9958C4.19794 72.0041 4.1227 71.9965 4.05146 71.9735C3.98021 71.9505 3.91457 71.9126 3.8588 71.8622Z" fill="white"/>
<path opacity="0.54" d="M16.3469 71.5884C16.3081 71.5451 16.287 71.4884 16.2879 71.4299C16.2887 71.3715 16.3114 71.3155 16.3515 71.2733C18.154 69.3722 19.1591 66.8396 19.1562 64.2059L19.1562 54.1691C19.1587 52.1312 18.5568 50.1394 17.4282 48.4511C17.1104 47.9757 16.7538 47.5282 16.3621 47.113C16.3208 47.0699 16.2977 47.0123 16.2977 46.9523C16.2977 46.8923 16.3208 46.8347 16.3621 46.7917C16.4043 46.7483 16.4617 46.7235 16.5218 46.7227C16.582 46.7218 16.64 46.7449 16.6834 46.7871C16.734 46.8382 16.7876 46.8894 16.8388 46.9406C17.7608 47.8725 18.4962 48.9758 19.0044 50.1898C19.5317 51.4489 19.8023 52.8028 19.7999 54.1702L19.7999 64.2069C19.8005 65.5495 19.5393 66.8791 19.0312 68.1196C18.5231 69.3601 17.7781 70.487 16.8388 71.436C16.7831 71.4923 16.7274 71.5475 16.6708 71.6018C16.6487 71.6225 16.6228 71.6386 16.5945 71.6492C16.5663 71.6598 16.5362 71.6646 16.5061 71.6633C16.476 71.6621 16.4464 71.6548 16.4191 71.642C16.3918 71.6291 16.3672 71.6109 16.3469 71.5884Z" fill="white"/>
<path d="M7.17556 47.7059C8.22906 47.1226 9.28509 47.0238 9.12823 46.7337C8.97137 46.4436 7.93457 46.3955 6.88107 46.9783C5.82757 47.5611 5.15661 48.5548 5.31246 48.8444C5.46831 49.134 6.12257 48.2887 7.17556 47.7059Z" fill="white"/>
<path d="M7.68001 71.5292C6.9286 71.2309 6.4226 70.7227 6.34265 70.9295C6.2627 71.1362 6.68471 71.697 7.43612 71.9963C8.18754 72.2957 8.98348 72.2158 9.06343 72.0096C9.14338 71.8034 8.43143 71.8275 7.68001 71.5292Z" fill="white"/>
<path d="M8.1603 74.9674C7.73697 74.8501 7.32264 74.7018 6.9206 74.5237C6.54615 74.3583 6.18554 74.1626 5.8423 73.9384C5.52434 73.7303 5.2265 73.4923 4.95275 73.2276C4.93757 73.2128 4.92239 73.198 4.90771 73.1826C4.99778 73.2481 5.09004 73.3121 5.1845 73.3745C5.57099 73.6278 5.97712 73.8491 6.39891 74.0361C6.85216 74.237 7.31925 74.4042 7.79649 74.5365C9.8939 75.1055 12.1026 75.1055 14.2 74.5365C14.6774 74.4042 15.1446 74.237 15.598 74.0361C16.0198 73.8491 16.426 73.6278 16.8125 73.3745C16.9072 73.3121 16.9997 73.2481 17.0897 73.1826L17.0447 73.2276C16.7716 73.4922 16.4744 73.7301 16.1572 73.9384C15.8141 74.1628 15.4534 74.3585 15.0789 74.5237C14.677 74.7018 14.2629 74.8501 13.8397 74.9674C11.9795 75.4722 10.0205 75.4722 8.1603 74.9674Z" fill="white"/>
<path d="M22 107.321L22 96.4013C22.0023 94.1842 21.3474 92.0172 20.1197 90.1802C18.9265 88.3929 17.2461 86.9941 15.2823 86.1533C13.5964 85.4315 11.759 85.1471 9.93675 85.3258C8.11455 85.5046 6.36536 86.1407 4.84804 87.1766C3.08077 88.3836 1.69736 90.0828 0.865289 92.0684C0.291275 93.439 -0.00303208 94.9128 2.30586e-05 96.4013L2.25813e-05 107.322C-0.00298869 109.539 0.652027 111.706 1.88033 113.543C3.07357 115.33 4.75395 116.729 6.71772 117.57C8.39021 118.285 10.2118 118.57 12.0198 118.4C13.8279 118.23 15.5662 117.61 17.0795 116.595C18.5928 115.58 19.8341 114.202 20.6925 112.584C21.5509 110.966 21.9998 109.158 21.999 107.322L22 107.321ZM5.02362 96.4013C5.02362 94.7985 5.65328 93.2613 6.77407 92.1279C7.89487 90.9945 9.41499 90.3578 11 90.3578C12.5851 90.3578 14.1052 90.9945 15.226 92.1279C16.3468 93.2613 16.9764 94.7985 16.9764 96.4013L16.9764 107.322C16.9764 108.925 16.3468 110.462 15.226 111.595C14.1052 112.728 12.5851 113.365 11 113.365C9.41499 113.365 7.89487 112.728 6.77407 111.595C5.65328 110.462 5.02362 108.925 5.02362 107.322L5.02362 96.4013Z" fill="#B2B2B2"/>
<path d="M3.96188 96.3913L3.96188 107.312C3.96223 108.457 4.24149 109.584 4.77498 110.594C5.30847 111.603 6.07976 112.465 7.02067 113.101C7.32052 113.307 7.53861 113.613 7.6361 113.965C7.73358 114.318 7.70413 114.694 7.55299 115.027L7.4948 115.155C7.40274 115.358 7.26816 115.539 7.10037 115.684C6.93258 115.829 6.73559 115.936 6.523 115.997C6.31042 116.058 6.08731 116.071 5.86912 116.036C5.65093 116.001 5.44285 115.919 5.25927 115.794L5.21525 115.764C3.84568 114.832 2.72394 113.573 1.94885 112.098C1.17376 110.624 0.769099 108.979 0.770518 107.31L0.770518 96.3913C0.767555 94.359 1.36775 92.3726 2.49346 90.6891C3.21868 89.6043 4.14257 88.6701 5.21525 87.9367L5.22993 87.927C5.41022 87.8048 5.61425 87.7229 5.82837 87.6869C6.04249 87.6509 6.26174 87.6616 6.47145 87.7182C6.68116 87.7748 6.87647 87.8761 7.04432 88.0153C7.21217 88.1545 7.34868 88.3283 7.4447 88.5251L7.50947 88.6577C7.67264 88.9918 7.71068 89.3743 7.61654 89.7346C7.52241 90.0948 7.30247 90.4084 6.99739 90.6174C6.06297 91.2553 5.29757 92.1153 4.76834 93.1219C4.2391 94.1286 3.96219 95.2512 3.96188 96.3913Z" fill="#848484"/>
<path d="M17.9307 107.331L17.9307 96.411C17.9307 95.2659 17.6515 94.1384 17.118 93.1283C16.5845 92.1182 15.8131 91.2566 14.8719 90.6197C14.5718 90.4145 14.3536 90.1081 14.2561 89.7553C14.1586 89.4025 14.1882 89.0261 14.3396 88.6932L14.3978 88.5643C14.4898 88.3612 14.6244 88.1807 14.7921 88.0353C14.9599 87.89 15.1569 87.7832 15.3695 87.7223C15.5821 87.6615 15.8052 87.6481 16.0234 87.683C16.2416 87.718 16.4497 87.8004 16.6333 87.9247L16.6774 87.9549C18.0469 88.8876 19.1687 90.1466 19.9438 91.6209C20.7188 93.0953 21.1235 94.7397 21.1221 96.4095L21.1221 107.331C21.1245 108.695 20.8549 110.045 20.3292 111.301C19.5656 113.121 18.2973 114.679 16.6774 115.786L16.6627 115.796C16.4824 115.918 16.2784 116 16.0642 116.036C15.8501 116.072 15.6309 116.061 15.4212 116.004C15.2115 115.948 15.0161 115.847 14.8483 115.707C14.6804 115.568 14.5439 115.394 14.4479 115.198L14.3831 115.065C14.22 114.731 14.1819 114.348 14.2761 113.988C14.3702 113.628 14.5901 113.314 14.8952 113.105C15.8296 112.467 16.5949 111.607 17.1241 110.601C17.6534 109.594 17.9303 108.471 17.9307 107.331Z" fill="#848484"/>
<path opacity="0.63" d="M5.02369 96.4015L5.02369 107.322C5.02592 108.887 5.62747 110.39 6.70208 111.515C7.77669 112.641 9.24079 113.302 10.7871 113.36C10.7167 113.36 10.6459 113.364 10.5745 113.364C8.99026 113.362 7.47138 112.725 6.35102 111.592C5.23066 110.459 4.60029 108.923 4.59814 107.321L4.59814 96.4015C4.59975 94.7989 5.23005 93.2624 6.3507 92.1293C7.47135 90.9962 8.99079 90.3589 10.5756 90.3574C10.6469 90.3574 10.7177 90.3574 10.7881 90.361C9.24124 90.4184 7.77658 91.0798 6.70171 92.2061C5.62684 93.3325 5.0254 94.8362 5.02369 96.4015Z" fill="black"/>
<path d="M18.1943 96.3131L18.1943 107.409C18.1922 109.037 17.5519 110.597 16.4136 111.749C15.2753 112.9 13.732 113.547 12.1222 113.549C11.9535 113.549 11.7849 113.542 11.6162 113.528C13.1331 113.398 14.5465 112.697 15.577 111.563C16.6076 110.43 17.1804 108.947 17.1822 107.408L17.1822 96.3131C17.1804 94.7737 16.6076 93.2909 15.577 92.1578C14.5464 91.0247 13.1331 90.3237 11.6162 90.1933C11.7825 90.1797 11.9512 90.1727 12.1222 90.1724C13.7321 90.1743 15.2756 90.8219 16.4139 91.9731C17.5522 93.1243 18.1925 94.6851 18.1943 96.3131Z" fill="white"/>
<path opacity="0.44" d="M20.2906 96.4015C20.2935 94.5295 19.7407 92.6997 18.7038 91.149C17.6961 89.6391 16.2767 88.4574 14.6178 87.7473C13.1943 87.1384 11.6429 86.8987 10.1044 87.0499C8.566 87.2011 7.08928 87.7384 5.8083 88.6131C4.31529 89.6324 3.14663 91.0676 2.44388 92.745C1.95901 93.9016 1.70981 95.1452 1.71119 96.4015L1.71119 107.322C1.70841 109.194 2.2612 111.023 3.29802 112.574C4.306 114.084 5.72531 115.265 7.38399 115.976C8.80735 116.585 10.3586 116.825 11.8968 116.673C13.435 116.522 14.9114 115.984 16.192 115.109C17.685 114.09 18.8537 112.655 19.5564 110.977C20.042 109.821 20.2918 108.578 20.2906 107.321L20.2906 96.4015ZM3.31421 96.4015C3.31421 92.1146 6.76313 88.6274 11.0024 88.6274C15.2417 88.6274 18.6876 92.1141 18.6876 96.4015L18.6876 107.322C18.6876 111.608 15.2387 115.096 10.9999 115.096C6.7611 115.096 3.31168 111.608 3.31168 107.321L3.31421 96.4015Z" fill="black"/>
<path d="M3.8588 114.501C3.71847 114.374 3.58185 114.243 3.44894 114.109C2.52688 113.177 1.79151 112.074 1.28324 110.86C0.756025 109.601 0.485479 108.247 0.487807 106.88L0.487808 96.8424C0.485072 94.8046 1.08703 92.8129 2.21581 91.1248C2.57834 90.5825 2.99126 90.0763 3.44894 89.6133C3.59534 89.4656 3.74613 89.3223 3.90131 89.1835C3.95548 89.1351 4.01887 89.0983 4.08759 89.0755C4.15631 89.0528 4.22891 89.0444 4.30093 89.051C4.37295 89.0576 4.44288 89.0791 4.50642 89.114C4.56996 89.1489 4.62577 89.1966 4.67043 89.2541C4.74818 89.3543 4.78825 89.4791 4.78353 89.6063C4.7788 89.7336 4.72958 89.855 4.64462 89.949C3.86949 90.8069 3.24442 91.792 2.79619 92.862C2.26902 94.1212 1.99847 95.475 2.00076 96.8424L2.00076 106.88C1.99836 108.917 2.60029 110.909 3.72876 112.597C3.99611 112.997 4.291 113.378 4.61123 113.736C4.69259 113.827 4.74077 113.943 4.74777 114.065C4.75476 114.188 4.72015 114.309 4.64968 114.409L4.64665 114.413C4.6031 114.475 4.54723 114.526 4.48269 114.564C4.41814 114.603 4.34637 114.627 4.27204 114.635C4.19771 114.643 4.12249 114.635 4.05129 114.612C3.98009 114.589 3.9145 114.551 3.8588 114.501Z" fill="white"/>
<path opacity="0.54" d="M16.3469 114.227C16.3081 114.184 16.287 114.127 16.2879 114.069C16.2887 114.01 16.3114 113.954 16.3515 113.912C17.2012 113.015 17.8821 111.969 18.3608 110.825C18.8881 109.566 19.1586 108.212 19.1562 106.845L19.1562 96.8079C19.1587 94.77 18.5568 92.7782 17.4282 91.0898C17.1105 90.6138 16.7539 90.1655 16.3621 89.7497C16.3208 89.7067 16.2977 89.649 16.2977 89.589C16.2977 89.5291 16.3208 89.4714 16.3621 89.4284C16.4043 89.385 16.4617 89.3603 16.5218 89.3594C16.582 89.3585 16.64 89.3817 16.6834 89.4238C16.734 89.4749 16.7876 89.5261 16.8388 89.5773C17.7608 90.5092 18.4962 91.6125 19.0044 92.8265C19.5317 94.0856 19.8023 95.4395 19.7999 96.8069L19.7999 106.844C19.8024 108.881 19.2004 110.873 18.0719 112.562C17.7093 113.104 17.2964 113.61 16.8388 114.073C16.7831 114.129 16.7274 114.184 16.6708 114.238C16.6488 114.259 16.623 114.276 16.5948 114.286C16.5666 114.297 16.5366 114.302 16.5065 114.301C16.4764 114.3 16.4468 114.293 16.4194 114.28C16.392 114.268 16.3674 114.25 16.3469 114.227Z" fill="white"/>
<path d="M7.17556 90.3446C8.22906 89.7618 9.28509 89.6625 9.12823 89.3724C8.97137 89.0822 7.93457 89.0341 6.88107 89.6169C5.82757 90.1998 5.15661 91.1935 5.31246 91.4831C5.46831 91.7727 6.12257 90.9264 7.17556 90.3446Z" fill="white"/>
<path d="M7.68001 114.168C6.9286 113.869 6.4226 113.362 6.34265 113.568C6.2627 113.774 6.68471 114.335 7.43612 114.635C8.18754 114.934 8.98348 114.854 9.06343 114.648C9.14338 114.442 8.43143 114.464 7.68001 114.168Z" fill="white"/>
<path d="M8.1603 117.606C7.7369 117.489 7.32256 117.341 6.9206 117.162C6.5461 116.997 6.18549 116.8 5.8423 116.576C5.52423 116.368 5.22638 116.13 4.95275 115.865L4.90771 115.82C4.99778 115.885 5.08988 115.95 5.1845 116.012C5.57077 116.265 5.97693 116.487 6.39891 116.673C6.85216 116.874 7.31925 117.041 7.79649 117.174C9.8939 117.743 12.1026 117.743 14.2 117.174C14.6774 117.041 15.1446 116.874 15.598 116.673C16.02 116.487 16.4262 116.265 16.8125 116.012C16.9071 115.95 16.9997 115.885 17.0897 115.82L17.0447 115.865C16.7709 116.13 16.4729 116.368 16.1547 116.576C15.8124 116.8 15.4526 116.997 15.0789 117.162C14.6771 117.341 14.2629 117.489 13.8397 117.606C11.9795 118.111 10.0205 118.111 8.1603 117.606Z" fill="white"/>
<path d="M8.06811 92.266L8.06812 68.8175C8.06812 67.2773 9.38069 66.0288 10.9999 66.0288C12.6191 66.0288 13.9317 67.2773 13.9317 68.8175L13.9317 92.266C13.9317 93.8062 12.6191 95.0542 10.9999 95.0542C9.38069 95.0542 8.06811 93.8062 8.06811 92.266Z" fill="#B2B2B2"/>
<path opacity="0.15" d="M13.0548 68.8174C13.0548 67.7398 12.1333 66.8638 11.0009 66.8638C9.86847 66.8638 8.94653 67.7398 8.94653 68.8174L8.94653 92.2659C8.94653 93.3404 9.86796 94.2195 11.0009 94.2195C12.1338 94.2195 13.0548 93.343 13.0548 92.2659L13.0548 68.8174Z" fill="black"/>
<path opacity="0.44" d="M10.0978 94.6223C9.02301 94.2242 8.26147 93.2305 8.26147 92.0674L8.26147 69.016C8.26147 67.8529 9.02048 66.8587 10.0978 66.4606C10.4494 66.3307 10.8284 66.5804 10.8284 66.9391L10.8284 94.1439C10.8284 94.5026 10.4494 94.7528 10.0978 94.6223Z" fill="black"/>
<path d="M9.33268 93.8324C9.06508 93.5884 8.85079 93.2906 8.70353 92.9581C8.55628 92.6256 8.4793 92.2656 8.47754 91.9013L8.47754 69.1824C8.47936 68.818 8.55636 68.458 8.7036 68.1254C8.85085 67.7928 9.06511 67.4949 9.33269 67.2508C9.58164 67.019 10.0011 67.1879 10.0011 67.5189L10.0011 93.5637C10.0011 93.8943 9.58164 94.0642 9.33268 93.8324Z" fill="#EAEAEA"/>
<path d="M12.4983 67.2508C12.7658 67.4949 12.98 67.7928 13.1271 68.1254C13.2743 68.458 13.3512 68.818 13.3529 69.1824L13.3529 91.9012C13.3513 92.2656 13.2744 92.6255 13.1272 92.958C12.98 93.2906 12.7658 93.5884 12.4983 93.8323C12.2493 94.0641 11.8293 93.8958 11.8293 93.5642L11.8293 67.5194C11.8283 67.1879 12.2483 67.019 12.4983 67.2508Z" fill="#EAEAEA"/>
<path d="M8.96846 93.1958C8.74118 92.8031 8.62138 92.3563 8.62134 91.9013L8.62134 69.1825C8.62143 68.7273 8.74123 68.2803 8.96846 67.8874C9.04031 67.763 9.23967 67.8111 9.23967 67.9534L9.23967 93.1283C9.23967 93.2721 9.04031 93.3207 8.96846 93.1958Z" fill="white"/>
<path d="M22 149.96L22 139.04C22.0023 136.823 21.3474 134.656 20.1197 132.819C18.9263 131.031 17.2455 129.632 15.2813 128.791C13.5954 128.07 11.7579 127.785 9.93574 127.964C8.11354 128.143 6.36436 128.779 4.84703 129.815C3.07976 131.022 1.69635 132.721 0.864282 134.707C0.290615 136.077 -0.00334566 137.551 2.82308e-05 139.04L2.77534e-05 149.96C-0.00298352 152.178 0.652033 154.345 1.88034 156.181C2.67053 157.365 3.678 158.383 4.84804 159.183C6.50269 160.313 8.43044 160.966 10.4245 161.073C12.4185 161.179 14.4035 160.734 16.1667 159.787C17.9298 158.839 19.4044 157.423 20.4323 155.692C21.4603 153.961 22.0028 151.98 22.0016 149.96L22 149.96ZM5.02363 139.04C5.02363 137.437 5.65328 135.9 6.77408 134.767C7.89487 133.633 9.41499 132.996 11 132.996C12.5851 132.996 14.1052 133.633 15.226 134.767C16.3468 135.9 16.9764 137.437 16.9764 139.04L16.9764 149.96C16.9764 151.563 16.3468 153.1 15.226 154.234C14.1052 155.367 12.5851 156.004 11 156.004C9.41499 156.004 7.89487 155.367 6.77408 154.234C5.65328 153.1 5.02363 151.563 5.02363 149.96L5.02363 139.04Z" fill="#B2B2B2"/>
<path d="M3.96188 139.03L3.96188 149.95C3.96218 151.095 4.24143 152.222 4.77492 153.232C5.30842 154.242 6.07973 155.103 7.02067 155.74C7.32076 155.945 7.53902 156.252 7.63651 156.605C7.734 156.957 7.7044 157.334 7.55299 157.667L7.4948 157.796C7.40278 157.999 7.26824 158.179 7.10048 158.324C6.93271 158.47 6.73572 158.577 6.52313 158.637C6.31054 158.698 6.08742 158.712 5.86921 158.677C5.65099 158.642 5.44288 158.559 5.25927 158.435L5.21525 158.405C3.84568 157.472 2.72394 156.213 1.94885 154.739C1.17376 153.265 0.769099 151.62 0.770518 149.95L0.770518 139.03C0.767555 136.998 1.36775 135.011 2.49346 133.328C3.21868 132.243 4.14257 131.309 5.21525 130.575L5.22993 130.566C5.41022 130.443 5.61425 130.362 5.82837 130.326C6.04249 130.29 6.26174 130.3 6.47145 130.357C6.68116 130.414 6.87647 130.515 7.04432 130.654C7.21217 130.793 7.34868 130.967 7.4447 131.164L7.50947 131.296C7.67264 131.63 7.71068 132.013 7.61654 132.373C7.52241 132.733 7.30247 133.047 6.9974 133.256C6.06297 133.894 5.29757 134.754 4.76834 135.761C4.2391 136.767 3.96219 137.89 3.96188 139.03Z" fill="#848484"/>
<path d="M17.9307 149.97L17.9307 139.05C17.9304 137.905 17.6512 136.778 17.1177 135.768C16.5842 134.758 15.8129 133.897 14.8719 133.26C14.5718 133.055 14.3536 132.748 14.2561 132.395C14.1586 132.043 14.1882 131.666 14.3396 131.333L14.3978 131.204C14.4898 131.001 14.6244 130.821 14.7921 130.675C14.9599 130.53 15.1569 130.423 15.3695 130.362C15.5821 130.302 15.8052 130.288 16.0234 130.323C16.2416 130.358 16.4497 130.441 16.6333 130.565L16.6774 130.595C18.0469 131.528 19.1687 132.787 19.9438 134.261C20.7189 135.735 21.1235 137.38 21.1221 139.05L21.1221 149.97C21.1246 151.334 20.8549 152.684 20.3292 153.94C19.5656 155.76 18.2973 157.317 16.6774 158.425L16.6627 158.434C16.4824 158.557 16.2784 158.638 16.0642 158.674C15.8501 158.71 15.6309 158.7 15.4212 158.643C15.2115 158.586 15.0161 158.485 14.8483 158.346C14.6804 158.207 14.5439 158.033 14.4479 157.836L14.3831 157.704C14.22 157.37 14.1819 156.987 14.2761 156.627C14.3702 156.266 14.5901 155.953 14.8952 155.744C15.8296 155.106 16.595 154.246 17.1243 153.239C17.6535 152.233 17.9304 151.11 17.9307 149.97Z" fill="#848484"/>
<path opacity="0.63" d="M5.02369 139.04L5.02369 149.96C5.02604 151.525 5.62764 153.028 6.70222 154.153C7.7768 155.279 9.24084 155.94 10.7871 155.998C10.7167 155.998 10.6459 156.001 10.5745 156.001C8.99039 156 7.47159 155.363 6.35123 154.23C5.23087 153.098 4.60042 151.562 4.59814 149.96L4.59814 139.04C4.59989 137.437 5.23024 135.901 6.35087 134.768C7.47151 133.635 8.99088 132.998 10.5756 132.996C10.6469 132.996 10.7177 132.996 10.7881 133C9.24132 133.057 7.77674 133.718 6.70188 134.845C5.62703 135.971 5.02553 137.474 5.02369 139.04Z" fill="black"/>
<path d="M18.1943 138.952L18.1943 150.048C18.1924 151.676 17.552 153.237 16.4137 154.388C15.2754 155.539 13.732 156.187 12.1222 156.188C11.9535 156.188 11.7849 156.181 11.6162 156.167C13.1331 156.037 14.5464 155.336 15.577 154.203C16.6076 153.07 17.1804 151.587 17.1822 150.048L17.1822 138.952C17.1804 137.412 16.6076 135.93 15.577 134.796C14.5464 133.663 13.1331 132.962 11.6162 132.832C11.7825 132.818 11.9512 132.811 12.1222 132.811C13.7321 132.813 15.2756 133.461 16.4139 134.612C17.5522 135.763 18.1925 137.324 18.1943 138.952Z" fill="white"/>
<path opacity="0.44" d="M20.2908 139.04C20.2938 137.168 19.741 135.338 18.704 133.788C17.6964 132.278 16.277 131.096 14.618 130.386C13.1944 129.777 11.643 129.537 10.1046 129.688C8.56616 129.839 7.08944 130.377 5.80846 131.251C4.31575 132.271 3.14716 133.706 2.44404 135.383C1.96004 136.54 1.7117 137.784 1.71388 139.04L1.71388 149.96C1.71082 151.832 2.26363 153.662 3.30071 155.212C4.30823 156.722 5.72768 157.904 7.38668 158.614C8.8097 159.222 10.3603 159.462 11.898 159.311C13.4356 159.159 14.9116 158.622 16.1922 157.748C17.6849 156.729 18.8535 155.294 19.5566 153.617C20.0421 152.46 20.2919 151.216 20.2908 149.96L20.2908 139.04ZM3.31437 139.04C3.31437 134.753 6.76329 131.266 11.0026 131.266C15.2419 131.266 18.6903 134.753 18.6903 139.04L18.6903 149.96C18.6903 154.247 15.2414 157.734 11.0026 157.734C6.76379 157.734 3.31184 154.247 3.31184 149.96L3.31437 139.04Z" fill="black"/>
<path d="M3.8588 157.139C3.71847 157.012 3.58185 156.881 3.44894 156.747C2.52688 155.815 1.79151 154.712 1.28324 153.498C0.756025 152.239 0.485479 150.885 0.487807 149.518L0.487808 139.482C0.485414 137.444 1.08734 135.452 2.21581 133.764C2.57834 133.222 2.99126 132.715 3.44894 132.252C3.59534 132.105 3.74613 131.962 3.90131 131.823C3.95548 131.774 4.01887 131.737 4.08759 131.715C4.15631 131.692 4.22891 131.684 4.30093 131.69C4.37295 131.697 4.44288 131.718 4.50642 131.753C4.56996 131.788 4.62577 131.836 4.67043 131.893C4.74818 131.993 4.78825 132.118 4.78353 132.245C4.7788 132.373 4.72958 132.494 4.64462 132.588C3.86935 133.446 3.24426 134.431 2.79619 135.502C2.26898 136.761 1.99843 138.114 2.00076 139.482L2.00076 149.519C1.99836 151.557 2.60029 153.548 3.72876 155.236C3.99611 155.637 4.29099 156.017 4.61123 156.375C4.69255 156.466 4.74071 156.582 4.74771 156.705C4.7547 156.827 4.72011 156.948 4.64968 157.048L4.64665 157.052C4.60302 157.114 4.54709 157.165 4.48251 157.203C4.41793 157.241 4.34613 157.265 4.27181 157.273C4.19748 157.282 4.12229 157.274 4.05113 157.251C3.97997 157.227 3.91444 157.189 3.8588 157.139Z" fill="white"/>
<path opacity="0.54" d="M16.3469 156.866C16.3081 156.822 16.287 156.766 16.2879 156.707C16.2887 156.649 16.3114 156.593 16.3515 156.551C17.2012 155.654 17.8821 154.607 18.3608 153.464C18.8881 152.204 19.1586 150.851 19.1562 149.483L19.1562 139.446C19.1587 137.409 18.5568 135.417 17.4282 133.728C17.1104 133.253 16.7538 132.806 16.3621 132.39C16.3208 132.347 16.2977 132.29 16.2977 132.23C16.2977 132.17 16.3208 132.112 16.3621 132.069C16.4043 132.026 16.4617 132.001 16.5218 132C16.582 131.999 16.64 132.022 16.6834 132.064C16.736 132.115 16.7878 132.166 16.8388 132.218C17.7608 133.15 18.4962 134.253 19.0044 135.467C19.5317 136.726 19.8023 138.08 19.7999 139.448L19.7999 149.484C19.8024 151.522 19.2004 153.514 18.0719 155.202C17.7093 155.745 17.2964 156.251 16.8388 156.714C16.7831 156.77 16.7274 156.825 16.6708 156.88C16.6486 156.9 16.6227 156.916 16.5944 156.927C16.5661 156.937 16.5361 156.942 16.506 156.941C16.4759 156.939 16.4464 156.932 16.4191 156.919C16.3918 156.906 16.3672 156.888 16.3469 156.866Z" fill="white"/>
<path d="M7.17556 132.984C8.22906 132.401 9.28509 132.302 9.12823 132.012C8.97137 131.721 7.93457 131.673 6.88107 132.256C5.82757 132.839 5.15661 133.833 5.31246 134.122C5.46831 134.411 6.12257 133.567 7.17556 132.984Z" fill="white"/>
<path d="M7.68001 156.807C6.9286 156.509 6.4226 156.001 6.34265 156.207C6.2627 156.413 6.68471 156.975 7.43612 157.274C8.18754 157.573 8.98348 157.494 9.06343 157.287C9.14338 157.081 8.43143 157.105 7.68001 156.807Z" fill="white"/>
<path d="M8.1603 160.245C7.7369 160.128 7.32256 159.98 6.9206 159.802C6.54611 159.636 6.18551 159.44 5.8423 159.215C5.52434 159.007 5.2265 158.769 4.95275 158.504L4.90771 158.459C4.99778 158.525 5.09004 158.589 5.1845 158.651C5.57089 158.905 5.97704 159.126 6.39891 159.312C6.85216 159.513 7.31925 159.681 7.79649 159.813C9.8939 160.382 12.1026 160.382 14.2 159.813C14.6774 159.681 15.1446 159.513 15.598 159.312C16.0199 159.126 16.4261 158.905 16.8125 158.651C16.9072 158.589 16.9997 158.525 17.0897 158.459L17.0447 158.504C16.7708 158.769 16.4728 159.007 16.1547 159.215C15.8123 159.439 15.4525 159.635 15.0789 159.8C14.6771 159.978 14.2629 160.126 13.8397 160.243C11.9795 160.748 10.0205 160.748 8.1603 160.243L8.1603 160.245Z" fill="white"/>
<path d="M8.06811 134.905L8.06812 111.456C8.06812 109.916 9.38069 108.667 10.9999 108.667C12.6191 108.667 13.9317 109.916 13.9317 111.456L13.9317 134.905C13.9317 136.445 12.6191 137.693 10.9999 137.693C9.38069 137.694 8.06811 136.445 8.06811 134.905Z" fill="#B2B2B2"/>
<path opacity="0.15" d="M13.0548 111.457C13.0548 110.382 12.1333 109.503 11.0009 109.503C9.86847 109.503 8.94653 110.379 8.94653 111.457L8.94653 134.905C8.94653 135.982 9.86796 136.859 11.0009 136.859C12.1338 136.859 13.0548 135.982 13.0548 134.905L13.0548 111.457Z" fill="black"/>
<path opacity="0.44" d="M10.0978 137.261C9.02301 136.863 8.26147 135.869 8.26147 134.706L8.26147 111.655C8.26147 110.492 9.02048 109.497 10.0978 109.099C10.4494 108.969 10.8284 109.219 10.8284 109.578L10.8284 136.783C10.8284 137.142 10.4494 137.391 10.0978 137.261Z" fill="black"/>
<path d="M9.33268 136.472C9.06511 136.228 8.85085 135.93 8.7036 135.597C8.55635 135.265 8.47936 134.905 8.47754 134.54L8.47754 111.821C8.47936 111.457 8.55636 111.097 8.7036 110.764C8.85085 110.432 9.06511 110.134 9.33269 109.89C9.58164 109.658 10.0011 109.827 10.0011 110.158L10.0011 136.203C10.0011 136.535 9.58164 136.703 9.33268 136.472Z" fill="#EAEAEA"/>
<path d="M12.4983 109.89C12.7658 110.134 12.98 110.432 13.1271 110.764C13.2743 111.097 13.3512 111.457 13.3529 111.821L13.3529 134.54C13.3512 134.905 13.2743 135.265 13.1271 135.597C12.98 135.93 12.7658 136.228 12.4983 136.472C12.2493 136.703 11.8293 136.535 11.8293 136.203L11.8293 110.158C11.8283 109.827 12.2483 109.658 12.4983 109.89Z" fill="#EAEAEA"/>
<path d="M8.96846 135.835C8.74123 135.442 8.62143 134.995 8.62134 134.54L8.62134 111.821C8.62143 111.366 8.74123 110.919 8.96846 110.526C9.04031 110.402 9.23967 110.45 9.23967 110.592L9.23967 135.767C9.23967 135.911 9.04031 135.959 8.96846 135.835Z" fill="white"/>
<path d="M22 22.044L22 11.1236C22.0023 8.90644 21.3474 6.7395 20.1197 4.90251C18.9259 3.11523 17.2452 1.71628 15.2813 0.875029C13.5954 0.153549 11.7579 -0.130466 9.93581 0.0487926C8.11373 0.228051 6.36483 0.864901 4.84804 1.90147C3.08076 3.10845 1.69736 4.80758 0.865284 6.79318C0.291604 8.16305 -0.00269628 9.63594 1.81212e-05 11.1236L1.76439e-05 22.044C-0.00320356 24.2611 0.651835 26.4281 1.88033 28.2645C3.07336 30.0522 4.75379 31.4512 6.71772 32.292C8.73406 33.1544 10.9591 33.3883 13.1078 32.9638C15.2564 32.5392 17.2308 31.4756 18.7778 29.9091C19.8004 28.8771 20.6115 27.6511 21.1645 26.3014C21.7174 24.9517 22.0014 23.5049 22 22.044ZM5.02362 11.1236C5.02362 9.52074 5.65327 7.98355 6.77407 6.85017C7.89486 5.71679 9.41498 5.08006 11 5.08006C12.5851 5.08006 14.1052 5.71679 15.226 6.85017C16.3468 7.98355 16.9764 9.52074 16.9764 11.1236L16.9764 22.044C16.9764 23.6468 16.3468 25.184 15.226 26.3174C14.1052 27.4508 12.5851 28.0875 11 28.0875C9.41498 28.0875 7.89486 27.4508 6.77407 26.3174C5.65327 25.184 5.02362 23.6468 5.02362 22.044L5.02362 11.1236Z" fill="#B2B2B2"/>
<path d="M3.96189 11.1136L3.96189 22.034C3.96223 23.1789 4.2415 24.306 4.77499 25.3158C5.30848 26.3256 6.07977 27.187 7.02068 27.8237C7.32073 28.0289 7.53897 28.3352 7.63646 28.6879C7.73396 29.0407 7.70438 29.417 7.55299 29.7497L7.4948 29.8787C7.40279 30.0818 7.26825 30.2623 7.10048 30.4076C6.93272 30.553 6.73573 30.6598 6.52314 30.7206C6.31055 30.7815 6.08743 30.7949 5.86921 30.7599C5.651 30.725 5.44289 30.6425 5.25928 30.5183L5.21526 30.4886C3.59472 29.3822 2.32623 27.8243 1.56343 26.0037C1.03772 24.7479 0.768036 23.3977 0.770524 22.034L0.770524 11.1136C0.767561 9.08134 1.36776 7.09493 2.49347 5.41139C3.21883 4.32722 4.14272 3.39348 5.21526 2.66057L5.22993 2.65085C5.4102 2.52854 5.61424 2.44662 5.82837 2.41056C6.04251 2.37451 6.26179 2.38516 6.47152 2.44181C6.68125 2.49845 6.87659 2.59978 7.04443 2.73899C7.21228 2.87821 7.34875 3.0521 7.44471 3.24901L7.50948 3.38154C7.67265 3.71564 7.71068 4.09818 7.61655 4.45844C7.52242 4.8187 7.30248 5.13231 6.9974 5.34129C6.06319 5.97904 5.29793 6.83877 4.7687 7.84514C4.23948 8.85152 3.96244 9.9738 3.96189 11.1136Z" fill="#848484"/>
<path d="M17.9307 22.0535L17.9307 11.1326C17.9304 9.98777 17.6512 8.86067 17.1177 7.85094C16.5842 6.84121 15.8129 5.97997 14.8719 5.34338C14.5718 5.13813 14.3536 4.83177 14.2561 4.47893C14.1586 4.12609 14.1882 3.7497 14.3396 3.41688L14.3978 3.28794C14.4898 3.08482 14.6244 2.90433 14.7921 2.75896C14.9599 2.61358 15.1569 2.50679 15.3695 2.44597C15.5821 2.38514 15.8052 2.37174 16.0234 2.40668C16.2416 2.44162 16.4497 2.52407 16.6333 2.64833L16.6774 2.67852C18.0469 3.61117 19.1686 4.87007 19.9436 6.34432C20.7187 7.81857 21.1234 9.46294 21.1221 11.1326L21.1221 22.0535C21.1246 23.4172 20.8549 24.7673 20.3292 26.0231C19.5661 27.8436 18.2976 29.4014 16.6774 30.5081L16.6627 30.5183C16.4824 30.6405 16.2783 30.7223 16.0642 30.7583C15.85 30.7943 15.6307 30.7836 15.421 30.7269C15.2113 30.6702 15.016 30.5688 14.8482 30.4296C14.6804 30.2904 14.5439 30.1165 14.4479 29.9196L14.3831 29.7876C14.2199 29.4535 14.1818 29.071 14.2759 28.7107C14.37 28.3504 14.5901 28.0368 14.8952 27.8279C15.8296 27.1899 16.595 26.3298 17.1243 25.323C17.6535 24.3163 17.9304 23.1936 17.9307 22.0535Z" fill="#848484"/>
<path opacity="0.63" d="M5.02369 11.1236L5.02369 22.044C5.02592 23.6087 5.62747 25.1117 6.70208 26.2375C7.77669 27.3633 9.24079 28.0243 10.7871 28.0819C10.7167 28.0819 10.6459 28.086 10.5745 28.086C8.99035 28.0841 7.47154 27.447 6.3512 26.3143C5.23085 25.1817 4.60042 23.646 4.59814 22.044L4.59814 11.1236C4.59989 9.52112 5.23024 7.98479 6.35087 6.85177C7.47151 5.71874 8.99088 5.08157 10.5756 5.08008C10.6469 5.08008 10.7177 5.08008 10.7881 5.08366C9.24132 5.1411 7.77674 5.80237 6.70188 6.9286C5.62703 8.05483 5.02553 9.55841 5.02369 11.1236Z" fill="black"/>
<path d="M18.1943 11.0358L18.1943 22.1317C18.1922 23.7595 17.5519 25.3201 16.4136 26.4712C15.2753 27.6223 13.732 28.2699 12.1222 28.2719C11.9522 28.2719 11.7842 28.2642 11.6162 28.2504C13.1331 28.12 14.5464 27.419 15.577 26.2859C16.6076 25.1528 17.1804 23.6701 17.1822 22.1306L17.1822 11.0358C17.1804 9.49631 16.6076 8.01356 15.577 6.88047C14.5464 5.74739 13.1331 5.0464 11.6162 4.916C11.7825 4.90201 11.9512 4.89502 12.1222 4.89502C13.7321 4.89692 15.2756 5.54451 16.4139 6.69573C17.5522 7.84694 18.1925 9.40776 18.1943 11.0358Z" fill="white"/>
<path opacity="0.44" d="M20.2908 11.1236C20.2937 9.25162 19.7409 7.42186 18.704 5.87113C17.696 4.36136 16.2767 3.17957 14.618 2.46893C13.1945 1.85968 11.643 1.61981 10.1045 1.77109C8.56596 1.92238 7.08923 2.46004 5.80846 3.33522C4.31546 4.35451 3.14679 5.78976 2.44405 7.46708C1.95999 8.62386 1.71165 9.8675 1.71388 11.1236L1.71388 22.044C1.71036 23.9155 2.26225 25.745 3.29818 27.2959C4.30616 28.8057 5.72547 29.9875 7.38416 30.6981C8.80751 31.307 10.3587 31.5467 11.897 31.3953C13.4352 31.2439 14.9116 30.7063 16.1922 29.8313C17.6852 28.812 18.8538 27.3768 19.5566 25.6995C20.0421 24.5434 20.2919 23.3 20.2908 22.044L20.2908 11.1236ZM3.31437 11.1236C3.31437 6.83668 6.76329 3.34903 11.0026 3.34903C15.2419 3.34903 18.6903 6.83668 18.6903 11.1236L18.6903 22.044C18.6903 26.3304 15.2414 29.818 11.0026 29.818C6.7638 29.818 3.31184 26.3304 3.31184 22.044L3.31437 11.1236Z" fill="black"/>
<path d="M3.85881 29.2228C3.71864 29.0964 3.58202 28.967 3.44894 28.8314C2.5271 27.9 1.79175 26.7975 1.28325 25.5842C0.755709 24.3244 0.485157 22.9699 0.487812 21.6018L0.487812 11.564C0.48552 9.5265 1.08744 7.53506 2.21581 5.84698C2.57835 5.30476 2.99127 4.7988 3.44894 4.33598C3.59535 4.18827 3.74614 4.045 3.90131 3.90616C3.95548 3.85771 4.01888 3.82097 4.0876 3.79819C4.15632 3.77541 4.22892 3.76707 4.30094 3.77368C4.37296 3.7803 4.44289 3.80172 4.50643 3.83664C4.56996 3.87157 4.62578 3.91925 4.67044 3.97677C4.74818 4.07694 4.78826 4.20175 4.78353 4.32899C4.77881 4.45624 4.72959 4.57766 4.64463 4.67164C3.86919 5.52931 3.24408 6.51445 2.7962 7.58467C2.26911 8.84354 1.99857 10.197 2.00076 11.564L2.00076 21.6018C1.99827 23.6397 2.60019 25.6315 3.72876 27.3199C3.99612 27.7199 4.291 28.1003 4.61123 28.4584C4.6926 28.5493 4.74078 28.6656 4.74777 28.7879C4.75477 28.9103 4.72016 29.0315 4.64969 29.1312L4.64665 29.1358C4.60306 29.1973 4.54717 29.2487 4.4826 29.2869C4.41804 29.325 4.34626 29.3489 4.27193 29.3571C4.1976 29.3653 4.1224 29.3576 4.05122 29.3345C3.98004 29.3113 3.91448 29.2733 3.85881 29.2228Z" fill="white"/>
<path opacity="0.54" d="M16.3469 28.9498C16.3081 28.9064 16.287 28.8498 16.2879 28.7913C16.2887 28.7328 16.3114 28.6768 16.3515 28.6346C17.2009 27.7373 17.8817 26.6913 18.3608 25.5476C18.888 24.2884 19.1585 22.9346 19.1562 21.5672L19.1562 11.53C19.1586 9.49224 18.5567 7.50061 17.4282 5.81238C17.1104 5.33707 16.7538 4.88949 16.3621 4.47433C16.3208 4.43127 16.2977 4.37364 16.2977 4.31366C16.2977 4.25367 16.3208 4.19604 16.3621 4.15299C16.4043 4.10965 16.4617 4.08487 16.5218 4.08401C16.582 4.08315 16.64 4.10627 16.6834 4.14838C16.736 4.19853 16.7878 4.2497 16.8388 4.30189C17.7608 5.23384 18.4962 6.33711 19.0044 7.55109C19.5317 8.8101 19.8022 10.1637 19.7999 11.531L19.7999 21.5672C19.8034 23.6047 19.2023 25.5964 18.0744 27.2848C17.7119 27.8271 17.299 28.3333 16.8413 28.7963C16.7856 28.852 16.73 28.9073 16.6733 28.9621C16.6512 28.9833 16.6252 28.9998 16.5967 29.0107C16.5683 29.0216 16.538 29.0266 16.5075 29.0254C16.4771 29.0243 16.4473 29.017 16.4197 29.004C16.3921 28.991 16.3673 28.9726 16.3469 28.9498Z" fill="white"/>
<path d="M7.17553 5.06555C8.22903 4.48376 9.28506 4.385 9.1282 4.09334C8.97134 3.80168 7.93454 3.75717 6.88154 4.33998C5.82855 4.92279 5.15708 5.91648 5.31293 6.20609C5.46878 6.49571 6.12254 5.64989 7.17553 5.06555Z" fill="white"/>
<path d="M7.68001 28.8905C6.9286 28.5922 6.4226 28.0841 6.34265 28.2908C6.2627 28.4975 6.68471 29.0583 7.43612 29.3577C8.18754 29.657 8.98348 29.5772 9.06343 29.371C9.14338 29.1648 8.43143 29.1888 7.68001 28.8905Z" fill="white"/>
<path d="M8.1603 32.3288C7.73697 32.2115 7.32264 32.0632 6.9206 31.8851C6.5461 31.7192 6.18549 31.523 5.8423 31.2982C5.52422 31.0901 5.22637 30.852 4.95275 30.587C4.93757 30.5727 4.92239 30.5573 4.90771 30.5425C4.99778 30.608 5.09004 30.6719 5.1845 30.7344C5.57099 30.9877 5.97712 31.2089 6.39891 31.396C6.85216 31.5968 7.31925 31.7641 7.79649 31.8964C9.8939 32.4654 12.1026 32.4654 14.2 31.8964C14.6774 31.7641 15.1446 31.5968 15.598 31.396C16.0198 31.2089 16.426 30.9877 16.8125 30.7344C16.9072 30.6719 16.9997 30.608 17.0897 30.5425L17.0447 30.587C16.7709 30.852 16.4729 31.0901 16.1547 31.2982C15.8124 31.523 15.4526 31.7193 15.0789 31.8851C14.677 32.0632 14.2629 32.2115 13.8397 32.3288C11.9795 32.8336 10.0205 32.8336 8.1603 32.3288Z" fill="white"/>
<path d="M8.06811 49.6273L8.06812 26.1788C8.06812 24.6386 9.38069 23.3901 10.9999 23.3901C12.6191 23.3901 13.9317 24.6386 13.9317 26.1788L13.9317 49.6273C13.9317 51.167 12.6191 52.4155 10.9999 52.4155C9.38069 52.4155 8.06811 51.1685 8.06811 49.6273Z" fill="#B2B2B2"/>
<path opacity="0.15" d="M13.0548 26.1787C13.0548 25.1011 12.1333 24.2251 11.0009 24.2251C9.86847 24.2251 8.94653 25.1011 8.94653 26.1787L8.94653 49.6272C8.94653 50.7018 9.86796 51.5808 11.0009 51.5808C12.1338 51.5808 13.0548 50.7043 13.0548 49.6272L13.0548 26.1787Z" fill="black"/>
<path opacity="0.44" d="M10.0978 51.9835C9.02301 51.5854 8.26147 50.5917 8.26147 49.4287L8.26147 26.3772C8.26147 25.2136 9.02048 24.22 10.0978 23.8219C10.4494 23.6909 10.8284 23.9416 10.8284 24.3003L10.8284 51.5051C10.8284 51.8638 10.4494 52.114 10.0978 51.9835Z" fill="black"/>
<path d="M9.33268 51.1937C9.06501 50.9497 8.85069 50.6518 8.70343 50.3192C8.55617 49.9866 8.47923 49.6265 8.47754 49.2621L8.47754 26.5432C8.47943 26.1789 8.55646 25.819 8.70371 25.4865C8.85095 25.154 9.06517 24.8562 9.33269 24.6121C9.58164 24.3803 10.0011 24.5492 10.0011 24.8803L10.0011 50.9251C10.0011 51.2571 9.58164 51.4245 9.33268 51.1937Z" fill="#EAEAEA"/>
<path d="M12.4983 24.6121C12.7658 24.8562 12.98 25.1541 13.1271 25.4867C13.2743 25.8194 13.3512 26.1794 13.3529 26.5437L13.3529 49.2626C13.3513 49.6269 13.2744 49.9868 13.1272 50.3194C12.98 50.6519 12.7658 50.9497 12.4983 51.1937C12.2493 51.4255 11.8293 51.2571 11.8293 50.9256L11.8293 24.8808C11.8283 24.5492 12.2483 24.3803 12.4983 24.6121Z" fill="#EAEAEA"/>
<path d="M8.96846 50.5572C8.74112 50.1643 8.62131 49.7173 8.62134 49.2621L8.62134 26.5433C8.62143 26.0881 8.74123 25.6411 8.96846 25.2482C9.04031 25.1239 9.23967 25.172 9.23967 25.3142L9.23967 50.4891C9.23967 50.6334 9.04031 50.6821 8.96846 50.5572Z" fill="white"/>
<path d="M22 192.598L22 181.678C22.0014 179.659 21.459 177.678 20.4311 175.946C19.4032 174.215 17.9286 172.8 16.1654 171.852C14.4022 170.904 12.4171 170.459 10.423 170.566C8.4289 170.672 6.50112 171.326 4.84651 172.456C3.0795 173.664 1.69661 175.364 0.86528 177.35C0.291933 178.719 -0.00235882 180.192 1.37464e-05 181.678L1.3269e-05 192.598C-0.002998 194.816 0.652018 196.983 1.88032 198.819C2.67052 200.003 3.67799 201.021 4.84803 201.82C6.50268 202.951 8.43042 203.604 10.4244 203.711C12.4185 203.817 14.4035 203.372 16.1666 202.425C17.9297 201.477 19.4044 200.061 20.4323 198.33C21.4603 196.599 22.0028 194.618 22.0015 192.598L22 192.598ZM5.02361 181.678C5.02361 180.076 5.65327 178.538 6.77406 177.405C7.89486 176.272 9.41498 175.635 11 175.635C12.5851 175.635 14.1052 176.272 15.226 177.405C16.3468 178.538 16.9764 180.076 16.9764 181.678L16.9764 192.598C16.9764 194.201 16.3468 195.738 15.226 196.872C14.1052 198.005 12.5851 198.642 11 198.642C9.41498 198.642 7.89486 198.005 6.77406 196.872C5.65327 195.738 5.02361 194.201 5.02361 192.598L5.02361 181.678Z" fill="#B2B2B2"/>
<path d="M3.96188 181.669L3.96188 192.589C3.96193 193.735 4.24105 194.862 4.77456 195.872C5.30807 196.882 6.07951 197.744 7.02067 198.381C7.32076 198.586 7.53901 198.892 7.6365 199.245C7.734 199.598 7.7044 199.974 7.55298 200.307L7.49479 200.436C7.40278 200.639 7.26824 200.82 7.10047 200.965C6.93271 201.11 6.73572 201.217 6.52313 201.278C6.31054 201.339 6.08742 201.352 5.8692 201.317C5.65099 201.282 5.44288 201.2 5.25927 201.076L5.21525 201.046C3.84567 200.113 2.72394 198.854 1.94884 197.379C1.17375 195.905 0.769094 194.261 0.770513 192.591L0.770514 181.669C0.768236 179.637 1.36839 177.652 2.49346 175.969C3.21867 174.884 4.14257 173.95 5.21525 173.216L5.22992 173.207C5.41021 173.085 5.61425 173.003 5.82837 172.967C6.04248 172.931 6.26174 172.941 6.47144 172.998C6.68115 173.055 6.87647 173.156 7.04432 173.295C7.21217 173.434 7.34868 173.608 7.4447 173.805L7.50947 173.937C7.67264 174.272 7.71067 174.654 7.61654 175.014C7.5224 175.375 7.30247 175.688 6.99739 175.897C6.06331 176.535 5.29814 177.395 4.76893 178.401C4.23971 179.407 3.9626 180.529 3.96188 181.669Z" fill="#848484"/>
<path d="M17.9306 192.609L17.9306 181.688C17.9303 180.543 17.651 179.416 17.1175 178.406C16.584 177.397 15.8127 176.535 14.8718 175.899C14.572 175.693 14.3539 175.387 14.2564 175.035C14.1589 174.682 14.1884 174.306 14.3395 173.973L14.3977 173.845C14.4898 173.642 14.6243 173.461 14.7921 173.316C14.9599 173.171 15.1569 173.064 15.3695 173.003C15.5821 172.942 15.8052 172.929 16.0234 172.964C16.2416 172.999 16.4496 173.081 16.6332 173.206L16.6772 173.236C18.0468 174.168 19.1686 175.427 19.9436 176.902C20.7187 178.376 21.1234 180.021 21.122 181.69L21.122 192.609C21.1245 193.972 20.8548 195.323 20.3291 196.578C19.5655 198.398 18.2971 199.956 16.6772 201.063L16.6626 201.073C16.4823 201.195 16.2782 201.277 16.0641 201.313C15.85 201.349 15.6308 201.338 15.421 201.282C15.2113 201.225 15.016 201.124 14.8482 200.985C14.6803 200.846 14.5438 200.672 14.4478 200.475L14.383 200.342C14.2199 200.008 14.1818 199.626 14.276 199.265C14.3701 198.905 14.59 198.592 14.8951 198.383C15.8295 197.745 16.5949 196.885 17.1242 195.878C17.6534 194.871 17.9303 193.749 17.9306 192.609Z" fill="#848484"/>
<path opacity="0.63" d="M5.02369 181.679L5.02369 192.599C5.02604 194.163 5.62764 195.666 6.70222 196.792C7.7768 197.918 9.24084 198.579 10.7871 198.637C10.7167 198.637 10.6459 198.64 10.5745 198.64C8.99039 198.638 7.47159 198.001 6.35123 196.869C5.23087 195.736 4.60042 194.201 4.59814 192.599L4.59814 181.679C4.59989 180.076 5.23024 178.54 6.35087 177.407C7.47151 176.274 8.99088 175.637 10.5756 175.635C10.6469 175.635 10.7177 175.635 10.7881 175.639C9.24137 175.697 7.77678 176.358 6.70192 177.484C5.62705 178.61 5.02553 180.114 5.02369 181.679Z" fill="black"/>
<path d="M18.1943 181.59L18.1943 192.687C18.1924 194.315 17.552 195.875 16.4137 197.027C15.2754 198.178 13.732 198.825 12.1222 198.827C11.9535 198.827 11.7849 198.82 11.6162 198.806C13.1331 198.676 14.5464 197.975 15.577 196.842C16.6076 195.709 17.1804 194.226 17.1822 192.686L17.1822 181.59C17.1803 180.051 16.6074 178.568 15.5769 177.435C14.5463 176.302 13.1331 175.601 11.6162 175.471C11.7825 175.457 11.9512 175.45 12.1222 175.45C13.7321 175.452 15.2756 176.099 16.4139 177.25C17.5522 178.402 18.1925 179.962 18.1943 181.59Z" fill="white"/>
<path opacity="0.44" d="M20.2906 181.679C20.2924 179.807 19.7388 177.979 18.7013 176.429C17.6933 174.919 16.274 173.738 14.6153 173.027C13.1918 172.418 11.6403 172.178 10.1018 172.329C8.56327 172.48 7.08654 173.018 5.80578 173.893C4.31277 174.913 3.1441 176.348 2.44136 178.025C1.95735 179.182 1.70901 180.425 1.7112 181.681L1.71119 192.598C1.70901 193.855 1.95735 195.098 2.44136 196.255C3.38455 198.507 5.15714 200.299 7.384 201.253C8.80732 201.861 10.3584 202.101 11.8965 201.95C13.4347 201.799 14.9112 201.262 16.192 200.387C17.6847 199.368 18.8533 197.933 19.5564 196.256C20.0421 195.099 20.2918 193.855 20.2906 192.598L20.2906 181.679ZM3.31421 181.679C3.31421 177.392 6.76313 173.905 11.0024 173.905C15.2417 173.905 18.6901 177.392 18.6901 181.679L18.6901 192.598C18.6901 196.885 15.2412 200.373 11.0024 200.373C6.76364 200.373 3.31168 196.886 3.31168 192.598L3.31421 181.679Z" fill="black"/>
<path d="M3.8588 199.778C3.71847 199.651 3.58185 199.521 3.44894 199.386C2.52704 198.454 1.79169 197.351 1.28324 196.138C0.756064 194.878 0.485522 193.525 0.487807 192.157L0.487807 182.12C0.485414 180.082 1.08734 178.091 2.21581 176.402C2.57834 175.86 2.99126 175.354 3.44894 174.891C3.59534 174.743 3.74613 174.6 3.90131 174.461C3.95551 174.413 4.01891 174.376 4.08762 174.353C4.15633 174.331 4.22891 174.322 4.30091 174.329C4.37291 174.335 4.44282 174.357 4.50636 174.392C4.5699 174.427 4.62573 174.474 4.67043 174.532C4.74818 174.632 4.78825 174.757 4.78353 174.884C4.7788 175.011 4.72958 175.133 4.64462 175.227C3.86934 176.085 3.24426 177.07 2.79619 178.14C2.26898 179.399 1.99843 180.753 2.00076 182.12L2.00076 192.157C1.99802 194.195 2.59997 196.187 3.72876 197.875C3.99611 198.275 4.29099 198.656 4.61123 199.014C4.69255 199.105 4.74071 199.221 4.74771 199.343C4.7547 199.465 4.72011 199.586 4.64968 199.686L4.64665 199.691C4.6031 199.752 4.54723 199.804 4.48269 199.842C4.41814 199.88 4.34637 199.904 4.27204 199.912C4.19771 199.921 4.12249 199.913 4.05129 199.89C3.98009 199.867 3.9145 199.829 3.8588 199.778Z" fill="white"/>
<path opacity="0.54" d="M16.3469 199.506C16.3081 199.463 16.287 199.406 16.2879 199.348C16.2887 199.289 16.3114 199.233 16.3514 199.191C17.201 198.294 17.8818 197.248 18.3608 196.104C18.888 194.845 19.1586 193.491 19.1562 192.123L19.1562 182.085C19.1587 180.047 18.5568 178.055 17.4282 176.367C17.1103 175.892 16.7537 175.444 16.362 175.029C16.3207 174.986 16.2977 174.928 16.2977 174.868C16.2977 174.808 16.3207 174.751 16.362 174.708C16.4042 174.664 16.4616 174.64 16.5218 174.639C16.5819 174.638 16.64 174.661 16.6834 174.703C16.736 174.754 16.7878 174.805 16.8387 174.857C17.7609 175.788 18.4963 176.891 19.0044 178.105C19.5316 179.364 19.8022 180.718 19.7998 182.086L19.7998 192.122C19.8023 194.16 19.2004 196.152 18.0718 197.84C17.7101 198.383 17.2981 198.889 16.8412 199.352C16.7856 199.408 16.7299 199.464 16.6732 199.518C16.6512 199.539 16.6252 199.556 16.5967 199.567C16.5682 199.578 16.5379 199.583 16.5075 199.582C16.4771 199.581 16.4472 199.573 16.4196 199.56C16.392 199.547 16.3673 199.529 16.3469 199.506Z" fill="white"/>
<path d="M7.17556 175.622C8.22906 175.04 9.28509 174.94 9.12823 174.65C8.97137 174.36 7.93457 174.312 6.88107 174.895C5.82757 175.478 5.15661 176.472 5.31246 176.761C5.46831 177.05 6.12257 176.205 7.17556 175.622Z" fill="white"/>
<path d="M7.68001 199.446C6.9286 199.148 6.4226 198.64 6.34265 198.846C6.2627 199.052 6.68471 199.613 7.43612 199.913C8.18754 200.212 8.98348 200.133 9.06343 199.926C9.14338 199.719 8.43143 199.744 7.68001 199.446Z" fill="white"/>
<path d="M8.1603 202.883C7.73696 202.766 7.32263 202.617 6.9206 202.439C6.54611 202.274 6.18551 202.077 5.8423 201.853C5.52442 201.645 5.22659 201.408 4.95275 201.144L4.90771 201.099C4.99778 201.165 5.09004 201.229 5.1845 201.291C5.57099 201.544 5.97712 201.766 6.39891 201.953C6.85217 202.153 7.31926 202.32 7.79649 202.453C9.8939 203.022 12.1026 203.022 14.2 202.453C14.6774 202.32 15.1446 202.153 15.598 201.953C16.0198 201.766 16.426 201.544 16.8125 201.291C16.9072 201.229 16.9997 201.165 17.0897 201.099L17.0447 201.144C16.7708 201.408 16.4728 201.647 16.1547 201.855C15.8123 202.079 15.4526 202.275 15.0789 202.44C14.677 202.619 14.2629 202.767 13.8397 202.884C11.9794 203.389 10.0206 203.389 8.1603 202.884L8.1603 202.883Z" fill="white"/>
<path d="M22 235.238L22 224.317C22.0014 222.298 21.4591 220.316 20.4311 218.585C19.4032 216.854 17.9286 215.438 16.1654 214.49C14.4022 213.542 12.4171 213.098 10.423 213.204C8.42891 213.311 6.50113 213.965 4.84652 215.095C3.07949 216.302 1.69614 218.001 0.863772 219.987C0.29068 221.357 -0.00310097 222.83 2.41882e-05 224.317L2.37108e-05 235.238C-0.00298756 237.455 0.652029 239.622 1.88033 241.459C3.07391 243.246 4.75417 244.645 6.71772 245.486C8.40399 246.208 10.242 246.492 12.0645 246.313C13.8871 246.134 15.6365 245.497 17.1535 244.46C18.921 243.253 20.3043 241.554 21.1358 239.568C21.7091 238.198 22.0031 236.725 22 235.238ZM5.02363 224.317C5.02363 222.714 5.65328 221.177 6.77407 220.044C7.89487 218.91 9.41499 218.274 11 218.274C12.5851 218.274 14.1052 218.91 15.226 220.044C16.3468 221.177 16.9764 222.714 16.9764 224.317L16.9764 235.238C16.9764 236.84 16.3468 238.378 15.226 239.511C14.1052 240.644 12.5851 241.281 11 241.281C9.41499 241.281 7.89487 240.644 6.77407 239.511C5.65328 238.378 5.02362 236.84 5.02362 235.238L5.02363 224.317Z" fill="#B2B2B2"/>
<path d="M3.96188 224.308L3.96188 235.228C3.96218 236.373 4.24143 237.5 4.77492 238.51C5.30842 239.52 6.07973 240.381 7.02067 241.018C7.32076 241.223 7.53901 241.529 7.63651 241.882C7.734 242.235 7.7044 242.611 7.55299 242.944L7.49479 243.073C7.40278 243.276 7.26824 243.457 7.10048 243.602C6.93271 243.748 6.73572 243.854 6.52313 243.915C6.31054 243.976 6.08742 243.989 5.86921 243.954C5.65099 243.92 5.44288 243.837 5.25927 243.713L5.21525 243.683C3.84568 242.75 2.72394 241.491 1.94885 240.017C1.17376 238.542 0.769097 236.898 0.770516 235.228L0.770517 224.308C0.767764 222.276 1.36794 220.289 2.49346 218.605C3.21851 217.521 4.14244 216.587 5.21525 215.854C5.2198 215.85 5.22486 215.847 5.22992 215.843C5.41025 215.721 5.61431 215.639 5.82845 215.603C6.04259 215.567 6.26186 215.578 6.47157 215.635C6.68128 215.691 6.8766 215.793 7.04442 215.932C7.21225 216.071 7.34873 216.245 7.4447 216.442L7.50947 216.574C7.67275 216.908 7.71084 217.291 7.6167 217.651C7.52256 218.011 7.30255 218.325 6.99739 218.534C6.06296 219.172 5.29757 220.032 4.76834 221.039C4.23911 222.045 3.96219 223.168 3.96188 224.308Z" fill="#848484"/>
<path d="M17.9307 235.248L17.9307 224.327C17.9304 223.182 17.6511 222.055 17.1176 221.045C16.5841 220.036 15.8128 219.174 14.8719 218.537C14.5718 218.332 14.3536 218.026 14.2561 217.673C14.1586 217.32 14.1882 216.944 14.3396 216.611L14.3978 216.483C14.4898 216.279 14.6243 216.099 14.792 215.953C14.9598 215.808 15.1568 215.701 15.3694 215.64C15.582 215.579 15.8052 215.566 16.0234 215.601C16.2416 215.636 16.4498 215.719 16.6333 215.843L16.6774 215.873C18.2979 216.979 19.5664 218.537 20.3292 220.358C20.8549 221.613 21.1246 222.963 21.1221 224.327L21.1221 235.248C21.1246 236.611 20.8549 237.961 20.3292 239.217C19.5656 241.037 18.2973 242.595 16.6774 243.702L16.6627 243.712C16.4824 243.834 16.2784 243.916 16.0642 243.952C15.8501 243.988 15.6308 243.978 15.4211 243.921C15.2114 243.864 15.016 243.763 14.8482 243.624C14.6803 243.484 14.5439 243.311 14.4479 243.114L14.3831 242.981C14.22 242.647 14.1819 242.265 14.2761 241.904C14.3702 241.544 14.5901 241.23 14.8952 241.021C15.8296 240.384 16.595 239.524 17.1243 238.517C17.6535 237.51 17.9304 236.388 17.9307 235.248Z" fill="#848484"/>
<path opacity="0.63" d="M5.02369 224.317L5.02369 235.238C5.02604 236.803 5.62764 238.305 6.70222 239.431C7.7768 240.557 9.24084 241.218 10.7871 241.276C10.7167 241.276 10.6459 241.279 10.5745 241.279C8.99039 241.278 7.47159 240.641 6.35123 239.508C5.23087 238.375 4.60042 236.84 4.59814 235.238L4.59814 224.317C4.60002 222.715 5.23042 221.179 6.35102 220.046C7.47163 218.913 8.99092 218.276 10.5756 218.274C10.6469 218.274 10.7177 218.274 10.7881 218.278C9.24137 218.335 7.77678 218.996 6.70192 220.123C5.62705 221.249 5.02553 222.752 5.02369 224.317Z" fill="black"/>
<path d="M18.1943 224.23L18.1943 235.324C18.1924 236.952 17.552 238.513 16.4137 239.664C15.2754 240.815 13.732 241.462 12.1222 241.464C11.9535 241.464 11.7849 241.457 11.6162 241.443C13.1331 241.313 14.5464 240.612 15.577 239.479C16.6076 238.346 17.1804 236.863 17.1822 235.323L17.1822 224.23C17.1804 222.69 16.6076 221.207 15.577 220.074C14.5464 218.941 13.1331 218.24 11.6162 218.11C11.7825 218.096 11.9512 218.088 12.1222 218.088C13.7322 218.09 15.2756 218.738 16.4139 219.889C17.5523 221.041 18.1925 222.602 18.1943 224.23Z" fill="white"/>
<path opacity="0.44" d="M20.2908 224.317C20.2936 222.446 19.7408 220.616 18.704 219.065C17.696 217.556 16.2767 216.374 14.618 215.663C13.1945 215.054 11.643 214.814 10.1045 214.965C8.56596 215.117 7.08923 215.654 5.80846 216.53C4.31545 217.549 3.14679 218.984 2.44404 220.661C1.96004 221.818 1.7117 223.061 1.71388 224.317L1.71388 235.238C1.71165 236.494 1.95999 237.738 2.44404 238.894C3.38745 241.146 5.15995 242.938 7.38668 243.892C8.80966 244.501 10.3604 244.74 11.8981 244.589C13.4358 244.438 14.9119 243.901 16.1922 243.026C17.6852 242.007 18.8538 240.572 19.5566 238.894C20.0423 237.738 20.292 236.494 20.2908 235.238L20.2908 224.317ZM3.31437 224.317C3.31437 220.031 6.76329 216.543 11.0026 216.543C15.2419 216.543 18.6903 220.031 18.6903 224.317L18.6903 235.238C18.6903 239.525 15.2414 243.012 11.0026 243.012C6.76379 243.012 3.31184 239.525 3.31184 235.238L3.31437 224.317Z" fill="black"/>
<path d="M3.8588 242.417C3.71847 242.29 3.58185 242.16 3.44894 242.025C2.52704 241.093 1.79169 239.99 1.28324 238.777C0.756064 237.517 0.485522 236.164 0.487807 234.796L0.487807 224.759C0.485414 222.721 1.08734 220.73 2.21581 219.041C2.57834 218.499 2.99126 217.993 3.44894 217.53C3.59534 217.382 3.74613 217.239 3.90131 217.1C3.95554 217.052 4.01895 217.015 4.08765 216.992C4.15635 216.97 4.22891 216.961 4.30089 216.968C4.37287 216.975 4.44276 216.996 4.5063 217.031C4.56984 217.066 4.62568 217.113 4.67043 217.171C4.74818 217.271 4.78825 217.396 4.78353 217.523C4.7788 217.65 4.72958 217.772 4.64462 217.865C3.86934 218.723 3.24426 219.709 2.79619 220.779C2.26898 222.038 1.99843 223.392 2.00076 224.759L2.00076 234.796C1.99802 236.834 2.59997 238.826 3.72876 240.514C3.99611 240.914 4.29099 241.295 4.61123 241.653C4.69255 241.744 4.74071 241.86 4.74771 241.982C4.7547 242.104 4.72011 242.225 4.64968 242.325L4.64665 242.33C4.6031 242.391 4.54723 242.443 4.48269 242.481C4.41814 242.519 4.34637 242.543 4.27204 242.551C4.19771 242.56 4.12249 242.552 4.05129 242.529C3.98009 242.506 3.9145 242.468 3.8588 242.417Z" fill="white"/>
<path opacity="0.54" d="M16.3469 242.144C16.3081 242.1 16.287 242.044 16.2879 241.985C16.2887 241.927 16.3114 241.871 16.3514 241.829C17.201 240.932 17.8818 239.885 18.3608 238.741C18.888 237.482 19.1585 236.129 19.1562 234.761L19.1562 224.724C19.1574 222.097 18.1566 219.571 16.362 217.671C16.3208 217.628 16.2978 217.57 16.2978 217.51C16.2978 217.45 16.3208 217.392 16.362 217.349C16.4042 217.306 16.4616 217.281 16.5218 217.28C16.5819 217.279 16.64 217.303 16.6834 217.345C16.736 217.395 16.7878 217.446 16.8387 217.498C17.7606 218.43 18.4959 219.533 19.0044 220.747C19.5316 222.006 19.8021 223.36 19.7998 224.727L19.7998 234.761C19.8022 236.799 19.2003 238.791 18.0718 240.479C17.7093 241.021 17.2964 241.528 16.8387 241.991C16.783 242.046 16.7274 242.102 16.6707 242.156C16.6487 242.177 16.6228 242.193 16.5946 242.204C16.5663 242.215 16.5363 242.22 16.5061 242.218C16.476 242.217 16.4464 242.21 16.4191 242.197C16.3917 242.184 16.3672 242.166 16.3469 242.144Z" fill="white"/>
<path d="M7.17556 218.261C8.22906 217.678 9.28509 217.579 9.12823 217.289C8.97137 216.999 7.93457 216.951 6.88107 217.533C5.82757 218.116 5.15661 219.11 5.31246 219.4C5.46831 219.69 6.12257 218.844 7.17556 218.261Z" fill="white"/>
<path d="M7.68001 242.085C6.9286 241.786 6.4226 241.278 6.34265 241.484C6.2627 241.691 6.68471 242.252 7.43612 242.551C8.18754 242.851 8.98348 242.771 9.06343 242.565C9.14338 242.358 8.43143 242.386 7.68001 242.085Z" fill="white"/>
<path d="M8.1603 245.523C7.73704 245.406 7.32273 245.257 6.9206 245.079C6.5461 244.914 6.18549 244.717 5.8423 244.493C5.52434 244.284 5.2265 244.046 4.95275 243.781L4.90771 243.737C4.99778 243.802 5.09004 243.866 5.1845 243.929C5.57099 244.182 5.97712 244.403 6.39891 244.59C6.85208 244.791 7.31919 244.958 7.79649 245.09C9.89381 245.66 12.1026 245.66 14.2 245.09C14.6774 244.958 15.1447 244.791 15.598 244.59C16.0198 244.403 16.426 244.182 16.8125 243.929C16.9072 243.866 16.9997 243.802 17.0897 243.737L17.0447 243.781C16.7708 244.046 16.4728 244.284 16.1547 244.493C15.8124 244.717 15.4526 244.914 15.0789 245.079C14.6769 245.257 14.2628 245.406 13.8397 245.523C11.9794 246.027 10.0206 246.027 8.1603 245.523Z" fill="white"/>
<path d="M8.06811 220.182L8.06812 196.734C8.06812 195.194 9.38069 193.946 10.9999 193.946C12.6191 193.946 13.9317 195.194 13.9317 196.734L13.9317 220.182C13.9317 221.723 12.6191 222.971 10.9999 222.971C9.38069 222.971 8.06811 221.723 8.06811 220.182Z" fill="#B2B2B2"/>
<path opacity="0.15" d="M13.0548 196.734C13.0548 195.657 12.1333 194.78 11.0009 194.78C9.86847 194.78 8.94653 195.657 8.94653 196.734L8.94653 220.182C8.94653 221.26 9.86796 222.136 11.0009 222.136C12.1338 222.136 13.0548 221.26 13.0548 220.182L13.0548 196.734Z" fill="black"/>
<path opacity="0.44" d="M10.0978 222.539C9.02301 222.141 8.26147 221.147 8.26147 219.984L8.26147 196.932C8.26147 195.769 9.02048 194.775 10.0978 194.377C10.4494 194.247 10.8284 194.497 10.8284 194.856L10.8284 222.061C10.8284 222.419 10.4494 222.669 10.0978 222.539Z" fill="black"/>
<path d="M9.33268 221.749C9.06511 221.505 8.85085 221.207 8.7036 220.875C8.55635 220.542 8.47936 220.182 8.47754 219.818L8.47754 197.101C8.47931 196.737 8.55628 196.377 8.70353 196.045C8.85079 195.712 9.06508 195.414 9.33269 195.17C9.58164 194.939 10.0011 195.107 10.0011 195.438L10.0011 221.483C10.0011 221.812 9.58164 221.981 9.33268 221.749Z" fill="#EAEAEA"/>
<path d="M12.4983 195.168C12.766 195.412 12.9802 195.71 13.1272 196.043C13.2742 196.376 13.3507 196.737 13.3519 197.101L13.3519 219.82C13.35 220.184 13.273 220.543 13.1261 220.876C12.9791 221.208 12.7653 221.505 12.4983 221.749C12.2493 221.981 11.8293 221.812 11.8293 221.481L11.8293 195.436C11.8283 195.106 12.2483 194.936 12.4983 195.168Z" fill="#EAEAEA"/>
<path d="M8.96846 221.112C8.74123 220.72 8.62143 220.273 8.62134 219.817L8.62134 197.101C8.62138 196.646 8.74118 196.199 8.96846 195.807C9.04031 195.682 9.23967 195.73 9.23967 195.872L9.23967 221.047C9.23967 221.189 9.04031 221.237 8.96846 221.112Z" fill="white"/>
<path d="M22 277.877L22 266.956C22.0009 264.937 21.4582 262.956 20.4302 261.226C19.4022 259.495 17.9277 258.08 16.1649 257.132C14.402 256.185 12.4173 255.74 10.4236 255.847C8.42992 255.953 6.50248 256.606 4.84803 257.736C3.08099 258.943 1.69765 260.642 0.86528 262.628C0.291933 263.997 -0.00235882 265.469 1.37465e-05 266.956L1.32692e-05 277.877C-0.002998 280.094 0.652018 282.261 1.88032 284.098C3.0739 285.885 4.75416 287.284 6.71771 288.125C8.40398 288.847 10.242 289.131 12.0645 288.952C13.8871 288.773 15.6364 288.136 17.1535 287.099C18.921 285.892 20.3043 284.193 21.1358 282.207C21.7091 280.837 22.0031 279.364 22 277.877ZM5.02361 266.956C5.02361 265.353 5.65327 263.816 6.77406 262.683C7.89486 261.549 9.41498 260.913 11 260.913C12.5851 260.913 14.1052 261.549 15.226 262.683C16.3468 263.816 16.9764 265.353 16.9764 266.956L16.9764 277.877C16.9764 279.479 16.3468 281.017 15.226 282.15C14.1052 283.283 12.5851 283.92 11 283.92C9.41498 283.92 7.89486 283.283 6.77406 282.15C5.65327 281.017 5.02361 279.479 5.02361 277.877L5.02361 266.956Z" fill="#B2B2B2"/>
<path d="M3.96188 266.946L3.96188 277.866C3.96214 279.011 4.24136 280.138 4.77486 281.148C5.30836 282.158 6.0797 283.019 7.02067 283.656C7.32076 283.861 7.53901 284.168 7.63651 284.52C7.734 284.873 7.7044 285.25 7.55299 285.582L7.49479 285.711C7.40278 285.915 7.26824 286.095 7.10048 286.24C6.93271 286.386 6.73572 286.493 6.52313 286.553C6.31054 286.614 6.08742 286.628 5.86921 286.593C5.65099 286.558 5.44288 286.475 5.25927 286.351L5.21525 286.321C3.84568 285.388 2.72394 284.129 1.94885 282.655C1.17376 281.18 0.769097 279.536 0.770516 277.866L0.770517 266.946C0.767764 264.914 1.36794 262.927 2.49346 261.244C3.21851 260.159 4.14244 259.225 5.21525 258.492C5.2198 258.488 5.22486 258.485 5.22992 258.482C5.41025 258.359 5.61431 258.278 5.82845 258.242C6.04259 258.206 6.26186 258.216 6.47157 258.273C6.68128 258.33 6.8766 258.431 7.04442 258.57C7.21225 258.709 7.34873 258.883 7.4447 259.08L7.50947 259.212C7.67267 259.546 7.71073 259.929 7.61659 260.289C7.52246 260.65 7.30251 260.963 6.99739 261.173C6.06293 261.81 5.29752 262.67 4.76828 263.677C4.23904 264.684 3.96214 265.806 3.96188 266.946Z" fill="#848484"/>
<path d="M17.9307 277.886L17.9307 266.966C17.9303 265.821 17.6511 264.694 17.1176 263.684C16.5841 262.674 15.8128 261.813 14.8719 261.176C14.5718 260.971 14.3536 260.664 14.2561 260.312C14.1586 259.959 14.1882 259.583 14.3396 259.25L14.3978 259.121C14.4898 258.918 14.6243 258.737 14.7921 258.592C14.9599 258.447 15.1568 258.34 15.3694 258.279C15.582 258.218 15.8051 258.205 16.0234 258.24C16.2416 258.275 16.4497 258.357 16.6333 258.481L16.6773 258.511C18.2978 259.617 19.5663 261.175 20.3291 262.996C20.8548 264.252 21.1245 265.602 21.122 266.966L21.122 277.886C21.1245 279.25 20.8548 280.6 20.3291 281.856C19.5653 283.675 18.297 285.232 16.6773 286.339L16.6626 286.349C16.4824 286.471 16.2783 286.553 16.0642 286.589C15.8501 286.625 15.6308 286.614 15.421 286.558C15.2113 286.501 15.016 286.4 14.8481 286.261C14.6803 286.121 14.5438 285.948 14.4479 285.751L14.3831 285.618C14.2199 285.284 14.1819 284.901 14.276 284.541C14.3702 284.181 14.5901 283.867 14.8952 283.658C15.8294 283.021 16.5946 282.161 17.1239 281.154C17.6531 280.148 17.9301 279.026 17.9307 277.886Z" fill="#848484"/>
<path opacity="0.63" d="M5.02369 266.956L5.02369 277.876C5.02604 279.441 5.62764 280.944 6.70222 282.07C7.7768 283.196 9.24084 283.857 10.7871 283.914C10.7167 283.917 10.6459 283.918 10.5745 283.918C8.99039 283.916 7.47159 283.279 6.35123 282.147C5.23087 281.014 4.60042 279.478 4.59814 277.876L4.59814 266.956C4.60002 265.354 5.23042 263.817 6.35102 262.684C7.47163 261.551 8.99092 260.914 10.5756 260.913C10.6469 260.913 10.7177 260.913 10.7881 260.917C9.24137 260.974 7.77678 261.635 6.70192 262.761C5.62705 263.887 5.02553 265.391 5.02369 266.956Z" fill="black"/>
<path d="M18.1943 266.869L18.1943 277.965C18.1924 279.593 17.552 281.153 16.4137 282.304C15.2754 283.456 13.732 284.103 12.1222 284.105C11.9535 284.105 11.7849 284.098 11.6162 284.084C13.1331 283.954 14.5464 283.253 15.577 282.119C16.6076 280.986 17.1804 279.504 17.1822 277.964L17.1822 266.869C17.1804 265.329 16.6076 263.847 15.577 262.714C14.5464 261.58 13.1331 260.879 11.6162 260.749C11.7827 260.735 11.9507 260.728 12.1222 260.728C13.7322 260.73 15.2756 261.377 16.4139 262.529C17.5523 263.68 18.1925 265.241 18.1943 266.869Z" fill="white"/>
<path opacity="0.44" d="M20.2906 266.956C20.2934 265.084 19.7406 263.255 18.7038 261.704C17.6958 260.194 16.2765 259.013 14.6178 258.302C13.1939 257.692 11.6419 257.452 10.1029 257.604C8.56395 257.755 7.08679 258.293 5.80578 259.169C4.31277 260.188 3.1441 261.623 2.44136 263.301C1.95735 264.457 1.70901 265.701 1.7112 266.957L1.7112 277.877C1.70896 279.133 1.9573 280.377 2.44136 281.533C3.38476 283.785 5.15726 285.578 7.384 286.532C8.80735 287.14 10.3586 287.38 11.8968 287.229C13.435 287.077 14.9115 286.54 16.192 285.665C17.685 284.645 18.8537 283.21 19.5564 281.533C20.0421 280.377 20.2918 279.133 20.2906 277.876L20.2906 266.956ZM3.31421 266.956C3.31421 262.67 6.76313 259.182 11.0024 259.182C15.2417 259.182 18.6901 262.67 18.6901 266.956L18.6901 277.876C18.6901 282.163 15.2412 285.651 11.0024 285.651C6.76364 285.651 3.31168 282.163 3.31168 277.876L3.31421 266.956Z" fill="black"/>
<path d="M3.8588 285.056C3.71847 284.929 3.58185 284.798 3.44894 284.664C2.52675 283.732 1.79136 282.629 1.28324 281.415C0.756157 280.156 0.485615 278.803 0.487805 277.436L0.487806 267.398C0.485311 265.36 1.08724 263.368 2.21581 261.68C2.57834 261.138 2.99126 260.632 3.44894 260.169C3.59534 260.021 3.74613 259.877 3.9013 259.739C3.95554 259.69 4.01897 259.654 4.0877 259.631C4.15643 259.608 4.22902 259.6 4.30102 259.607C4.37302 259.613 4.44292 259.635 4.50644 259.67C4.56996 259.705 4.62576 259.752 4.67043 259.81C4.74814 259.91 4.78819 260.035 4.78347 260.162C4.77874 260.289 4.72954 260.41 4.64462 260.504C3.86954 261.362 3.24446 262.346 2.79619 263.416C2.26892 264.675 1.99837 266.029 2.00076 267.396L2.00076 277.436C1.99826 279.474 2.60019 281.466 3.72876 283.154C3.99624 283.554 4.29111 283.934 4.61123 284.292C4.69255 284.383 4.74071 284.499 4.74771 284.622C4.7547 284.744 4.72011 284.865 4.64968 284.965L4.64665 284.97C4.60298 285.031 4.54702 285.083 4.48242 285.121C4.41782 285.159 4.34602 285.183 4.27169 285.191C4.19737 285.199 4.12219 285.191 4.05105 285.168C3.97991 285.145 3.9144 285.106 3.8588 285.056Z" fill="white"/>
<path opacity="0.54" d="M16.3469 284.782C16.3081 284.739 16.287 284.682 16.2879 284.624C16.2887 284.566 16.3114 284.51 16.3514 284.468C17.201 283.57 17.8818 282.524 18.3608 281.38C18.888 280.121 19.1585 278.767 19.1562 277.4L19.1562 267.363C19.158 264.735 18.1572 262.208 16.362 260.307C16.3208 260.264 16.2978 260.206 16.2978 260.146C16.2978 260.086 16.3208 260.029 16.362 259.986C16.4042 259.942 16.4616 259.917 16.5218 259.917C16.5819 259.916 16.64 259.939 16.6834 259.981C16.736 260.032 16.7878 260.083 16.8387 260.134C17.7606 261.066 18.4959 262.169 19.0044 263.383C19.5316 264.642 19.8021 265.996 19.7998 267.364L19.7998 277.4C19.8026 279.437 19.2016 281.428 18.0744 283.116C17.7118 283.658 17.2989 284.164 16.8412 284.627C16.7856 284.683 16.7299 284.738 16.6732 284.793C16.6513 284.814 16.6254 284.831 16.597 284.842C16.5686 284.853 16.5382 284.858 16.5078 284.857C16.4774 284.856 16.4475 284.849 16.4198 284.836C16.3922 284.823 16.3674 284.805 16.3469 284.782Z" fill="white"/>
<path d="M7.17556 260.9C8.22906 260.317 9.28509 260.218 9.12823 259.928C8.97137 259.637 7.93457 259.589 6.88107 260.172C5.82757 260.755 5.15661 261.749 5.31246 262.039C5.46831 262.328 6.12257 261.483 7.17556 260.9Z" fill="white"/>
<path d="M7.68001 284.723C6.9286 284.425 6.4226 283.917 6.34265 284.123C6.2627 284.329 6.68471 284.891 7.43612 285.19C8.18754 285.489 8.98348 285.41 9.06343 285.203C9.14338 284.997 8.43143 285.022 7.68001 284.723Z" fill="white"/>
<path d="M8.1603 288.162C7.73704 288.044 7.32273 287.896 6.9206 287.718C6.5461 287.552 6.18549 287.356 5.8423 287.131C5.52434 286.923 5.2265 286.685 4.95275 286.42L4.90771 286.375C4.99778 286.441 5.09004 286.505 5.1845 286.567C5.57099 286.821 5.97712 287.042 6.39891 287.229C6.85216 287.43 7.31925 287.597 7.79649 287.729C9.8939 288.298 12.1026 288.298 14.2 287.729C14.6774 287.597 15.1446 287.43 15.598 287.229C16.0198 287.042 16.426 286.821 16.8125 286.567C16.9072 286.505 16.9997 286.441 17.0897 286.375L17.0447 286.42C16.7708 286.685 16.4728 286.923 16.1547 287.131C15.8125 287.357 15.4527 287.554 15.0789 287.721C14.6769 287.899 14.2628 288.047 13.8397 288.164C11.9795 288.669 10.0205 288.669 8.1603 288.164L8.1603 288.162Z" fill="white"/>
<path d="M8.06811 262.821L8.06812 239.373C8.06812 237.833 9.38069 236.584 10.9999 236.584C12.6191 236.584 13.9317 237.833 13.9317 239.373L13.9317 262.821C13.9317 264.361 12.6191 265.61 10.9999 265.61C9.38069 265.61 8.06811 264.361 8.06811 262.821Z" fill="#B2B2B2"/>
<path opacity="0.15" d="M13.0548 239.373C13.0548 238.295 12.1333 237.419 11.0009 237.419C9.86847 237.419 8.94653 238.295 8.94653 239.373L8.94653 262.821C8.94653 263.899 9.86796 264.775 11.0009 264.775C12.1338 264.775 13.0548 263.899 13.0548 262.821L13.0548 239.373Z" fill="black"/>
<path opacity="0.44" d="M10.0978 265.178C9.02301 264.78 8.26147 263.786 8.26147 262.623L8.26147 239.571C8.26147 238.408 9.02048 237.415 10.0978 237.016C10.4494 236.886 10.8284 237.136 10.8284 237.495L10.8284 264.7C10.8284 265.058 10.4494 265.309 10.0978 265.178Z" fill="black"/>
<path d="M9.33268 264.388C9.06511 264.144 8.85085 263.846 8.7036 263.514C8.55635 263.181 8.47936 262.821 8.47754 262.457L8.47754 239.738C8.47924 239.373 8.55618 239.013 8.70343 238.681C8.85069 238.348 9.06501 238.05 9.33269 237.806C9.58164 237.574 10.0011 237.743 10.0011 238.074L10.0011 264.119C10.0011 264.451 9.58164 264.62 9.33268 264.388Z" fill="#EAEAEA"/>
<path d="M12.4983 237.807C12.7659 238.051 12.9801 238.349 13.1273 238.681C13.2745 239.014 13.3513 239.374 13.3529 239.738L13.3529 262.457C13.3511 262.821 13.2742 263.181 13.127 263.514C12.9799 263.846 12.7657 264.144 12.4983 264.388C12.2493 264.62 11.8293 264.451 11.8293 264.12L11.8293 238.075C11.8283 237.743 12.2483 237.576 12.4983 237.807Z" fill="#EAEAEA"/>
<path d="M8.96846 263.751C8.74123 263.358 8.62143 262.911 8.62134 262.456L8.62134 239.737C8.62131 239.282 8.74112 238.835 8.96846 238.442C9.04031 238.317 9.23967 238.366 9.23967 238.508L9.23967 263.683C9.23967 263.828 9.04031 263.876 8.96846 263.751Z" fill="white"/>
<path d="M8.06811 177.544L8.06812 154.095C8.06812 152.555 9.38069 151.307 10.9999 151.307C12.6191 151.307 13.9317 152.555 13.9317 154.095L13.9317 177.544C13.9317 179.084 12.6191 180.332 10.9999 180.332C9.38069 180.332 8.06811 179.084 8.06811 177.544Z" fill="#B2B2B2"/>
<path opacity="0.15" d="M13.0548 154.095C13.0548 153.018 12.1333 152.142 11.0009 152.142C9.86847 152.142 8.94653 153.018 8.94653 154.095L8.94653 177.544C8.94653 178.618 9.86796 179.497 11.0009 179.497C12.1338 179.497 13.0548 178.621 13.0548 177.544L13.0548 154.095Z" fill="black"/>
<path opacity="0.44" d="M10.0978 179.9C9.02301 179.502 8.26147 178.508 8.26147 177.345L8.26147 154.294C8.26147 153.13 9.02048 152.137 10.0978 151.739C10.4494 151.608 10.8284 151.858 10.8284 152.217L10.8284 179.421C10.8284 179.781 10.4494 180.03 10.0978 179.9Z" fill="black"/>
<path d="M9.33268 179.11C9.06511 178.866 8.85085 178.568 8.7036 178.236C8.55635 177.903 8.47936 177.543 8.47754 177.179L8.47754 154.46C8.47936 154.096 8.55636 153.736 8.7036 153.403C8.85085 153.07 9.06511 152.772 9.33269 152.528C9.58164 152.297 10.0011 152.465 10.0011 152.797L10.0011 178.842C10.0011 179.173 9.58164 179.342 9.33268 179.11Z" fill="#EAEAEA"/>
<path d="M12.4983 152.528C12.7658 152.773 12.98 153.07 13.1271 153.403C13.2743 153.736 13.3512 154.096 13.3529 154.46L13.3529 177.179C13.3512 177.543 13.2743 177.903 13.1271 178.236C12.98 178.568 12.7658 178.866 12.4983 179.11C12.2493 179.342 11.8293 179.173 11.8293 178.842L11.8293 152.798C11.8283 152.465 12.2483 152.297 12.4983 152.528Z" fill="#EAEAEA"/>
<path d="M8.96846 178.476C8.74123 178.083 8.62143 177.636 8.62134 177.181L8.62134 154.462C8.62143 154.007 8.74123 153.56 8.96846 153.167C9.04031 153.043 9.23967 153.091 9.23967 153.233L9.23967 178.408C9.23967 178.55 9.04031 178.598 8.96846 178.476Z" fill="white"/>
<path d="M11.5 285.5C11.5 283.5 9.83333 283 9 283L13.5 282L19 289L13 291.5L9.5 289C11 289 11.5 288 11.5 285.5Z" fill="#4E5963"/>
<path d="M23 278L15 278.5L13.5 282.5L14.5 287L21 289L23 278Z" fill="#4E5862"/>
</g>
<defs>
<clipPath id="clip0_2427_5047">
<rect width="289" height="22" fill="white" transform="matrix(-4.37114e-08 1 1 4.37114e-08 0 0)"/>
</clipPath>
</defs>
</svg>
