<svg width="60" height="32" viewBox="0 0 60 32" fill="none" xmlns="http://www.w3.org/2000/svg">
<g clip-path="url(#clip0_2163_1251)">
<path d="M0.113295 8.86499C-0.69419 12.9112 2.96267 14.1013 6.38199 14.0537C7.94915 14.0537 9.51631 13.8157 10.5136 13.5301C11.4635 13.7205 13.6005 13.9109 14.5028 13.7681C12.5082 15.4342 13.1256 18.338 15.3102 19.29C14.4078 21.6702 16.7349 23.0506 18.3495 23.5743C18.302 23.7647 18.302 24.0503 18.3495 24.1931C18.8719 25.764 21.6264 27.5729 23.5259 27.3825C25.6155 27.1921 27.6101 26.1448 28.085 24.2883C30.6495 24.4311 32.3591 24.4787 34.6387 24.3359C35.3036 24.2883 35.9684 24.2407 36.5858 24.1455C37.5356 26.0972 39.0553 27.3825 41.0024 27.3825H41.2873C42.712 30.5719 45.9414 32 49.1232 32C52.78 32 55.7718 29.8579 55.7718 25.6212C55.7718 24.2883 54.7745 22.5746 54.0622 22.051C56.4367 22.0986 59.4286 19.7661 59.4286 16.2434C59.4286 12.3876 56.3417 10.1503 54.0622 10.0074C55.2969 9.10301 55.9143 7.34167 55.7718 5.96119C55.4394 2.15297 51.6402 -0.179575 47.5085 0.0108347C43.5193 0.153644 40.2425 1.77214 39.6726 5.38997C38.0105 5.77079 36.6807 7.1513 36.4433 7.96049C33.9738 7.29408 31.7418 5.9136 29.2248 5.34237C27.8001 5.00914 26.3754 4.43791 24.9507 4.48551C23.6684 4.48551 22.2912 5.00914 21.104 5.05674C18.7769 5.15195 14.9302 6.19921 12.9356 6.91328C12.6032 7.00847 10.7511 7.10365 10.1337 7.1513C8.04413 7.38927 6.33447 7.86531 5.95455 8.05574C5.1947 8.19852 3.67506 8.05574 2.15536 8.38895C0.825507 8.67456 0.493217 8.72215 0.303255 8.67456L0.113295 8.86499ZM2.15536 11.9116C4.76731 11.9116 6.57195 11.3879 7.1893 9.1982C7.75919 8.96017 10.2762 8.43654 11.2735 8.48413C12.0333 8.53178 13.1731 8.43654 13.6955 8.24617C15.975 7.43692 19.5843 6.58001 20.9615 6.58001C22.1012 6.58001 23.2885 6.10403 24.4283 6.10403C28.275 6.10403 31.9792 8.24617 35.3036 9.1506C37.2982 9.67424 38.248 10.0074 39.2452 10.1503C40.2425 10.2931 41.2873 10.4835 43.1869 10.3407C43.9468 12.6732 44.2317 14.5773 44.3267 16.6242C44.4217 18.0047 44.2792 20.1945 44.0418 21.1465C43.4719 21.3846 42.6646 21.4321 42.0472 21.4321C42.0947 21.0038 42.1421 20.6229 41.8572 19.9088C41.8097 19.9565 41.7622 19.9088 41.7147 19.9565C40.6224 21.1465 39.6726 21.7178 38.7703 22.0986C37.4881 22.7174 36.1584 22.8126 34.5437 22.9079C32.4067 23.0506 29.7947 22.9555 27.3727 22.765C26.3754 22.7174 23.336 22.765 22.9086 24.5263L24.0484 24.2883C24.8557 24.1455 25.9005 24.1455 26.4228 24.1931C26.2329 25.1452 24.7132 26.0496 23.2885 26.1448C22.2437 26.1925 20.0117 25.1928 20.0117 23.7171C20.0117 21.9558 22.7186 21.0513 24.4283 20.4801C25.5206 20.0993 25.948 19.4328 26.1854 18.6712L26.0904 18.5283C24.5233 18.8616 23.0036 19.4804 21.8163 19.9565C20.3441 20.5277 19.0144 21.575 18.682 22.3842C17.8271 22.0986 16.6874 21.3846 16.6874 20.3849C16.6874 18.576 21.0565 17.0527 22.3862 16.6719C23.5735 16.3386 24.0484 15.339 24.0009 14.863L23.9059 14.7678C23.051 14.9105 21.9113 15.2438 20.819 15.6246C18.9669 16.291 16.8299 17.2431 16.0225 18.2427C15.4051 18.1 14.9302 17.2431 14.8827 16.6242C14.6453 14.6249 18.0646 13.3872 22.0538 12.5304C22.6711 12.3876 23.5735 12.0544 23.9534 10.9595L23.8584 10.7691C23.241 11.0071 22.6237 11.1499 21.3414 11.2927C21.4364 11.1499 21.4364 10.8167 21.3889 10.6263L21.2939 10.5787C19.7742 11.7688 16.7823 12.34 14.8353 12.578C14.1229 12.6732 12.1283 12.5304 11.7009 12.4352C11.7959 12.2924 11.9384 12.0067 11.9858 11.6735L11.8908 11.5784C10.846 12.2448 8.47158 12.7684 6.52443 12.7684C4.29241 12.7684 2.96267 12.578 2.15536 11.9116ZM41.1449 5.38997C41.7622 3.15263 44.3742 1.77214 47.6035 1.62934C50.453 1.53413 53.1599 2.7242 53.6348 5.81841C53.9197 7.86531 53.3499 9.38863 52.0201 10.1503C51.7352 10.2931 51.2127 10.6263 51.3552 11.0547C51.4502 11.3403 51.7826 11.3879 52.5425 11.2451C55.012 10.8643 56.9116 12.2448 56.9116 16.2434C56.9116 19.528 54.2522 21.0989 52.495 20.9085C51.7352 20.8133 51.3552 20.8133 51.2127 21.1465C51.0228 21.5273 51.2603 21.7654 51.7352 21.9558C53.2074 22.6222 53.7773 24.0027 53.7298 25.6212C53.6348 28.8582 51.2603 30.2863 48.8857 30.4291C46.2738 30.5719 43.6143 29.1914 42.7595 27.0969C46.7487 27.0969 48.5533 20.9561 48.5058 16.4815C48.5058 13.8633 47.0336 4.86633 41.1449 5.38997ZM38.248 23.8123C39.0553 23.5743 39.8151 23.2411 40.5275 22.765C41.3823 22.9555 42.712 22.9079 43.5669 22.8126C43.0919 24.3359 42.1421 25.9069 40.575 25.9069C39.6726 25.9069 38.4854 24.9072 38.248 23.8123ZM50.453 16.1482C51.4502 17.1003 51.6877 17.3383 52.59 18.3856H52.7324C53.6348 17.3383 53.8722 17.1003 54.8695 16.1482V15.9578C53.8247 15.0534 53.6348 14.8154 52.7324 13.7681H52.59C51.6877 14.8154 51.4502 15.0534 50.453 16.0054V16.1482ZM47.2236 26.3828C48.1259 27.4301 48.3634 27.6681 49.1707 28.763H49.3132C50.3105 27.811 50.5479 27.5729 51.6402 26.6685V26.5257C50.6904 25.526 50.453 25.288 49.6456 24.1931L49.5031 24.1455C48.5533 25.1452 48.2684 25.3832 47.2236 26.2401V26.3828ZM46.6537 5.96119C47.746 6.81804 47.9834 7.05606 49.0282 7.96049H49.1707C49.9305 6.81804 50.168 6.53242 51.0703 5.48517L51.0228 5.34237C49.9305 4.53311 49.6456 4.3427 48.6958 3.39064H48.5058C47.746 4.53311 47.556 4.77113 46.6537 5.81841V5.96119ZM38.1055 8.43654C38.3904 7.77012 39.2927 6.91328 40.4325 6.91328C41.3823 6.91328 42.2371 7.81772 42.617 8.91258C40.67 9.05542 39.9101 8.96017 38.1055 8.43654ZM1.53795 9.86467C1.8229 9.72183 2.58274 9.579 3.15263 9.48381C4.14996 9.29338 5.1947 9.38863 5.85957 9.29338C5.28968 10.6739 3.96 10.9119 1.49049 11.0071C1.39551 10.6739 1.39551 10.3882 1.44297 10.055L1.53795 9.86467Z" fill="white"/>
</g>
<defs>
<clipPath id="clip0_2163_1251">
<rect width="59.4286" height="32" fill="white" transform="matrix(-1 0 0 1 59.4286 0)"/>
</clipPath>
</defs>
</svg>
