<svg width="22" height="289" viewBox="0 0 22 289" fill="none" xmlns="http://www.w3.org/2000/svg">
<g clip-path="url(#clip0_2427_5163)">
<path d="M-3.14612e-05 64.6826L-3.19386e-05 53.7622C-0.00232848 51.5451 0.652626 49.3782 1.88028 47.5412C3.07412 45.7539 4.75476 44.3549 6.71868 43.5137C8.40461 42.7922 10.2421 42.5082 12.0642 42.6875C13.8863 42.8667 15.6352 43.5036 17.152 44.5401C18.9192 45.7471 20.3026 47.4463 21.1347 49.4319C21.7084 50.8017 22.0027 52.2746 22 53.7622L22 64.6826C22.0032 66.8998 21.3482 69.0668 20.1197 70.9032C18.9266 72.6908 17.2462 74.0899 15.2823 74.9307C13.6098 75.6458 11.7882 75.9311 9.98017 75.761C8.17212 75.5909 6.43385 74.9707 4.92053 73.9559C3.40721 72.941 2.16593 71.563 1.30751 69.9449C0.449081 68.3268 0.000214667 66.5189 0.000979434 64.6826L-3.14612e-05 64.6826ZM16.9764 53.7622C16.9764 52.1594 16.3467 50.6222 15.2259 49.4888C14.1051 48.3555 12.585 47.7187 11 47.7187C9.41493 47.7187 7.89481 48.3555 6.77402 49.4888C5.65323 50.6222 5.02357 52.1594 5.02357 53.7622L5.02357 64.6826C5.02357 66.2855 5.65323 67.8227 6.77402 68.9561C7.89481 70.0894 9.41493 70.7262 11 70.7262C12.585 70.7262 14.1051 70.0894 15.2259 68.9561C16.3467 67.8227 16.9764 66.2855 16.9764 64.6826L16.9764 53.7622Z" fill="#B2B2B2"/>
<path d="M18.0381 53.7524L18.0381 64.6728C18.0378 65.8176 17.7585 66.9448 17.225 67.9546C16.6915 68.9644 15.9202 69.8257 14.9793 70.4625C14.6792 70.6677 14.461 70.9741 14.3635 71.3269C14.266 71.6798 14.2956 72.0561 14.447 72.389L14.5052 72.5174C14.5971 72.7206 14.7316 72.9011 14.8994 73.0466C15.0672 73.192 15.2642 73.2988 15.4768 73.3596C15.6894 73.4205 15.9126 73.4339 16.1308 73.3989C16.349 73.3639 16.5571 73.2814 16.7407 73.157L16.7847 73.1273C18.4053 72.0209 19.6738 70.463 20.4366 68.6424C20.9623 67.3866 21.232 66.0364 21.2295 64.6728L21.2295 53.7524C21.2324 51.7201 20.6322 49.7337 19.5065 48.0501C18.7813 46.9654 17.8574 46.0311 16.7847 45.2978L16.7701 45.2881C16.5898 45.1658 16.3858 45.0838 16.1716 45.0478C15.9575 45.0117 15.7382 45.0224 15.5285 45.079C15.3187 45.1357 15.1234 45.237 14.9556 45.3762C14.7877 45.5154 14.6512 45.6893 14.5553 45.8862L14.4905 46.0187C14.3274 46.3528 14.2893 46.7354 14.3835 47.0956C14.4776 47.4559 14.6975 47.7695 15.0026 47.9785C15.937 48.6164 16.7024 49.4764 17.2317 50.483C17.7609 51.4897 18.0378 52.6123 18.0381 53.7524Z" fill="#848484"/>
<path d="M4.06927 64.6917L4.06927 53.7718C4.06958 52.6269 4.34882 51.4997 4.88231 50.4899C5.41581 49.4801 6.18713 48.6188 7.12806 47.982C7.42816 47.7768 7.64641 47.4704 7.7439 47.1176C7.84139 46.7648 7.81179 46.3884 7.66038 46.0556L7.60219 45.9266C7.51018 45.7235 7.37564 45.543 7.20787 45.3976C7.0401 45.2523 6.84311 45.1455 6.63052 45.0846C6.41793 45.0238 6.19482 45.0104 5.9766 45.0453C5.75838 45.0803 5.55027 45.1627 5.36667 45.287L5.32264 45.3172C3.95307 46.2499 2.83133 47.5089 2.05624 48.9832C1.28115 50.4576 0.876491 52.102 0.87791 53.7718L0.877911 64.6917C0.875326 66.0554 1.14501 67.4055 1.67082 68.6613C2.43394 70.4817 3.70237 72.0395 5.32264 73.1462L5.33732 73.1565C5.51764 73.2787 5.72171 73.3605 5.93585 73.3965C6.14999 73.4324 6.36926 73.4217 6.57897 73.365C6.78868 73.3084 6.98399 73.207 7.15182 73.0678C7.31965 72.9286 7.45612 72.7547 7.5521 72.5578L7.61686 72.4258C7.78014 72.0917 7.81824 71.7091 7.7241 71.3488C7.62995 70.9886 7.40995 70.6749 7.10479 70.466C6.17035 69.828 5.40496 68.9679 4.87573 67.9612C4.3465 66.9545 4.06959 65.8318 4.06927 64.6917Z" fill="#848484"/>
<path opacity="0.63" d="M16.9763 53.7623L16.9763 64.6827C16.9741 66.2474 16.3725 67.7503 15.2979 68.8761C14.2233 70.0019 12.7592 70.663 11.2129 70.7205C11.2833 70.7205 11.3541 70.7246 11.4255 70.7246C13.0097 70.7227 14.5285 70.0856 15.6488 68.953C16.7691 67.8203 17.3996 66.2847 17.4019 64.6827L17.4019 53.7623C17.4001 52.1598 16.7698 50.6235 15.6491 49.4904C14.5285 48.3574 13.0091 47.7202 11.4244 47.7188C11.3531 47.7188 11.2823 47.7188 11.2119 47.7223C12.7587 47.7798 14.2233 48.441 15.2981 49.5673C16.373 50.6935 16.9745 52.1971 16.9763 53.7623Z" fill="black"/>
<path d="M3.80575 53.6759L3.80575 64.7718C3.80775 66.3997 4.44813 67.9603 5.58642 69.1113C6.72472 70.2624 8.268 70.91 9.87779 70.912C10.0465 70.912 10.2151 70.9049 10.3838 70.8905C8.8669 70.7601 7.45355 70.0591 6.423 68.9261C5.39244 67.793 4.81963 66.3102 4.81775 64.7708L4.81775 53.6759C4.81963 52.1364 5.39243 50.6537 6.42299 49.5206C7.45355 48.3875 8.8669 47.6865 10.3838 47.5561C10.2175 47.5425 10.0488 47.5355 9.87779 47.5352C8.26787 47.5371 6.72443 48.1846 5.5861 49.3359C4.44776 50.4871 3.80749 52.0479 3.80575 53.6759Z" fill="white"/>
<path opacity="0.44" d="M1.70937 53.7623C1.70683 51.8893 2.26053 50.0588 3.29873 48.5078C4.30671 46.998 5.72602 45.8162 7.38471 45.1056C8.52922 44.6182 9.75852 44.3672 11.0004 44.3672C12.2422 44.3672 13.4715 44.6182 14.616 45.1056C16.8427 46.0596 18.6152 47.852 19.5586 50.1037C20.0427 51.2605 20.291 52.5041 20.2888 53.7602L20.2888 64.6806C20.2916 66.5524 19.7388 68.3819 18.702 69.9325C17.694 71.4423 16.2747 72.6241 14.616 73.3347C13.1929 73.944 11.6417 74.1841 10.1035 74.0332C8.56532 73.8822 7.08877 73.3451 5.808 72.4705C4.31499 71.4512 3.14633 70.016 2.44359 68.3386C1.95795 67.1824 1.70822 65.9389 1.70937 64.6826L1.70937 53.7623ZM18.6858 53.7623C18.6858 49.4753 15.2369 45.9882 10.9976 45.9882C6.75828 45.9882 3.30986 49.4754 3.30986 53.7623L3.30986 64.6826C3.30986 68.969 6.75878 72.4567 10.9976 72.4567C15.2364 72.4567 18.6883 68.969 18.6883 64.6826L18.6858 53.7623Z" fill="black"/>
<path d="M18.1412 71.8622C18.2815 71.7353 18.4182 71.6046 18.5511 71.4702C19.4731 70.5383 20.2085 69.435 20.7168 68.221C21.244 66.962 21.5145 65.6084 21.5122 64.2411L21.5122 54.2039C21.5149 52.1661 20.913 50.1744 19.7842 48.4863C19.4218 47.9432 19.0088 47.4364 18.5511 46.9728C18.4047 46.8247 18.2539 46.6814 18.0987 46.5429C18.0445 46.4946 17.981 46.4579 17.9123 46.4352C17.8435 46.4125 17.7709 46.4042 17.6988 46.411C17.6268 46.4177 17.5569 46.4392 17.4934 46.4742C17.4299 46.5092 17.3742 46.557 17.3296 46.6146C17.2518 46.7147 17.2117 46.8396 17.2165 46.9668C17.2212 47.094 17.2704 47.2155 17.3554 47.3095C18.1305 48.1674 18.7556 49.1524 19.2038 50.2225C19.731 51.4817 20.0015 52.8355 19.9992 54.2029L19.9992 64.2401C20.0016 66.2778 19.3997 68.2695 18.2712 69.9577C18.0039 70.3577 17.709 70.7381 17.3888 71.0962C17.3074 71.1871 17.2592 71.3034 17.2522 71.4258C17.2452 71.5481 17.2798 71.6693 17.3503 71.769L17.3534 71.7736C17.3968 71.8352 17.4526 71.8868 17.5171 71.9251C17.5816 71.9633 17.6534 71.9874 17.7277 71.9958C17.8021 72.0041 17.8773 71.9965 17.9485 71.9735C18.0198 71.9505 18.0854 71.9126 18.1412 71.8622Z" fill="white"/>
<path opacity="0.54" d="M5.65308 71.5884C5.69188 71.5451 5.71298 71.4884 5.71213 71.4299C5.71129 71.3715 5.68856 71.3155 5.64853 71.2733C3.84604 69.3722 2.84093 66.8396 2.84375 64.2059L2.84375 54.1691C2.84126 52.1312 3.44319 50.1394 4.57175 48.4511C4.88961 47.9757 5.24623 47.5282 5.6379 47.113C5.6792 47.0699 5.7023 47.0123 5.7023 46.9523C5.7023 46.8923 5.6792 46.8347 5.6379 46.7917C5.5957 46.7483 5.53832 46.7235 5.47818 46.7227C5.41804 46.7218 5.35999 46.7449 5.31659 46.7871C5.26599 46.8382 5.21235 46.8894 5.16125 46.9406C4.23919 47.8725 3.50382 48.9758 2.99555 50.1898C2.46828 51.4489 2.19774 52.8028 2.20012 54.1702L2.20012 64.2069C2.19948 65.5495 2.46069 66.8791 2.9688 68.1196C3.47691 69.3601 4.22194 70.487 5.16125 71.436C5.21691 71.4923 5.27257 71.5475 5.32924 71.6018C5.35131 71.6225 5.37722 71.6386 5.40548 71.6492C5.43374 71.6598 5.4638 71.6646 5.4939 71.6633C5.52401 71.6621 5.55358 71.6548 5.5809 71.642C5.60822 71.6291 5.63275 71.6109 5.65308 71.5884Z" fill="white"/>
<path d="M14.8244 47.7059C13.7709 47.1226 12.7149 47.0238 12.8718 46.7337C13.0286 46.4436 14.0654 46.3955 15.1189 46.9783C16.1724 47.5611 16.8434 48.5548 16.6875 48.8444C16.5317 49.134 15.8774 48.2887 14.8244 47.7059Z" fill="white"/>
<path d="M14.32 71.5292C15.0714 71.2309 15.5774 70.7227 15.6574 70.9295C15.7373 71.1362 15.3153 71.697 14.5639 71.9963C13.8125 72.2957 13.0165 72.2158 12.9366 72.0096C12.8566 71.8034 13.5686 71.8275 14.32 71.5292Z" fill="white"/>
<path d="M13.8397 74.9674C14.263 74.8501 14.6774 74.7018 15.0794 74.5237C15.4538 74.3583 15.8145 74.1626 16.1577 73.9384C16.4757 73.7303 16.7735 73.4923 17.0473 73.2276C17.0624 73.2128 17.0776 73.198 17.0923 73.1826C17.0022 73.2481 16.91 73.3121 16.8155 73.3745C16.429 73.6278 16.0229 73.8491 15.6011 74.0361C15.1478 74.237 14.6808 74.4042 14.2035 74.5365C12.1061 75.1055 9.89745 75.1055 7.80004 74.5365C7.32264 74.4042 6.85538 74.237 6.40195 74.0361C5.98015 73.8491 5.57402 73.6278 5.18754 73.3745C5.09275 73.3121 5.00032 73.2481 4.91025 73.1826L4.95529 73.2276C5.22843 73.4922 5.52559 73.7301 5.84282 73.9384C6.18594 74.1628 6.54656 74.3585 6.92111 74.5237C7.32298 74.7018 7.73715 74.8501 8.16031 74.9674C10.0205 75.4722 11.9795 75.4722 13.8397 74.9674Z" fill="white"/>
<path d="M-3.71833e-05 107.321L-3.76606e-05 96.4013C-0.00233421 94.1842 0.652619 92.0172 1.88027 90.1802C3.07351 88.3929 4.75389 86.9941 6.71766 86.1533C8.40356 85.4315 10.241 85.1471 12.0632 85.3258C13.8854 85.5046 15.6346 86.1407 17.152 87.1766C18.9192 88.3836 20.3026 90.0828 21.1347 92.0684C21.7087 93.439 22.003 94.9128 22 96.4013L22 107.322C22.003 109.539 21.348 111.706 20.1197 113.543C18.9264 115.33 17.2461 116.729 15.2823 117.57C13.6098 118.285 11.7882 118.57 9.98017 118.4C8.17211 118.23 6.43384 117.61 4.92052 116.595C3.4072 115.58 2.16593 114.202 1.3075 112.584C0.449075 110.966 0.000208945 109.158 0.000973712 107.322L-3.71833e-05 107.321ZM16.9764 96.4013C16.9764 94.7985 16.3467 93.2613 15.2259 92.1279C14.1051 90.9945 12.585 90.3578 11 90.3578C9.41493 90.3578 7.89481 90.9945 6.77401 92.1279C5.65322 93.2613 5.02356 94.7985 5.02356 96.4013L5.02356 107.322C5.02356 108.925 5.65322 110.462 6.77401 111.595C7.89481 112.728 9.41493 113.365 11 113.365C12.585 113.365 14.1051 112.728 15.2259 111.595C16.3467 110.462 16.9764 108.925 16.9764 107.322L16.9764 96.4013Z" fill="#B2B2B2"/>
<path d="M18.0381 96.3913L18.0381 107.312C18.0378 108.457 17.7585 109.584 17.225 110.594C16.6915 111.603 15.9202 112.465 14.9793 113.101C14.6795 113.307 14.4614 113.613 14.3639 113.965C14.2664 114.318 14.2959 114.694 14.447 115.027L14.5052 115.155C14.5973 115.358 14.7318 115.539 14.8996 115.684C15.0674 115.829 15.2644 115.936 15.477 115.997C15.6896 116.058 15.9127 116.071 16.1309 116.036C16.3491 116.001 16.5571 115.919 16.7407 115.794L16.7847 115.764C18.1543 114.832 19.2761 113.573 20.0512 112.098C20.8262 110.624 21.2309 108.979 21.2295 107.31L21.2295 96.3913C21.2324 94.359 20.6322 92.3726 19.5065 90.6891C18.7813 89.6043 17.8574 88.6701 16.7847 87.9367L16.7701 87.927C16.5898 87.8048 16.3857 87.7229 16.1716 87.6869C15.9575 87.6509 15.7383 87.6616 15.5286 87.7182C15.3188 87.7748 15.1235 87.8761 14.9557 88.0153C14.7878 88.1545 14.6513 88.3283 14.5553 88.5251L14.4905 88.6577C14.3274 88.9918 14.2893 89.3743 14.3835 89.7346C14.4776 90.0948 14.6975 90.4084 15.0026 90.6174C15.937 91.2553 16.7024 92.1153 17.2317 93.1219C17.7609 94.1286 18.0378 95.2512 18.0381 96.3913Z" fill="#848484"/>
<path d="M4.06927 107.331L4.06927 96.411C4.06933 95.2659 4.34845 94.1384 4.88196 93.1283C5.41547 92.1182 6.18691 91.2566 7.12806 90.6197C7.42816 90.4145 7.64641 90.1081 7.7439 89.7553C7.84139 89.4025 7.81179 89.0261 7.66038 88.6932L7.60219 88.5643C7.51018 88.3612 7.37564 88.1807 7.20787 88.0353C7.0401 87.89 6.84311 87.7832 6.63052 87.7223C6.41793 87.6615 6.19482 87.6481 5.9766 87.683C5.75838 87.718 5.55028 87.8004 5.36667 87.9247L5.32264 87.9549C3.95307 88.8876 2.83133 90.1466 2.05624 91.6209C1.28115 93.0953 0.876492 94.7397 0.877911 96.4095L0.877911 107.331C0.875465 108.695 1.14515 110.045 1.67082 111.301C2.43442 113.121 3.70274 114.679 5.32264 115.786L5.33732 115.796C5.51761 115.918 5.72165 116 5.93576 116.036C6.14988 116.072 6.36913 116.061 6.57884 116.004C6.78855 115.948 6.98387 115.847 7.15172 115.707C7.31957 115.568 7.45607 115.394 7.5521 115.198L7.61686 115.065C7.78003 114.731 7.81807 114.348 7.72394 113.988C7.6298 113.628 7.40986 113.314 7.10479 113.105C6.17042 112.467 5.40508 111.607 4.87585 110.601C4.34662 109.594 4.06967 108.471 4.06927 107.331Z" fill="#848484"/>
<path opacity="0.63" d="M16.9763 96.4015L16.9763 107.322C16.9741 108.887 16.3725 110.39 15.2979 111.515C14.2233 112.641 12.7592 113.302 11.2129 113.36C11.2833 113.36 11.3541 113.364 11.4255 113.364C13.0097 113.362 14.5286 112.725 15.649 111.592C16.7693 110.459 17.3997 108.923 17.4019 107.321L17.4019 96.4015C17.4002 94.7989 16.77 93.2624 15.6493 92.1293C14.5287 90.9962 13.0092 90.3589 11.4244 90.3574C11.3531 90.3574 11.2823 90.3574 11.2119 90.361C12.7588 90.4184 14.2234 91.0798 15.2983 92.2061C16.3732 93.3325 16.9746 94.8362 16.9763 96.4015Z" fill="black"/>
<path d="M3.80575 96.3131L3.80575 107.409C3.80775 109.037 4.44813 110.597 5.58642 111.749C6.72472 112.9 8.268 113.547 9.87779 113.549C10.0465 113.549 10.2151 113.542 10.3838 113.528C8.86686 113.398 7.45351 112.697 6.42296 111.563C5.39241 110.43 4.81962 108.947 4.81775 107.408L4.81775 96.3131C4.81963 94.7737 5.39243 93.2909 6.42299 92.1578C7.45355 91.0247 8.8669 90.3237 10.3838 90.1933C10.2175 90.1797 10.0488 90.1727 9.87779 90.1724C8.26787 90.1743 6.72443 90.8219 5.5861 91.9731C4.44776 93.1243 3.80749 94.6851 3.80575 96.3131Z" fill="white"/>
<path opacity="0.44" d="M1.70938 96.4015C1.7065 94.5295 2.25929 92.6997 3.2962 91.149C4.30391 89.6391 5.72332 88.4574 7.38218 87.7473C8.80574 87.1384 10.3571 86.8987 11.8956 87.0499C13.434 87.2011 14.9107 87.7384 16.1917 88.6131C17.6847 89.6324 18.8534 91.0676 19.5561 92.745C20.041 93.9016 20.2902 95.1452 20.2888 96.4015L20.2888 107.322C20.2916 109.194 19.7388 111.023 18.702 112.574C17.694 114.084 16.2747 115.265 14.616 115.976C13.1927 116.585 11.6414 116.825 10.1032 116.673C8.56499 116.522 7.08855 115.984 5.80801 115.109C4.315 114.09 3.14633 112.655 2.44359 110.977C1.95796 109.821 1.70823 108.578 1.70938 107.321L1.70938 96.4015ZM18.6858 96.4015C18.6858 92.1146 15.2369 88.6274 10.9976 88.6274C6.75828 88.6274 3.3124 92.1141 3.3124 96.4015L3.3124 107.322C3.3124 111.608 6.76132 115.096 11.0001 115.096C15.2389 115.096 18.6883 111.608 18.6883 107.321L18.6858 96.4015Z" fill="black"/>
<path d="M18.1412 114.501C18.2815 114.374 18.4182 114.243 18.5511 114.109C19.4731 113.177 20.2085 112.074 20.7168 110.86C21.244 109.601 21.5145 108.247 21.5122 106.88L21.5122 96.8424C21.5149 94.8046 20.913 92.8129 19.7842 91.1248C19.4217 90.5825 19.0087 90.0763 18.5511 89.6133C18.4047 89.4656 18.2539 89.3223 18.0987 89.1835C18.0445 89.1351 17.9811 89.0983 17.9124 89.0755C17.8437 89.0528 17.7711 89.0444 17.6991 89.051C17.627 89.0576 17.5571 89.0791 17.4936 89.114C17.43 89.1489 17.3742 89.1966 17.3296 89.2541C17.2518 89.3543 17.2117 89.4791 17.2165 89.6063C17.2212 89.7336 17.2704 89.855 17.3554 89.949C18.1305 90.8069 18.7556 91.792 19.2038 92.862C19.731 94.1212 20.0015 95.475 19.9992 96.8424L19.9992 106.88C20.0016 108.917 19.3997 110.909 18.2712 112.597C18.0039 112.997 17.709 113.378 17.3888 113.736C17.3074 113.827 17.2592 113.943 17.2522 114.065C17.2452 114.188 17.2798 114.309 17.3503 114.409L17.3534 114.413C17.3969 114.475 17.4528 114.526 17.5173 114.564C17.5819 114.603 17.6536 114.627 17.728 114.635C17.8023 114.643 17.8775 114.635 17.9487 114.612C18.0199 114.589 18.0855 114.551 18.1412 114.501Z" fill="white"/>
<path opacity="0.54" d="M5.65308 114.227C5.69188 114.184 5.71298 114.127 5.71213 114.069C5.71129 114.01 5.68856 113.954 5.64853 113.912C4.79885 113.015 4.11794 111.969 3.63919 110.825C3.11192 109.566 2.84137 108.212 2.84375 106.845L2.84375 96.8079C2.84126 94.77 3.44319 92.7782 4.57175 91.0898C4.88951 90.6138 5.24614 90.1655 5.6379 89.7497C5.6792 89.7067 5.7023 89.649 5.7023 89.589C5.7023 89.5291 5.6792 89.4714 5.6379 89.4284C5.5957 89.385 5.53832 89.3603 5.47818 89.3594C5.41804 89.3585 5.35999 89.3817 5.31659 89.4238C5.26599 89.4749 5.21235 89.5261 5.16125 89.5773C4.23919 90.5092 3.50382 91.6125 2.99555 92.8265C2.46828 94.0856 2.19774 95.4395 2.20012 96.8069L2.20012 106.844C2.19762 108.881 2.79955 110.873 3.92812 112.562C4.29065 113.104 4.70357 113.61 5.16125 114.073C5.21691 114.129 5.27257 114.184 5.32924 114.238C5.35118 114.259 5.37699 114.276 5.40517 114.286C5.43336 114.297 5.46338 114.302 5.49348 114.301C5.52359 114.3 5.55319 114.293 5.58058 114.28C5.60798 114.268 5.63262 114.25 5.65308 114.227Z" fill="white"/>
<path d="M14.8244 90.3446C13.7709 89.7618 12.7149 89.6625 12.8718 89.3724C13.0286 89.0822 14.0654 89.0341 15.1189 89.6169C16.1724 90.1998 16.8434 91.1935 16.6875 91.4831C16.5317 91.7727 15.8774 90.9264 14.8244 90.3446Z" fill="white"/>
<path d="M14.32 114.168C15.0714 113.869 15.5774 113.362 15.6574 113.568C15.7373 113.774 15.3153 114.335 14.5639 114.635C13.8125 114.934 13.0165 114.854 12.9366 114.648C12.8566 114.442 13.5686 114.464 14.32 114.168Z" fill="white"/>
<path d="M13.8397 117.606C14.2631 117.489 14.6774 117.341 15.0794 117.162C15.4539 116.997 15.8145 116.8 16.1577 116.576C16.4758 116.368 16.7736 116.13 17.0473 115.865L17.0923 115.82C17.0022 115.885 16.9101 115.95 16.8155 116.012C16.4292 116.265 16.0231 116.487 15.6011 116.673C15.1478 116.874 14.6808 117.041 14.2035 117.174C12.1061 117.743 9.89745 117.743 7.80004 117.174C7.32264 117.041 6.85538 116.874 6.40195 116.673C5.97996 116.487 5.5738 116.265 5.18754 116.012C5.09292 115.95 5.00032 115.885 4.91025 115.82L4.95529 115.865C5.2291 116.13 5.52712 116.368 5.84535 116.576C6.1876 116.8 6.54738 116.997 6.92111 117.162C7.3229 117.341 7.73708 117.489 8.16031 117.606C10.0205 118.111 11.9795 118.111 13.8397 117.606Z" fill="white"/>
<path d="M13.9319 92.266L13.9319 68.8175C13.9319 67.2773 12.6193 66.0288 11.0001 66.0288C9.38089 66.0288 8.06832 67.2773 8.06832 68.8175L8.06832 92.266C8.06832 93.8062 9.38089 95.0542 11.0001 95.0542C12.6193 95.0542 13.9319 93.8062 13.9319 92.266Z" fill="#B2B2B2"/>
<path opacity="0.15" d="M8.94523 68.8174C8.94523 67.7398 9.86666 66.8638 10.9991 66.8638C12.1315 66.8638 13.0535 67.7398 13.0535 68.8174L13.0535 92.2659C13.0535 93.3404 12.132 94.2195 10.9991 94.2195C9.86615 94.2195 8.94523 93.343 8.94523 92.2659L8.94523 68.8174Z" fill="black"/>
<path opacity="0.44" d="M11.9022 94.6223C12.977 94.2242 13.7385 93.2305 13.7385 92.0674L13.7385 69.016C13.7385 67.8529 12.9795 66.8587 11.9022 66.4606C11.5506 66.3307 11.1716 66.5804 11.1716 66.9391L11.1716 94.1439C11.1716 94.5026 11.5506 94.7528 11.9022 94.6223Z" fill="black"/>
<path d="M12.6673 93.8324C12.9349 93.5884 13.1492 93.2906 13.2965 92.9581C13.4437 92.6256 13.5207 92.2656 13.5225 91.9013L13.5225 69.1824C13.5206 68.818 13.4436 68.458 13.2964 68.1254C13.1491 67.7928 12.9349 67.4949 12.6673 67.2508C12.4184 67.019 11.9989 67.1879 11.9989 67.5189L11.9989 93.5637C11.9989 93.8943 12.4184 94.0642 12.6673 93.8324Z" fill="#EAEAEA"/>
<path d="M9.50172 67.2508C9.23421 67.4949 9.02003 67.7928 8.87287 68.1254C8.72571 68.458 8.6488 68.818 8.64708 69.1824L8.64708 91.9012C8.64875 92.2656 8.72563 92.6255 8.8728 92.958C9.01996 93.2906 9.23418 93.5884 9.50172 93.8323C9.75067 94.0641 10.1707 93.8958 10.1707 93.5642L10.1707 67.5194C10.1717 67.1879 9.75168 67.019 9.50172 67.2508Z" fill="#EAEAEA"/>
<path d="M13.0315 93.1958C13.2588 92.8031 13.3786 92.3563 13.3787 91.9013L13.3787 69.1825C13.3786 68.7273 13.2588 68.2803 13.0315 67.8874C12.9597 67.763 12.7603 67.8111 12.7603 67.9534L12.7603 93.1283C12.7603 93.2721 12.9597 93.3207 13.0315 93.1958Z" fill="white"/>
<path d="M-4.09979e-05 149.96L-4.14753e-05 139.04C-0.00233802 136.823 0.652617 134.656 1.88027 132.819C3.0737 131.031 4.75446 129.632 6.71867 128.791C8.40457 128.07 10.2421 127.785 12.0643 127.964C13.8865 128.143 15.6356 128.779 17.153 129.815C18.9202 131.022 20.3036 132.721 21.1357 134.707C21.7094 136.077 22.0033 137.551 22 139.04L22 149.96C22.003 152.178 21.348 154.345 20.1197 156.181C19.3295 157.365 18.322 158.383 17.152 159.183C15.4973 160.313 13.5696 160.966 11.5755 161.073C9.58151 161.179 7.59646 160.734 5.83335 159.787C4.07024 158.839 2.5956 157.423 1.56765 155.692C0.539705 153.961 -0.0027646 151.98 -0.00155925 149.96L-4.09979e-05 149.96ZM16.9764 139.04C16.9764 137.437 16.3467 135.9 15.2259 134.767C14.1051 133.633 12.585 132.996 11 132.996C9.41492 132.996 7.8948 133.633 6.77401 134.767C5.65322 135.9 5.02356 137.437 5.02356 139.04L5.02356 149.96C5.02356 151.563 5.65322 153.1 6.77401 154.234C7.8948 155.367 9.41493 156.004 11 156.004C12.585 156.004 14.1051 155.367 15.2259 154.234C16.3467 153.1 16.9764 151.563 16.9764 149.96L16.9764 139.04Z" fill="#B2B2B2"/>
<path d="M18.0381 139.03L18.0381 149.95C18.0378 151.095 17.7586 152.222 17.2251 153.232C16.6916 154.242 15.9203 155.103 14.9793 155.74C14.6792 155.945 14.461 156.252 14.3635 156.605C14.266 156.957 14.2956 157.334 14.447 157.667L14.5052 157.796C14.5972 157.999 14.7318 158.179 14.8995 158.324C15.0673 158.47 15.2643 158.577 15.4769 158.637C15.6895 158.698 15.9126 158.712 16.1308 158.677C16.349 158.642 16.5571 158.559 16.7407 158.435L16.7847 158.405C18.1543 157.472 19.2761 156.213 20.0512 154.739C20.8262 153.265 21.2309 151.62 21.2295 149.95L21.2295 139.03C21.2324 136.998 20.6322 135.011 19.5065 133.328C18.7813 132.243 17.8574 131.309 16.7847 130.575L16.7701 130.566C16.5898 130.443 16.3857 130.362 16.1716 130.326C15.9575 130.29 15.7383 130.3 15.5286 130.357C15.3188 130.414 15.1235 130.515 14.9557 130.654C14.7878 130.793 14.6513 130.967 14.5553 131.164L14.4905 131.296C14.3274 131.63 14.2893 132.013 14.3835 132.373C14.4776 132.733 14.6975 133.047 15.0026 133.256C15.937 133.894 16.7024 134.754 17.2317 135.761C17.7609 136.767 18.0378 137.89 18.0381 139.03Z" fill="#848484"/>
<path d="M4.06927 149.97L4.06927 139.05C4.06958 137.905 4.34882 136.778 4.88231 135.768C5.41581 134.758 6.18713 133.897 7.12806 133.26C7.42816 133.055 7.64641 132.748 7.7439 132.395C7.84139 132.043 7.81179 131.666 7.66038 131.333L7.60219 131.204C7.51018 131.001 7.37564 130.821 7.20787 130.675C7.0401 130.53 6.84311 130.423 6.63052 130.362C6.41793 130.302 6.19482 130.288 5.9766 130.323C5.75838 130.358 5.55027 130.441 5.36667 130.565L5.32264 130.595C3.95307 131.528 2.83133 132.787 2.05624 134.261C1.28115 135.735 0.876491 137.38 0.87791 139.05L0.877911 149.97C0.875423 151.334 1.14511 152.684 1.67082 153.94C2.43442 155.76 3.70274 157.317 5.32264 158.425L5.33732 158.434C5.51761 158.557 5.72165 158.638 5.93576 158.674C6.14988 158.71 6.36913 158.7 6.57884 158.643C6.78855 158.586 6.98387 158.485 7.15172 158.346C7.31957 158.207 7.45607 158.033 7.5521 157.836L7.61686 157.704C7.78003 157.37 7.81807 156.987 7.72394 156.627C7.6298 156.266 7.40986 155.953 7.10479 155.744C6.17036 155.106 5.40497 154.246 4.87573 153.239C4.3465 152.233 4.06958 151.11 4.06927 149.97Z" fill="#848484"/>
<path opacity="0.63" d="M16.9763 139.04L16.9763 149.96C16.974 151.525 16.3724 153.028 15.2978 154.153C14.2232 155.279 12.7592 155.94 11.2129 155.998C11.2833 155.998 11.3541 156.001 11.4255 156.001C13.0096 156 14.5284 155.363 15.6488 154.23C16.7691 153.098 17.3996 151.562 17.4019 149.96L17.4019 139.04C17.4001 137.437 16.7698 135.901 15.6491 134.768C14.5285 133.635 13.0091 132.998 11.4244 132.996C11.3531 132.996 11.2823 132.996 11.2119 133C12.7587 133.057 14.2233 133.718 15.2981 134.845C16.373 135.971 16.9745 137.474 16.9763 139.04Z" fill="black"/>
<path d="M3.80575 138.952L3.80575 150.048C3.80762 151.676 4.44795 153.237 5.58628 154.388C6.7246 155.539 8.26796 156.187 9.87779 156.188C10.0465 156.188 10.2151 156.181 10.3838 156.167C8.8669 156.037 7.45355 155.336 6.423 154.203C5.39244 153.07 4.81963 151.587 4.81775 150.048L4.81775 138.952C4.81963 137.412 5.39243 135.93 6.42299 134.796C7.45355 133.663 8.8669 132.962 10.3838 132.832C10.2175 132.818 10.0488 132.811 9.87779 132.811C8.26787 132.813 6.72443 133.461 5.5861 134.612C4.44776 135.763 3.80749 137.324 3.80575 138.952Z" fill="white"/>
<path opacity="0.44" d="M1.70922 139.04C1.70616 137.168 2.25897 135.338 3.29604 133.788C4.30357 132.278 5.72301 131.096 7.38202 130.386C8.80558 129.777 10.357 129.537 11.8954 129.688C13.4338 129.839 14.9106 130.377 16.1915 131.251C17.6843 132.271 18.8528 133.706 19.556 135.383C20.04 136.54 20.2883 137.784 20.2861 139.04L20.2861 149.96C20.2892 151.832 19.7364 153.662 18.6993 155.212C17.6918 156.722 16.2723 157.904 14.6133 158.614C13.1903 159.222 11.6397 159.462 10.102 159.311C8.56436 159.159 7.08835 158.622 5.80785 157.748C4.31513 156.729 3.14655 155.294 2.44343 153.617C1.95785 152.46 1.70813 151.216 1.70922 149.96L1.70922 139.04ZM18.6856 139.04C18.6856 134.753 15.2367 131.266 10.9974 131.266C6.75812 131.266 3.30971 134.753 3.30971 139.04L3.30971 149.96C3.30971 154.247 6.75863 157.734 10.9974 157.734C15.2362 157.734 18.6882 154.247 18.6882 149.96L18.6856 139.04Z" fill="black"/>
<path d="M18.1412 157.139C18.2815 157.012 18.4182 156.881 18.5511 156.747C19.4731 155.815 20.2085 154.712 20.7168 153.498C21.244 152.239 21.5145 150.885 21.5122 149.518L21.5122 139.482C21.5146 137.444 20.9127 135.452 19.7842 133.764C19.4217 133.222 19.0087 132.715 18.5511 132.252C18.4047 132.105 18.2539 131.962 18.0987 131.823C18.0445 131.774 17.9811 131.737 17.9124 131.715C17.8437 131.692 17.7711 131.684 17.6991 131.69C17.627 131.697 17.5571 131.718 17.4936 131.753C17.43 131.788 17.3742 131.836 17.3296 131.893C17.2518 131.993 17.2117 132.118 17.2165 132.245C17.2212 132.373 17.2704 132.494 17.3554 132.588C18.1307 133.446 18.7557 134.431 19.2038 135.502C19.731 136.761 20.0016 138.114 19.9992 139.482L19.9992 149.519C20.0016 151.557 19.3997 153.548 18.2712 155.236C18.0039 155.637 17.709 156.017 17.3888 156.375C17.3074 156.466 17.2593 156.582 17.2523 156.705C17.2453 156.827 17.2799 156.948 17.3503 157.048L17.3534 157.052C17.397 157.114 17.4529 157.165 17.5175 157.203C17.5821 157.241 17.6539 157.265 17.7282 157.273C17.8025 157.282 17.8777 157.274 17.9489 157.251C18.02 157.227 18.0856 157.189 18.1412 157.139Z" fill="white"/>
<path opacity="0.54" d="M5.65308 156.866C5.69188 156.822 5.71298 156.766 5.71213 156.707C5.71129 156.649 5.68856 156.593 5.64853 156.551C4.79885 155.654 4.11794 154.607 3.63919 153.464C3.11192 152.204 2.84137 150.851 2.84375 149.483L2.84375 139.446C2.84126 137.409 3.44319 135.417 4.57175 133.728C4.88961 133.253 5.24623 132.806 5.6379 132.39C5.6792 132.347 5.7023 132.29 5.7023 132.23C5.7023 132.17 5.6792 132.112 5.6379 132.069C5.5957 132.026 5.53832 132.001 5.47818 132C5.41804 131.999 5.35999 132.022 5.31659 132.064C5.26397 132.115 5.21219 132.166 5.16125 132.218C4.23919 133.15 3.50382 134.253 2.99555 135.467C2.46828 136.726 2.19774 138.08 2.20012 139.448L2.20012 149.484C2.19762 151.522 2.79955 153.514 3.92812 155.202C4.29065 155.745 4.70357 156.251 5.16125 156.714C5.21691 156.77 5.27257 156.825 5.32924 156.88C5.35137 156.9 5.37732 156.916 5.40559 156.927C5.43387 156.937 5.46391 156.942 5.494 156.941C5.52409 156.939 5.55363 156.932 5.58093 156.919C5.60823 156.906 5.63275 156.888 5.65308 156.866Z" fill="white"/>
<path d="M14.8244 132.984C13.7709 132.401 12.7149 132.302 12.8718 132.012C13.0286 131.721 14.0654 131.673 15.1189 132.256C16.1724 132.839 16.8434 133.833 16.6875 134.122C16.5317 134.411 15.8774 133.567 14.8244 132.984Z" fill="white"/>
<path d="M14.32 156.807C15.0714 156.509 15.5774 156.001 15.6574 156.207C15.7373 156.413 15.3153 156.975 14.5639 157.274C13.8125 157.573 13.0165 157.494 12.9366 157.287C12.8566 157.081 13.5686 157.105 14.32 156.807Z" fill="white"/>
<path d="M13.8397 160.245C14.2631 160.128 14.6774 159.98 15.0794 159.802C15.4539 159.636 15.8145 159.44 16.1577 159.215C16.4757 159.007 16.7735 158.769 17.0473 158.504L17.0923 158.459C17.0022 158.525 16.91 158.589 16.8155 158.651C16.4291 158.905 16.023 159.126 15.6011 159.312C15.1478 159.513 14.6808 159.681 14.2035 159.813C12.1061 160.382 9.89745 160.382 7.80004 159.813C7.32264 159.681 6.85538 159.513 6.40195 159.312C5.98007 159.126 5.57392 158.905 5.18754 158.651C5.09275 158.589 5.00032 158.525 4.91025 158.459L4.95529 158.504C5.22922 158.769 5.52722 159.007 5.84535 159.215C6.18769 159.439 6.54746 159.635 6.92111 159.8C7.3229 159.978 7.73708 160.126 8.16031 160.243C10.0205 160.748 11.9795 160.748 13.8397 160.243L13.8397 160.245Z" fill="white"/>
<path d="M13.9319 134.905L13.9319 111.456C13.9319 109.916 12.6193 108.667 11.0001 108.667C9.38089 108.667 8.06832 109.916 8.06832 111.456L8.06832 134.905C8.06832 136.445 9.38089 137.693 11.0001 137.693C12.6193 137.694 13.9319 136.445 13.9319 134.905Z" fill="#B2B2B2"/>
<path opacity="0.15" d="M8.94523 111.457C8.94523 110.382 9.86666 109.503 10.9991 109.503C12.1315 109.503 13.0535 110.379 13.0535 111.457L13.0535 134.905C13.0535 135.982 12.132 136.859 10.9991 136.859C9.86615 136.859 8.94523 135.982 8.94523 134.905L8.94523 111.457Z" fill="black"/>
<path opacity="0.44" d="M11.9022 137.261C12.977 136.863 13.7385 135.869 13.7385 134.706L13.7385 111.655C13.7385 110.492 12.9795 109.497 11.9022 109.099C11.5506 108.969 11.1716 109.219 11.1716 109.578L11.1716 136.783C11.1716 137.142 11.5506 137.391 11.9022 137.261Z" fill="black"/>
<path d="M12.6673 136.472C12.9349 136.228 13.1491 135.93 13.2964 135.597C13.4436 135.265 13.5206 134.905 13.5225 134.54L13.5225 111.821C13.5206 111.457 13.4436 111.097 13.2964 110.764C13.1491 110.432 12.9349 110.134 12.6673 109.89C12.4184 109.658 11.9989 109.827 11.9989 110.158L11.9989 136.203C11.9989 136.535 12.4184 136.703 12.6673 136.472Z" fill="#EAEAEA"/>
<path d="M9.50172 109.89C9.23421 110.134 9.02003 110.432 8.87287 110.764C8.72571 111.097 8.6488 111.457 8.64708 111.821L8.64708 134.54C8.6488 134.905 8.72571 135.265 8.87287 135.597C9.02003 135.93 9.23421 136.228 9.50172 136.472C9.75067 136.703 10.1707 136.535 10.1707 136.203L10.1707 110.158C10.1717 109.827 9.75168 109.658 9.50172 109.89Z" fill="#EAEAEA"/>
<path d="M13.0315 135.835C13.2588 135.442 13.3786 134.995 13.3787 134.54L13.3787 111.821C13.3786 111.366 13.2588 110.919 13.0315 110.526C12.9597 110.402 12.7603 110.45 12.7603 110.592L12.7603 135.767C12.7603 135.911 12.9597 135.959 13.0315 135.835Z" fill="white"/>
<path d="M-3.14612e-05 22.044L-3.19386e-05 11.1236C-0.00232848 8.90644 0.652626 6.7395 1.88028 4.90251C3.07412 3.11523 4.75476 1.71628 6.71868 0.875029C8.40461 0.153549 10.2421 -0.130466 12.0642 0.0487926C13.8863 0.228051 15.6352 0.864901 17.152 1.90147C18.9192 3.10845 20.3026 4.80758 21.1347 6.79318C21.7084 8.16305 22.0027 9.63594 22 11.1236L22 22.044C22.0032 24.2611 21.3482 26.4281 20.1197 28.2645C18.9266 30.0522 17.2462 31.4512 15.2823 32.292C13.2659 33.1544 11.0409 33.3883 8.89222 32.9638C6.74357 32.5392 4.76922 31.4756 3.2222 29.9091C2.19956 28.8771 1.3885 27.6511 0.83555 26.3014C0.282598 24.9517 -0.00136082 23.5049 -3.14612e-05 22.044ZM16.9764 11.1236C16.9764 9.52074 16.3467 7.98355 15.2259 6.85017C14.1051 5.71679 12.585 5.08006 11 5.08006C9.41493 5.08006 7.89481 5.71679 6.77402 6.85017C5.65323 7.98355 5.02357 9.52074 5.02357 11.1236L5.02357 22.044C5.02357 23.6468 5.65323 25.184 6.77402 26.3174C7.89481 27.4508 9.41493 28.0875 11 28.0875C12.585 28.0875 14.1051 27.4508 15.2259 26.3174C16.3467 25.184 16.9764 23.6468 16.9764 22.044L16.9764 11.1236Z" fill="#B2B2B2"/>
<path d="M18.0381 11.1136L18.0381 22.034C18.0378 23.1789 17.7585 24.306 17.225 25.3158C16.6915 26.3256 15.9202 27.187 14.9793 27.8237C14.6793 28.0289 14.461 28.3352 14.3635 28.6879C14.266 29.0407 14.2956 29.417 14.447 29.7497L14.5052 29.8787C14.5972 30.0818 14.7317 30.2623 14.8995 30.4076C15.0673 30.553 15.2643 30.6598 15.4769 30.7206C15.6895 30.7815 15.9126 30.7949 16.1308 30.7599C16.349 30.725 16.5571 30.6425 16.7407 30.5183L16.7847 30.4886C18.4053 29.3822 19.6738 27.8243 20.4366 26.0037C20.9623 24.7479 21.232 23.3977 21.2295 22.034L21.2295 11.1136C21.2324 9.08134 20.6322 7.09493 19.5065 5.41139C18.7812 4.32722 17.8573 3.39348 16.7847 2.66057L16.7701 2.65085C16.5898 2.52854 16.3858 2.44662 16.1716 2.41056C15.9575 2.37451 15.7382 2.38516 15.5285 2.44181C15.3187 2.49845 15.1234 2.59978 14.9556 2.73899C14.7877 2.87821 14.6512 3.0521 14.5553 3.24901L14.4905 3.38154C14.3274 3.71564 14.2893 4.09818 14.3835 4.45844C14.4776 4.8187 14.6975 5.13231 15.0026 5.34129C15.9368 5.97904 16.7021 6.83877 17.2313 7.84514C17.7605 8.85152 18.0376 9.9738 18.0381 11.1136Z" fill="#848484"/>
<path d="M4.06927 22.0535L4.06927 11.1326C4.06957 9.98777 4.34881 8.86067 4.88231 7.85094C5.41582 6.84121 6.18713 5.97997 7.12806 5.34338C7.42816 5.13813 7.64641 4.83177 7.7439 4.47893C7.84139 4.12609 7.81179 3.7497 7.66038 3.41688L7.60219 3.28794C7.51018 3.08482 7.37564 2.90433 7.20787 2.75896C7.0401 2.61358 6.84311 2.50679 6.63052 2.44597C6.41793 2.38514 6.19482 2.37174 5.9766 2.40668C5.75838 2.44162 5.55027 2.52407 5.36667 2.64833L5.32264 2.67852C3.95314 3.61117 2.83145 4.87007 2.05636 6.34432C1.28127 7.81857 0.876574 9.46294 0.87791 11.1326L0.877911 22.0535C0.875423 23.4172 1.14511 24.7673 1.67082 26.0231C2.43394 27.8436 3.70237 29.4014 5.32264 30.5081L5.33732 30.5183C5.51764 30.6405 5.72171 30.7223 5.93585 30.7583C6.14999 30.7943 6.36926 30.7836 6.57897 30.7269C6.78868 30.6702 6.98399 30.5688 7.15182 30.4296C7.31965 30.2904 7.45612 30.1165 7.5521 29.9196L7.61686 29.7876C7.78014 29.4535 7.81824 29.071 7.7241 28.7107C7.62995 28.3504 7.40995 28.0368 7.10479 27.8279C6.17035 27.1899 5.40496 26.3298 4.87573 25.323C4.3465 24.3163 4.06959 23.1936 4.06927 22.0535Z" fill="#848484"/>
<path opacity="0.63" d="M16.9763 11.1236L16.9763 22.044C16.9741 23.6087 16.3725 25.1117 15.2979 26.2375C14.2233 27.3633 12.7592 28.0243 11.2129 28.0819C11.2833 28.0819 11.3541 28.086 11.4255 28.086C13.0097 28.0841 14.5285 27.447 15.6488 26.3143C16.7691 25.1817 17.3996 23.646 17.4019 22.044L17.4019 11.1236C17.4001 9.52112 16.7698 7.98479 15.6491 6.85177C14.5285 5.71874 13.0091 5.08157 11.4244 5.08008C11.3531 5.08008 11.2823 5.08008 11.2119 5.08366C12.7587 5.1411 14.2233 5.80237 15.2981 6.9286C16.373 8.05483 16.9745 9.55841 16.9763 11.1236Z" fill="black"/>
<path d="M3.80575 11.0358L3.80575 22.1317C3.80775 23.7595 4.44813 25.3201 5.58642 26.4712C6.72472 27.6223 8.268 28.2699 9.87779 28.2719C10.0478 28.2719 10.2158 28.2642 10.3838 28.2504C8.8669 28.12 7.45355 27.419 6.423 26.2859C5.39244 25.1528 4.81963 23.6701 4.81775 22.1306L4.81775 11.0358C4.81963 9.49631 5.39243 8.01356 6.42299 6.88047C7.45355 5.74739 8.8669 5.0464 10.3838 4.916C10.2175 4.90201 10.0488 4.89502 9.87779 4.89502C8.26787 4.89692 6.72443 5.54451 5.5861 6.69573C4.44776 7.84694 3.80749 9.40776 3.80575 11.0358Z" fill="white"/>
<path opacity="0.44" d="M1.70922 11.1236C1.70633 9.25162 2.25912 7.42186 3.29604 5.87113C4.30402 4.36136 5.72333 3.17957 7.38202 2.46893C8.80553 1.85968 10.357 1.61981 11.8955 1.77109C13.434 1.92238 14.9108 2.46004 16.1915 3.33522C17.6845 4.35451 18.8532 5.78976 19.556 7.46708C20.04 8.62386 20.2884 9.8675 20.2861 11.1236L20.2861 22.044C20.2896 23.9155 19.7377 25.745 18.7018 27.2959C17.6938 28.8057 16.2745 29.9875 14.6158 30.6981C13.1925 31.307 11.6413 31.5467 10.103 31.3953C8.56483 31.2439 7.08839 30.7063 5.80784 29.8313C4.31484 28.812 3.14617 27.3768 2.44343 25.6995C1.95786 24.5434 1.70813 23.3 1.70922 22.044L1.70922 11.1236ZM18.6856 11.1236C18.6856 6.83668 15.2367 3.34903 10.9974 3.34903C6.75812 3.34903 3.3097 6.83668 3.3097 11.1236L3.3097 22.044C3.3097 26.3304 6.75862 29.818 10.9974 29.818C15.2362 29.818 18.6882 26.3304 18.6882 22.044L18.6856 11.1236Z" fill="black"/>
<path d="M18.1412 29.2228C18.2814 29.0964 18.418 28.967 18.5511 28.8314C19.4729 27.9 20.2083 26.7975 20.7168 25.5842C21.2443 24.3244 21.5148 22.9699 21.5122 21.6018L21.5122 11.564C21.5145 9.5265 20.9126 7.53506 19.7842 5.84698C19.4217 5.30476 19.0087 4.7988 18.5511 4.33598C18.4047 4.18827 18.2539 4.045 18.0987 3.90616C18.0445 3.85771 17.9811 3.82097 17.9124 3.79819C17.8437 3.77541 17.7711 3.76707 17.6991 3.77368C17.627 3.7803 17.5571 3.80172 17.4936 3.83664C17.43 3.87157 17.3742 3.91925 17.3296 3.97677C17.2518 4.07694 17.2117 4.20175 17.2165 4.32899C17.2212 4.45624 17.2704 4.57766 17.3554 4.67164C18.1308 5.52931 18.7559 6.51445 19.2038 7.58467C19.7309 8.84354 20.0014 10.197 19.9992 11.564L19.9992 21.6018C20.0017 23.6397 19.3998 25.6315 18.2712 27.3199C18.0039 27.7199 17.709 28.1003 17.3888 28.4584C17.3074 28.5493 17.2592 28.6656 17.2522 28.7879C17.2452 28.9103 17.2798 29.0315 17.3503 29.1312L17.3533 29.1358C17.3969 29.1973 17.4528 29.2487 17.5174 29.2869C17.582 29.325 17.6537 29.3489 17.7281 29.3571C17.8024 29.3653 17.8776 29.3576 17.9488 29.3345C18.02 29.3113 18.0855 29.2733 18.1412 29.2228Z" fill="white"/>
<path opacity="0.54" d="M5.65308 28.9498C5.69188 28.9064 5.71298 28.8498 5.71213 28.7913C5.71129 28.7328 5.68856 28.6768 5.64853 28.6346C4.79915 27.7373 4.11828 26.6913 3.63919 25.5476C3.11201 24.2884 2.84147 22.9346 2.84375 21.5672L2.84375 11.53C2.84136 9.49224 3.44328 7.50061 4.57175 5.81238C4.88961 5.33707 5.24623 4.88949 5.6379 4.47433C5.6792 4.43127 5.7023 4.37364 5.7023 4.31366C5.7023 4.25367 5.6792 4.19604 5.6379 4.15299C5.5957 4.10965 5.53832 4.08487 5.47818 4.08401C5.41804 4.08315 5.35999 4.10627 5.31659 4.14838C5.26397 4.19853 5.21219 4.2497 5.16125 4.30189C4.23919 5.23384 3.50382 6.33711 2.99555 7.55109C2.46834 8.8101 2.19779 10.1637 2.20012 11.531L2.20012 21.5672C2.19664 23.6047 2.7977 25.5964 3.92559 27.2848C4.28812 27.8271 4.70104 28.3333 5.15872 28.7963C5.21438 28.852 5.27004 28.9073 5.32671 28.9621C5.34876 28.9833 5.37479 28.9998 5.40325 29.0107C5.43172 29.0216 5.46205 29.0266 5.49246 29.0254C5.52287 29.0243 5.55274 29.017 5.58033 29.004C5.60792 28.991 5.63265 28.9726 5.65308 28.9498Z" fill="white"/>
<path d="M14.8245 5.06555C13.771 4.48376 12.7149 4.385 12.8718 4.09334C13.0287 3.80168 14.0655 3.75717 15.1185 4.33998C16.1714 4.92279 16.8429 5.91648 16.6871 6.20609C16.5312 6.49571 15.8775 5.64989 14.8245 5.06555Z" fill="white"/>
<path d="M14.32 28.8905C15.0714 28.5922 15.5774 28.0841 15.6574 28.2908C15.7373 28.4975 15.3153 29.0583 14.5639 29.3577C13.8125 29.657 13.0165 29.5772 12.9366 29.371C12.8566 29.1648 13.5686 29.1888 14.32 28.8905Z" fill="white"/>
<path d="M13.8397 32.3288C14.263 32.2115 14.6774 32.0632 15.0794 31.8851C15.4539 31.7192 15.8145 31.523 16.1577 31.2982C16.4758 31.0901 16.7736 30.852 17.0473 30.587C17.0624 30.5727 17.0776 30.5573 17.0923 30.5425C17.0022 30.608 16.91 30.6719 16.8155 30.7344C16.429 30.9877 16.0229 31.2089 15.6011 31.396C15.1478 31.5968 14.6808 31.7641 14.2035 31.8964C12.1061 32.4654 9.89745 32.4654 7.80004 31.8964C7.32264 31.7641 6.85538 31.5968 6.40195 31.396C5.98015 31.2089 5.57402 30.9877 5.18754 30.7344C5.09275 30.6719 5.00032 30.608 4.91025 30.5425L4.95529 30.587C5.22909 30.852 5.52711 31.0901 5.84535 31.2982C6.1876 31.523 6.54738 31.7193 6.92111 31.8851C7.32298 32.0632 7.73715 32.2115 8.16031 32.3288C10.0205 32.8336 11.9795 32.8336 13.8397 32.3288Z" fill="white"/>
<path d="M13.9319 49.6273L13.9319 26.1788C13.9319 24.6386 12.6193 23.3901 11.0001 23.3901C9.38089 23.3901 8.06832 24.6386 8.06832 26.1788L8.06832 49.6273C8.06832 51.167 9.38089 52.4155 11.0001 52.4155C12.6193 52.4155 13.9319 51.1685 13.9319 49.6273Z" fill="#B2B2B2"/>
<path opacity="0.15" d="M8.94523 26.1787C8.94523 25.1011 9.86666 24.2251 10.9991 24.2251C12.1315 24.2251 13.0535 25.1011 13.0535 26.1787L13.0535 49.6272C13.0535 50.7018 12.132 51.5808 10.9991 51.5808C9.86615 51.5808 8.94523 50.7043 8.94523 49.6272L8.94523 26.1787Z" fill="black"/>
<path opacity="0.44" d="M11.9022 51.9835C12.977 51.5854 13.7385 50.5917 13.7385 49.4287L13.7385 26.3772C13.7385 25.2136 12.9795 24.22 11.9022 23.8219C11.5506 23.6909 11.1716 23.9416 11.1716 24.3003L11.1716 51.5051C11.1716 51.8638 11.5506 52.114 11.9022 51.9835Z" fill="black"/>
<path d="M12.6673 51.1937C12.935 50.9497 13.1493 50.6518 13.2966 50.3192C13.4438 49.9866 13.5208 49.6265 13.5225 49.2621L13.5225 26.5432C13.5206 26.1789 13.4435 25.819 13.2963 25.4865C13.149 25.154 12.9348 24.8562 12.6673 24.6121C12.4184 24.3803 11.9989 24.5492 11.9989 24.8803L11.9989 50.9251C11.9989 51.2571 12.4184 51.4245 12.6673 51.1937Z" fill="#EAEAEA"/>
<path d="M9.50172 24.6121C9.23421 24.8562 9.02003 25.1541 8.87287 25.4867C8.72571 25.8194 8.6488 26.1794 8.64708 26.5437L8.64708 49.2626C8.64875 49.6269 8.72563 49.9868 8.8728 50.3194C9.01996 50.6519 9.23418 50.9497 9.50172 51.1937C9.75067 51.4255 10.1707 51.2571 10.1707 50.9256L10.1707 24.8808C10.1717 24.5492 9.75168 24.3803 9.50172 24.6121Z" fill="#EAEAEA"/>
<path d="M13.0315 50.5572C13.2589 50.1643 13.3787 49.7173 13.3787 49.2621L13.3787 26.5433C13.3786 26.0881 13.2588 25.6411 13.0315 25.2482C12.9597 25.1239 12.7603 25.172 12.7603 25.3142L12.7603 50.4891C12.7603 50.6334 12.9597 50.6821 13.0315 50.5572Z" fill="white"/>
<path d="M-2.57391e-05 192.598L-2.62165e-05 181.678C-0.00140723 179.659 0.540957 177.678 1.56887 175.946C2.59678 174.215 4.07144 172.8 5.83461 171.852C7.59778 170.904 9.58292 170.459 11.577 170.566C13.5711 170.672 15.4989 171.326 17.1535 172.456C18.9205 173.664 20.3034 175.364 21.1347 177.35C21.7081 178.719 22.0024 180.192 22 181.678L22 192.598C22.003 194.816 21.348 196.983 20.1197 198.819C19.3295 200.003 18.322 201.021 17.152 201.82C15.4973 202.951 13.5696 203.604 11.5756 203.711C9.58153 203.817 7.59648 203.372 5.83336 202.425C4.07025 201.477 2.59562 200.061 1.56767 198.33C0.53972 196.599 -0.00275125 194.618 -0.00154399 192.598L-2.57391e-05 192.598ZM16.9764 181.678C16.9764 180.076 16.3467 178.538 15.2259 177.405C14.1051 176.272 12.585 175.635 11 175.635C9.41494 175.635 7.89482 176.272 6.77402 177.405C5.65323 178.538 5.02357 180.076 5.02357 181.678L5.02357 192.598C5.02357 194.201 5.65323 195.738 6.77402 196.872C7.89482 198.005 9.41494 198.642 11 198.642C12.585 198.642 14.1051 198.005 15.2259 196.872C16.3467 195.738 16.9764 194.201 16.9764 192.598L16.9764 181.678Z" fill="#B2B2B2"/>
<path d="M18.0381 181.669L18.0381 192.589C18.0381 193.735 17.7589 194.862 17.2254 195.872C16.6919 196.882 15.9205 197.744 14.9793 198.381C14.6792 198.586 14.461 198.892 14.3635 199.245C14.266 199.598 14.2956 199.974 14.447 200.307L14.5052 200.436C14.5972 200.639 14.7318 200.82 14.8995 200.965C15.0673 201.11 15.2643 201.217 15.4769 201.278C15.6895 201.339 15.9126 201.352 16.1308 201.317C16.349 201.282 16.5571 201.2 16.7407 201.076L16.7848 201.046C18.1543 200.113 19.2761 198.854 20.0512 197.379C20.8262 195.905 21.2309 194.261 21.2295 192.591L21.2295 181.669C21.2318 179.637 20.6316 177.652 19.5065 175.969C18.7813 174.884 17.8574 173.95 16.7848 173.216L16.7701 173.207C16.5898 173.085 16.3857 173.003 16.1716 172.967C15.9575 172.931 15.7383 172.941 15.5286 172.998C15.3188 173.055 15.1235 173.156 14.9557 173.295C14.7878 173.434 14.6513 173.608 14.5553 173.805L14.4905 173.937C14.3274 174.272 14.2893 174.654 14.3835 175.014C14.4776 175.375 14.6975 175.688 15.0026 175.897C15.9367 176.535 16.7019 177.395 17.2311 178.401C17.7603 179.407 18.0374 180.529 18.0381 181.669Z" fill="#848484"/>
<path d="M4.06938 192.609L4.06938 181.688C4.06973 180.543 4.34899 179.416 4.88249 178.406C5.41598 177.397 6.18727 176.535 7.12817 175.899C7.42803 175.693 7.64612 175.387 7.7436 175.035C7.84108 174.682 7.81163 174.306 7.66049 173.973L7.6023 173.845C7.51024 173.642 7.37566 173.461 7.20787 173.316C7.04009 173.171 6.84309 173.064 6.6305 173.003C6.41792 172.942 6.19482 172.929 5.97662 172.964C5.75843 172.999 5.55035 173.081 5.36678 173.206L5.32275 173.236C3.95318 174.168 2.83144 175.427 2.05635 176.902C1.28126 178.376 0.876602 180.021 0.878021 181.69L0.878022 192.609C0.875534 193.972 1.14522 195.323 1.67093 196.578C2.43453 198.398 3.70285 199.956 5.32275 201.063L5.33743 201.073C5.51772 201.195 5.72176 201.277 5.93587 201.313C6.14999 201.349 6.36924 201.338 6.57895 201.282C6.78866 201.225 6.98398 201.124 7.15183 200.985C7.31968 200.846 7.45618 200.672 7.55221 200.475L7.61697 200.342C7.78015 200.008 7.81818 199.626 7.72405 199.265C7.62991 198.905 7.40998 198.592 7.1049 198.383C6.17047 197.745 5.40508 196.885 4.87584 195.878C4.34661 194.871 4.06969 193.749 4.06938 192.609Z" fill="#848484"/>
<path opacity="0.63" d="M16.9763 181.679L16.9763 192.599C16.974 194.163 16.3724 195.666 15.2978 196.792C14.2232 197.918 12.7592 198.579 11.2129 198.637C11.2833 198.637 11.3541 198.64 11.4255 198.64C13.0096 198.638 14.5284 198.001 15.6488 196.869C16.7691 195.736 17.3996 194.201 17.4019 192.599L17.4019 181.679C17.4001 180.076 16.7698 178.54 15.6491 177.407C14.5285 176.274 13.0091 175.637 11.4244 175.635C11.3531 175.635 11.2823 175.635 11.2119 175.639C12.7586 175.697 14.2232 176.358 15.2981 177.484C16.3729 178.61 16.9745 180.114 16.9763 181.679Z" fill="black"/>
<path d="M3.80575 181.59L3.80575 192.687C3.80762 194.315 4.44795 195.875 5.58628 197.027C6.7246 198.178 8.26796 198.825 9.87779 198.827C10.0465 198.827 10.2151 198.82 10.3838 198.806C8.8669 198.676 7.45355 197.975 6.423 196.842C5.39244 195.709 4.81963 194.226 4.81775 192.686L4.81775 181.59C4.81974 180.051 5.39259 178.568 6.42313 177.435C7.45366 176.302 8.86695 175.601 10.3838 175.471C10.2175 175.457 10.0488 175.45 9.87779 175.45C8.26787 175.452 6.72443 176.099 5.5861 177.25C4.44776 178.402 3.80749 179.962 3.80575 181.59Z" fill="white"/>
<path opacity="0.44" d="M1.70937 181.679C1.70757 179.807 2.26124 177.979 3.29873 176.429C4.30671 174.919 5.72602 173.738 7.38471 173.027C8.80822 172.418 10.3597 172.178 11.8982 172.329C13.4367 172.48 14.9135 173.018 16.1942 173.893C17.6872 174.913 18.8559 176.348 19.5586 178.025C20.0426 179.182 20.291 180.425 20.2888 181.681L20.2888 192.598C20.291 193.855 20.0426 195.098 19.5586 196.255C18.6154 198.507 16.8429 200.299 14.616 201.253C13.1927 201.861 11.6416 202.101 10.1035 201.95C8.56532 201.799 7.08885 201.262 5.808 200.387C4.31529 199.368 3.1467 197.933 2.44359 196.256C1.95789 195.099 1.70816 193.855 1.70937 192.598L1.70937 181.679ZM18.6858 181.679C18.6858 177.392 15.2369 173.905 10.9976 173.905C6.75827 173.905 3.30986 177.392 3.30986 181.679L3.30986 192.598C3.30986 196.885 6.75878 200.373 10.9976 200.373C15.2364 200.373 18.6883 196.886 18.6883 192.598L18.6858 181.679Z" fill="black"/>
<path d="M18.1412 199.778C18.2815 199.651 18.4182 199.521 18.5511 199.386C19.473 198.454 20.2083 197.351 20.7168 196.138C21.2439 194.878 21.5145 193.525 21.5122 192.157L21.5122 182.12C21.5146 180.082 20.9127 178.091 19.7842 176.402C19.4217 175.86 19.0087 175.354 18.5511 174.891C18.4047 174.743 18.2539 174.6 18.0987 174.461C18.0445 174.413 17.9811 174.376 17.9124 174.353C17.8437 174.331 17.7711 174.322 17.6991 174.329C17.6271 174.335 17.5572 174.357 17.4936 174.392C17.4301 174.427 17.3743 174.474 17.3296 174.532C17.2518 174.632 17.2117 174.757 17.2165 174.884C17.2212 175.011 17.2704 175.133 17.3554 175.227C18.1307 176.085 18.7557 177.07 19.2038 178.14C19.731 179.399 20.0016 180.753 19.9992 182.12L19.9992 192.157C20.002 194.195 19.4 196.187 18.2712 197.875C18.0039 198.275 17.709 198.656 17.3888 199.014C17.3074 199.105 17.2593 199.221 17.2523 199.343C17.2453 199.465 17.2799 199.586 17.3503 199.686L17.3534 199.691C17.3969 199.752 17.4528 199.804 17.5173 199.842C17.5819 199.88 17.6536 199.904 17.728 199.912C17.8023 199.921 17.8775 199.913 17.9487 199.89C18.0199 199.867 18.0855 199.829 18.1412 199.778Z" fill="white"/>
<path opacity="0.54" d="M5.65313 199.506C5.6919 199.463 5.71298 199.406 5.71213 199.348C5.71129 199.289 5.68858 199.233 5.64858 199.191C4.79904 198.294 4.11816 197.248 3.63924 196.104C3.11197 194.845 2.84142 193.491 2.8438 192.123L2.8438 182.085C2.84131 180.047 3.44324 178.055 4.5718 176.367C4.88965 175.892 5.24628 175.444 5.63795 175.029C5.67925 174.986 5.70235 174.928 5.70235 174.868C5.70235 174.808 5.67925 174.751 5.63795 174.708C5.59575 174.664 5.53837 174.64 5.47823 174.639C5.41809 174.638 5.36004 174.661 5.31664 174.703C5.26402 174.754 5.21224 174.805 5.1613 174.857C4.23911 175.788 3.50372 176.891 2.9956 178.105C2.46838 179.364 2.19784 180.718 2.20017 182.086L2.20017 192.122C2.19767 194.16 2.7996 196.152 3.92817 197.84C4.28988 198.383 4.70195 198.889 5.15877 199.352C5.21443 199.408 5.27009 199.464 5.32676 199.518C5.34881 199.539 5.37484 199.556 5.4033 199.567C5.43177 199.578 5.4621 199.583 5.49251 199.582C5.52292 199.581 5.55279 199.573 5.58038 199.56C5.60796 199.547 5.6327 199.529 5.65313 199.506Z" fill="white"/>
<path d="M14.8244 175.622C13.7709 175.04 12.7149 174.94 12.8718 174.65C13.0286 174.36 14.0654 174.312 15.1189 174.895C16.1724 175.478 16.8434 176.472 16.6875 176.761C16.5317 177.05 15.8774 176.205 14.8244 175.622Z" fill="white"/>
<path d="M14.32 199.446C15.0714 199.148 15.5774 198.64 15.6574 198.846C15.7373 199.052 15.3153 199.613 14.5639 199.913C13.8125 200.212 13.0165 200.133 12.9366 199.926C12.8566 199.719 13.5686 199.744 14.32 199.446Z" fill="white"/>
<path d="M13.8397 202.883C14.263 202.766 14.6774 202.617 15.0794 202.439C15.4539 202.274 15.8145 202.077 16.1577 201.853C16.4756 201.645 16.7734 201.408 17.0473 201.144L17.0923 201.099C17.0022 201.165 16.91 201.229 16.8155 201.291C16.429 201.544 16.0229 201.766 15.6011 201.953C15.1478 202.153 14.6807 202.32 14.2035 202.453C12.1061 203.022 9.89745 203.022 7.80004 202.453C7.32265 202.32 6.85539 202.153 6.40195 201.953C5.98015 201.766 5.57402 201.544 5.18754 201.291C5.09275 201.229 5.00032 201.165 4.91025 201.099L4.95529 201.144C5.22922 201.408 5.52722 201.647 5.84535 201.855C6.18765 202.079 6.54742 202.275 6.92111 202.44C7.32297 202.619 7.73713 202.767 8.16031 202.884C10.0206 203.389 11.9794 203.389 13.8397 202.884L13.8397 202.883Z" fill="white"/>
<path d="M-3.71832e-05 235.238L-3.76605e-05 224.317C-0.00141867 222.298 0.540945 220.316 1.56886 218.585C2.59677 216.854 4.07143 215.438 5.8346 214.49C7.59777 213.542 9.58291 213.098 11.577 213.204C13.5711 213.311 15.4989 213.965 17.1535 215.095C18.9205 216.302 20.3039 218.001 21.1362 219.987C21.7093 221.357 22.0031 222.83 22 224.317L22 235.238C22.003 237.455 21.348 239.622 20.1197 241.459C18.9261 243.246 17.2458 244.645 15.2823 245.486C13.596 246.208 11.758 246.492 9.93547 246.313C8.1129 246.134 6.36355 245.497 4.84646 244.46C3.079 243.253 1.69567 241.554 0.864215 239.568C0.290883 238.198 -0.00307171 236.725 -3.71832e-05 235.238ZM16.9764 224.317C16.9764 222.714 16.3467 221.177 15.2259 220.044C14.1051 218.91 12.585 218.274 11 218.274C9.41493 218.274 7.89481 218.91 6.77401 220.044C5.65322 221.177 5.02356 222.714 5.02356 224.317L5.02356 235.238C5.02356 236.84 5.65322 238.378 6.77401 239.511C7.89481 240.644 9.41493 241.281 11 241.281C12.585 241.281 14.1051 240.644 15.2259 239.511C16.3467 238.378 16.9764 236.84 16.9764 235.238L16.9764 224.317Z" fill="#B2B2B2"/>
<path d="M18.0381 224.308L18.0381 235.228C18.0378 236.373 17.7586 237.5 17.2251 238.51C16.6916 239.52 15.9203 240.381 14.9793 241.018C14.6792 241.223 14.461 241.529 14.3635 241.882C14.266 242.235 14.2956 242.611 14.447 242.944L14.5052 243.073C14.5972 243.276 14.7318 243.457 14.8995 243.602C15.0673 243.748 15.2643 243.854 15.4769 243.915C15.6895 243.976 15.9126 243.989 16.1308 243.954C16.349 243.92 16.5571 243.837 16.7407 243.713L16.7848 243.683C18.1543 242.75 19.2761 241.491 20.0512 240.017C20.8262 238.542 21.2309 236.898 21.2295 235.228L21.2295 224.308C21.2322 222.276 20.6321 220.289 19.5065 218.605C18.7815 217.521 17.8576 216.587 16.7847 215.854C16.7802 215.85 16.7751 215.847 16.7701 215.843C16.5898 215.721 16.3857 215.639 16.1715 215.603C15.9574 215.567 15.7381 215.578 15.5284 215.635C15.3187 215.691 15.1234 215.793 14.9556 215.932C14.7877 216.071 14.6513 216.245 14.5553 216.442L14.4905 216.574C14.3273 216.908 14.2892 217.291 14.3833 217.651C14.4774 218.011 14.6974 218.325 15.0026 218.534C15.937 219.172 16.7024 220.032 17.2317 221.039C17.7609 222.045 18.0378 223.168 18.0381 224.308Z" fill="#848484"/>
<path d="M4.06927 235.248L4.06927 224.327C4.06962 223.182 4.34888 222.055 4.88238 221.045C5.41587 220.036 6.18716 219.174 7.12806 218.537C7.42816 218.332 7.64641 218.026 7.7439 217.673C7.84139 217.32 7.81179 216.944 7.66038 216.611L7.60219 216.483C7.51024 216.279 7.37574 216.099 7.20798 215.953C7.04022 215.808 6.84321 215.701 6.6306 215.64C6.41798 215.579 6.19483 215.566 5.9766 215.601C5.75836 215.636 5.55025 215.719 5.36667 215.843L5.32264 215.873C3.70211 216.979 2.43361 218.537 1.67082 220.358C1.14511 221.613 0.875422 222.963 0.87791 224.327L0.877911 235.248C0.875423 236.611 1.14511 237.961 1.67082 239.217C2.43442 241.037 3.70274 242.595 5.32264 243.702L5.33732 243.712C5.51759 243.834 5.72162 243.916 5.93576 243.952C6.14989 243.988 6.36918 243.978 6.57891 243.921C6.78864 243.864 6.98397 243.763 7.15182 243.624C7.31966 243.484 7.45614 243.311 7.5521 243.114L7.61686 242.981C7.78003 242.647 7.81807 242.265 7.72394 241.904C7.6298 241.544 7.40986 241.23 7.10479 241.021C6.17036 240.384 5.40497 239.524 4.87573 238.517C4.3465 237.51 4.06958 236.388 4.06927 235.248Z" fill="#848484"/>
<path opacity="0.63" d="M16.9763 224.317L16.9763 235.238C16.974 236.803 16.3724 238.305 15.2978 239.431C14.2232 240.557 12.7592 241.218 11.2129 241.276C11.2833 241.276 11.3541 241.279 11.4255 241.279C13.0096 241.278 14.5284 240.641 15.6488 239.508C16.7691 238.375 17.3996 236.84 17.4019 235.238L17.4019 224.317C17.4 222.715 16.7696 221.179 15.649 220.046C14.5284 218.913 13.0091 218.276 11.4244 218.274C11.3531 218.274 11.2823 218.274 11.2119 218.278C12.7586 218.335 14.2232 218.996 15.2981 220.123C16.3729 221.249 16.9745 222.752 16.9763 224.317Z" fill="black"/>
<path d="M3.80575 224.23L3.80575 235.324C3.80762 236.952 4.44795 238.513 5.58628 239.664C6.7246 240.815 8.26796 241.462 9.87779 241.464C10.0465 241.464 10.2151 241.457 10.3838 241.443C8.8669 241.313 7.45355 240.612 6.423 239.479C5.39244 238.346 4.81963 236.863 4.81775 235.323L4.81775 224.23C4.81963 222.69 5.39243 221.207 6.42299 220.074C7.45355 218.941 8.8669 218.24 10.3838 218.11C10.2175 218.096 10.0488 218.088 9.87779 218.088C8.26782 218.09 6.72439 218.738 5.58607 219.889C4.44774 221.041 3.80749 222.602 3.80575 224.23Z" fill="white"/>
<path opacity="0.44" d="M1.70922 224.317C1.70644 222.446 2.25922 220.616 3.29604 219.065C4.30402 217.556 5.72333 216.374 7.38202 215.663C8.80553 215.054 10.357 214.814 11.8955 214.965C13.434 215.117 14.9108 215.654 16.1915 216.53C17.6845 217.549 18.8532 218.984 19.556 220.661C20.04 221.818 20.2883 223.061 20.2861 224.317L20.2861 235.238C20.2884 236.494 20.04 237.738 19.556 238.894C18.6126 241.146 16.8401 242.938 14.6133 243.892C13.1903 244.501 11.6396 244.74 10.1019 244.589C8.56415 244.438 7.08814 243.901 5.80784 243.026C4.31484 242.007 3.14617 240.572 2.44343 238.894C1.95774 237.738 1.70801 236.494 1.70922 235.238L1.70922 224.317ZM18.6856 224.317C18.6856 220.031 15.2367 216.543 10.9974 216.543C6.75812 216.543 3.30971 220.031 3.30971 224.317L3.30971 235.238C3.30971 239.525 6.75863 243.012 10.9974 243.012C15.2362 243.012 18.6882 239.525 18.6882 235.238L18.6856 224.317Z" fill="black"/>
<path d="M18.1412 242.417C18.2815 242.29 18.4182 242.16 18.5511 242.025C19.473 241.093 20.2083 239.99 20.7168 238.777C21.2439 237.517 21.5145 236.164 21.5122 234.796L21.5122 224.759C21.5146 222.721 20.9127 220.73 19.7842 219.041C19.4217 218.499 19.0087 217.993 18.5511 217.53C18.4047 217.382 18.2539 217.239 18.0987 217.1C18.0445 217.052 17.9811 217.015 17.9123 216.992C17.8436 216.97 17.7711 216.961 17.6991 216.968C17.6271 216.975 17.5572 216.996 17.4937 217.031C17.4302 217.066 17.3743 217.113 17.3296 217.171C17.2518 217.271 17.2117 217.396 17.2165 217.523C17.2212 217.65 17.2704 217.772 17.3554 217.865C18.1307 218.723 18.7557 219.709 19.2038 220.779C19.731 222.038 20.0016 223.392 19.9992 224.759L19.9992 234.796C20.002 236.834 19.4 238.826 18.2712 240.514C18.0039 240.914 17.709 241.295 17.3888 241.653C17.3074 241.744 17.2593 241.86 17.2523 241.982C17.2453 242.104 17.2799 242.225 17.3503 242.325L17.3534 242.33C17.3969 242.391 17.4528 242.443 17.5173 242.481C17.5819 242.519 17.6536 242.543 17.728 242.551C17.8023 242.56 17.8775 242.552 17.9487 242.529C18.0199 242.506 18.0855 242.468 18.1412 242.417Z" fill="white"/>
<path opacity="0.54" d="M5.65313 242.144C5.6919 242.1 5.71298 242.044 5.71213 241.985C5.71129 241.927 5.68858 241.871 5.64858 241.829C4.79904 240.932 4.11816 239.885 3.63924 238.741C3.11202 237.482 2.84148 236.129 2.8438 234.761L2.8438 224.724C2.84261 222.097 3.84345 219.571 5.63795 217.671C5.67917 217.628 5.7022 217.57 5.7022 217.51C5.7022 217.45 5.67917 217.392 5.63795 217.349C5.59575 217.306 5.53837 217.281 5.47823 217.28C5.41809 217.279 5.36004 217.303 5.31664 217.345C5.26402 217.395 5.21224 217.446 5.1613 217.498C4.2394 218.43 3.50405 219.533 2.9956 220.747C2.46842 222.006 2.19788 223.36 2.20017 224.727L2.20017 234.761C2.19777 236.799 2.7997 238.791 3.92817 240.479C4.2907 241.021 4.70362 241.528 5.1613 241.991C5.21696 242.046 5.27262 242.102 5.32929 242.156C5.35129 242.177 5.37717 242.193 5.40542 242.204C5.43367 242.215 5.46373 242.22 5.49386 242.218C5.52398 242.217 5.55358 242.21 5.58092 242.197C5.60826 242.184 5.63281 242.166 5.65313 242.144Z" fill="white"/>
<path d="M14.8244 218.261C13.7709 217.678 12.7149 217.579 12.8718 217.289C13.0286 216.999 14.0654 216.951 15.1189 217.533C16.1724 218.116 16.8434 219.11 16.6875 219.4C16.5317 219.69 15.8774 218.844 14.8244 218.261Z" fill="white"/>
<path d="M14.32 242.085C15.0714 241.786 15.5774 241.278 15.6574 241.484C15.7373 241.691 15.3153 242.252 14.5639 242.551C13.8125 242.851 13.0165 242.771 12.9366 242.565C12.8566 242.358 13.5686 242.386 14.32 242.085Z" fill="white"/>
<path d="M13.8397 245.523C14.263 245.406 14.6773 245.257 15.0794 245.079C15.4539 244.914 15.8145 244.717 16.1577 244.493C16.4757 244.284 16.7735 244.046 17.0473 243.781L17.0923 243.737C17.0022 243.802 16.91 243.866 16.8155 243.929C16.429 244.182 16.0229 244.403 15.6011 244.59C15.1479 244.791 14.6808 244.958 14.2035 245.09C12.1062 245.66 9.89736 245.66 7.80004 245.09C7.32258 244.958 6.8553 244.791 6.40195 244.59C5.98015 244.403 5.57402 244.182 5.18754 243.929C5.09275 243.866 5.00032 243.802 4.91025 243.737L4.95529 243.781C5.22922 244.046 5.52722 244.284 5.84535 244.493C6.1876 244.717 6.54738 244.914 6.92111 245.079C7.32307 245.257 7.73722 245.406 8.16031 245.523C10.0206 246.027 11.9794 246.027 13.8397 245.523Z" fill="white"/>
<path d="M13.9319 220.182L13.9319 196.734C13.9319 195.194 12.6193 193.946 11.0001 193.946C9.38089 193.946 8.06832 195.194 8.06832 196.734L8.06832 220.182C8.06832 221.723 9.38089 222.971 11.0001 222.971C12.6193 222.971 13.9319 221.723 13.9319 220.182Z" fill="#B2B2B2"/>
<path opacity="0.15" d="M8.94523 196.734C8.94523 195.657 9.86666 194.78 10.9991 194.78C12.1315 194.78 13.0535 195.657 13.0535 196.734L13.0535 220.182C13.0535 221.26 12.132 222.136 10.9991 222.136C9.86615 222.136 8.94523 221.26 8.94523 220.182L8.94523 196.734Z" fill="black"/>
<path opacity="0.44" d="M11.9022 222.539C12.977 222.141 13.7385 221.147 13.7385 219.984L13.7385 196.932C13.7385 195.769 12.9795 194.775 11.9022 194.377C11.5506 194.247 11.1716 194.497 11.1716 194.856L11.1716 222.061C11.1716 222.419 11.5506 222.669 11.9022 222.539Z" fill="black"/>
<path d="M12.6673 221.749C12.9349 221.505 13.1491 221.207 13.2964 220.875C13.4436 220.542 13.5206 220.182 13.5225 219.818L13.5225 197.101C13.5207 196.737 13.4437 196.377 13.2965 196.045C13.1492 195.712 12.9349 195.414 12.6673 195.17C12.4184 194.939 11.9989 195.107 11.9989 195.438L11.9989 221.483C11.9989 221.812 12.4184 221.981 12.6673 221.749Z" fill="#EAEAEA"/>
<path d="M9.50172 195.168C9.23404 195.412 9.01984 195.71 8.87283 196.043C8.72583 196.376 8.64928 196.737 8.64809 197.101L8.64809 219.82C8.65004 220.184 8.72695 220.543 8.87393 220.876C9.0209 221.208 9.23471 221.505 9.50172 221.749C9.75067 221.981 10.1707 221.812 10.1707 221.481L10.1707 195.436C10.1717 195.106 9.75168 194.936 9.50172 195.168Z" fill="#EAEAEA"/>
<path d="M13.0315 221.112C13.2588 220.72 13.3786 220.273 13.3787 219.817L13.3787 197.101C13.3786 196.646 13.2588 196.199 13.0315 195.807C12.9597 195.682 12.7603 195.73 12.7603 195.872L12.7603 221.047C12.7603 221.189 12.9597 221.237 13.0315 221.112Z" fill="white"/>
<path d="M-2.57392e-05 277.877L-2.62166e-05 266.956C-0.000852187 264.937 0.54183 262.956 1.56981 261.226C2.59779 259.495 4.07229 258.08 5.83515 257.132C7.59801 256.185 9.58272 255.74 11.5764 255.847C13.5701 255.953 15.4975 256.606 17.152 257.736C18.919 258.943 20.3023 260.642 21.1347 262.628C21.7081 263.997 22.0024 265.469 22 266.956L22 277.877C22.003 280.094 21.348 282.261 20.1197 284.098C18.9261 285.885 17.2458 287.284 15.2823 288.125C13.596 288.847 11.758 289.131 9.93548 288.952C8.11291 288.773 6.36356 288.136 4.84648 287.099C3.07901 285.892 1.69569 284.193 0.864228 282.207C0.290895 280.837 -0.00306027 279.364 -2.57392e-05 277.877ZM16.9764 266.956C16.9764 265.353 16.3467 263.816 15.2259 262.683C14.1051 261.549 12.585 260.913 11 260.913C9.41494 260.913 7.89482 261.549 6.77402 262.683C5.65323 263.816 5.02358 265.353 5.02358 266.956L5.02358 277.877C5.02358 279.479 5.65323 281.017 6.77403 282.15C7.89482 283.283 9.41494 283.92 11 283.92C12.585 283.92 14.1051 283.283 15.2259 282.15C16.3467 281.017 16.9764 279.479 16.9764 277.877L16.9764 266.956Z" fill="#B2B2B2"/>
<path d="M18.0381 266.946L18.0381 277.866C18.0379 279.011 17.7586 280.138 17.2251 281.148C16.6916 282.158 15.9203 283.019 14.9793 283.656C14.6792 283.861 14.461 284.168 14.3635 284.52C14.266 284.873 14.2956 285.25 14.447 285.582L14.5052 285.711C14.5972 285.915 14.7318 286.095 14.8995 286.24C15.0673 286.386 15.2643 286.493 15.4769 286.553C15.6895 286.614 15.9126 286.628 16.1308 286.593C16.349 286.558 16.5571 286.475 16.7407 286.351L16.7848 286.321C18.1543 285.388 19.2761 284.129 20.0512 282.655C20.8262 281.18 21.2309 279.536 21.2295 277.866L21.2295 266.946C21.2322 264.914 20.6321 262.927 19.5065 261.244C18.7815 260.159 17.8576 259.225 16.7847 258.492C16.7802 258.488 16.7751 258.485 16.7701 258.482C16.5898 258.359 16.3857 258.278 16.1715 258.242C15.9574 258.206 15.7381 258.216 15.5284 258.273C15.3187 258.33 15.1234 258.431 14.9556 258.57C14.7877 258.709 14.6513 258.883 14.5553 259.08L14.4905 259.212C14.3273 259.546 14.2893 259.929 14.3834 260.289C14.4775 260.65 14.6975 260.963 15.0026 261.173C15.9371 261.81 16.7025 262.67 17.2317 263.677C17.761 264.684 18.0379 265.806 18.0381 266.946Z" fill="#848484"/>
<path d="M4.06932 277.886L4.06932 266.966C4.06967 265.821 4.34893 264.694 4.88242 263.684C5.41591 262.674 6.1872 261.813 7.12811 261.176C7.42816 260.971 7.64639 260.664 7.74389 260.312C7.84139 259.959 7.81181 259.583 7.66042 259.25L7.60223 259.121C7.51022 258.918 7.37568 258.737 7.20791 258.592C7.04015 258.447 6.84316 258.34 6.63057 258.279C6.41798 258.218 6.19486 258.205 5.97664 258.24C5.75843 258.275 5.55032 258.357 5.36671 258.481L5.32269 258.511C3.70216 259.617 2.43366 261.175 1.67086 262.996C1.14515 264.252 0.875468 265.602 0.877955 266.966L0.877956 277.886C0.875468 279.25 1.14515 280.6 1.67086 281.856C2.43471 283.675 3.70301 285.232 5.32269 286.339L5.33736 286.349C5.51763 286.471 5.72167 286.553 5.9358 286.589C6.14994 286.625 6.36922 286.614 6.57895 286.558C6.78868 286.501 6.98402 286.4 7.15186 286.261C7.31971 286.121 7.45618 285.948 7.55214 285.751L7.61691 285.618C7.78008 285.284 7.81811 284.901 7.72398 284.541C7.62985 284.181 7.40991 283.867 7.10483 283.658C6.17062 283.021 5.40536 282.161 4.87613 281.154C4.34691 280.148 4.06988 279.026 4.06932 277.886Z" fill="#848484"/>
<path opacity="0.63" d="M16.9763 266.956L16.9763 277.876C16.974 279.441 16.3724 280.944 15.2978 282.07C14.2232 283.196 12.7592 283.857 11.2129 283.914C11.2833 283.917 11.3541 283.918 11.4255 283.918C13.0096 283.916 14.5284 283.279 15.6488 282.147C16.7691 281.014 17.3996 279.478 17.4019 277.876L17.4019 266.956C17.4 265.354 16.7696 263.817 15.649 262.684C14.5284 261.551 13.0091 260.914 11.4244 260.913C11.3531 260.913 11.2823 260.913 11.2119 260.917C12.7586 260.974 14.2232 261.635 15.2981 262.761C16.3729 263.887 16.9745 265.391 16.9763 266.956Z" fill="black"/>
<path d="M3.80575 266.869L3.80575 277.965C3.80762 279.593 4.44795 281.153 5.58628 282.304C6.7246 283.456 8.26796 284.103 9.87779 284.105C10.0465 284.105 10.2151 284.098 10.3838 284.084C8.8669 283.954 7.45355 283.253 6.423 282.119C5.39244 280.986 4.81963 279.504 4.81775 277.964L4.81775 266.869C4.81963 265.329 5.39243 263.847 6.42299 262.714C7.45355 261.58 8.8669 260.879 10.3838 260.749C10.2173 260.735 10.0493 260.728 9.87779 260.728C8.26782 260.73 6.72439 261.377 5.58607 262.529C4.44774 263.68 3.80749 265.241 3.80575 266.869Z" fill="white"/>
<path opacity="0.44" d="M1.70937 266.956C1.70659 265.084 2.25938 263.255 3.2962 261.704C4.30418 260.194 5.72349 259.013 7.38218 258.302C8.80607 257.692 10.3581 257.452 11.8971 257.604C13.436 257.755 14.9132 258.293 16.1942 259.169C17.6872 260.188 18.8559 261.623 19.5586 263.301C20.0426 264.457 20.291 265.701 20.2888 266.957L20.2888 277.877C20.291 279.133 20.0427 280.377 19.5586 281.533C18.6152 283.785 16.8427 285.578 14.616 286.532C13.1926 287.14 11.6414 287.38 10.1032 287.229C8.56499 287.077 7.08855 286.54 5.808 285.665C4.31499 284.645 3.14633 283.21 2.44359 281.533C1.9579 280.377 1.70817 279.133 1.70937 277.876L1.70937 266.956ZM18.6858 266.956C18.6858 262.67 15.2369 259.182 10.9976 259.182C6.75827 259.182 3.30986 262.67 3.30986 266.956L3.30986 277.876C3.30986 282.163 6.75878 285.651 10.9976 285.651C15.2364 285.651 18.6883 282.163 18.6883 277.876L18.6858 266.956Z" fill="black"/>
<path d="M18.1412 285.056C18.2815 284.929 18.4182 284.798 18.5511 284.664C19.4733 283.732 20.2086 282.629 20.7168 281.415C21.2438 280.156 21.5144 278.803 21.5122 277.436L21.5122 267.398C21.5147 265.36 20.9128 263.368 19.7842 261.68C19.4217 261.138 19.0087 260.632 18.5511 260.169C18.4047 260.021 18.2539 259.877 18.0987 259.739C18.0445 259.69 17.981 259.654 17.9123 259.631C17.8436 259.608 17.771 259.6 17.699 259.607C17.627 259.613 17.5571 259.635 17.4936 259.67C17.43 259.705 17.3742 259.752 17.3296 259.81C17.2519 259.91 17.2118 260.035 17.2165 260.162C17.2213 260.289 17.2705 260.41 17.3554 260.504C18.1305 261.362 18.7555 262.346 19.2038 263.416C19.7311 264.675 20.0016 266.029 19.9992 267.396L19.9992 277.436C20.0017 279.474 19.3998 281.466 18.2712 283.154C18.0038 283.554 17.7089 283.934 17.3888 284.292C17.3074 284.383 17.2593 284.499 17.2523 284.622C17.2453 284.744 17.2799 284.865 17.3503 284.965L17.3534 284.97C17.397 285.031 17.453 285.083 17.5176 285.121C17.5822 285.159 17.654 285.183 17.7283 285.191C17.8026 285.199 17.8778 285.191 17.949 285.168C18.0201 285.145 18.0856 285.106 18.1412 285.056Z" fill="white"/>
<path opacity="0.54" d="M5.65313 284.782C5.6919 284.739 5.71298 284.682 5.71213 284.624C5.71129 284.566 5.68858 284.51 5.64858 284.468C4.79904 283.57 4.11816 282.524 3.63924 281.38C3.11202 280.121 2.84148 278.767 2.8438 277.4L2.8438 267.363C2.84196 264.735 3.84284 262.208 5.63795 260.307C5.67917 260.264 5.7022 260.206 5.7022 260.146C5.7022 260.086 5.67917 260.029 5.63795 259.986C5.59575 259.942 5.53837 259.917 5.47823 259.917C5.41809 259.916 5.36004 259.939 5.31664 259.981C5.26402 260.032 5.21224 260.083 5.1613 260.134C4.2394 261.066 3.50405 262.169 2.9956 263.383C2.46842 264.642 2.19788 265.996 2.20017 267.364L2.20017 277.4C2.19743 279.437 2.79845 281.428 3.92564 283.116C4.28817 283.658 4.70109 284.164 5.15877 284.627C5.21443 284.683 5.27009 284.738 5.32676 284.793C5.34868 284.814 5.37462 284.831 5.40303 284.842C5.43145 284.853 5.46176 284.858 5.49219 284.857C5.52262 284.856 5.55254 284.849 5.58019 284.836C5.60783 284.823 5.63263 284.805 5.65313 284.782Z" fill="white"/>
<path d="M14.8244 260.9C13.7709 260.317 12.7149 260.218 12.8718 259.928C13.0286 259.637 14.0654 259.589 15.1189 260.172C16.1724 260.755 16.8434 261.749 16.6875 262.039C16.5317 262.328 15.8774 261.483 14.8244 260.9Z" fill="white"/>
<path d="M14.32 284.723C15.0714 284.425 15.5774 283.917 15.6574 284.123C15.7373 284.329 15.3153 284.891 14.5639 285.19C13.8125 285.489 13.0165 285.41 12.9366 285.203C12.8566 284.997 13.5686 285.022 14.32 284.723Z" fill="white"/>
<path d="M13.8397 288.162C14.263 288.044 14.6773 287.896 15.0794 287.718C15.4539 287.552 15.8145 287.356 16.1577 287.131C16.4757 286.923 16.7735 286.685 17.0473 286.42L17.0923 286.375C17.0022 286.441 16.91 286.505 16.8155 286.567C16.429 286.821 16.0229 287.042 15.6011 287.229C15.1478 287.43 14.6808 287.597 14.2035 287.729C12.1061 288.298 9.89745 288.298 7.80004 287.729C7.32264 287.597 6.85538 287.43 6.40195 287.229C5.98015 287.042 5.57402 286.821 5.18754 286.567C5.09275 286.505 5.00032 286.441 4.91025 286.375L4.95529 286.42C5.22922 286.685 5.52722 286.923 5.84535 287.131C6.18752 287.357 6.5473 287.554 6.92111 287.721C7.32307 287.899 7.73722 288.047 8.16031 288.164C10.0205 288.669 11.9795 288.669 13.8397 288.164L13.8397 288.162Z" fill="white"/>
<path d="M13.9319 262.821L13.9319 239.373C13.9319 237.833 12.6193 236.584 11.0001 236.584C9.38089 236.584 8.06832 237.833 8.06832 239.373L8.06832 262.821C8.06832 264.361 9.38089 265.61 11.0001 265.61C12.6193 265.61 13.9319 264.361 13.9319 262.821Z" fill="#B2B2B2"/>
<path opacity="0.15" d="M8.94523 239.373C8.94523 238.295 9.86666 237.419 10.9991 237.419C12.1315 237.419 13.0535 238.295 13.0535 239.373L13.0535 262.821C13.0535 263.899 12.132 264.775 10.9991 264.775C9.86615 264.775 8.94523 263.899 8.94523 262.821L8.94523 239.373Z" fill="black"/>
<path opacity="0.44" d="M11.9022 265.178C12.977 264.78 13.7385 263.786 13.7385 262.623L13.7385 239.571C13.7385 238.408 12.9795 237.415 11.9022 237.016C11.5506 236.886 11.1716 237.136 11.1716 237.495L11.1716 264.7C11.1716 265.058 11.5506 265.309 11.9022 265.178Z" fill="black"/>
<path d="M12.6673 264.388C12.9349 264.144 13.1491 263.846 13.2964 263.514C13.4436 263.181 13.5206 262.821 13.5225 262.457L13.5225 239.738C13.5208 239.373 13.4438 239.013 13.2966 238.681C13.1493 238.348 12.935 238.05 12.6673 237.806C12.4184 237.574 11.9989 237.743 11.9989 238.074L11.9989 264.119C11.9989 264.451 12.4184 264.62 12.6673 264.388Z" fill="#EAEAEA"/>
<path d="M9.50172 237.807C9.23411 238.051 9.01986 238.349 8.87269 238.681C8.72552 239.014 8.64868 239.374 8.64708 239.738L8.64708 262.457C8.64887 262.821 8.72581 263.181 8.87297 263.514C9.02013 263.846 9.23427 264.144 9.50172 264.388C9.75067 264.62 10.1707 264.451 10.1707 264.12L10.1707 238.075C10.1717 237.743 9.75168 237.576 9.50172 237.807Z" fill="#EAEAEA"/>
<path d="M13.0315 263.751C13.2588 263.358 13.3786 262.911 13.3787 262.456L13.3787 239.737C13.3787 239.282 13.2589 238.835 13.0315 238.442C12.9597 238.317 12.7603 238.366 12.7603 238.508L12.7603 263.683C12.7603 263.828 12.9597 263.876 13.0315 263.751Z" fill="white"/>
<path d="M13.9319 177.544L13.9319 154.095C13.9319 152.555 12.6193 151.307 11.0001 151.307C9.38089 151.307 8.06832 152.555 8.06832 154.095L8.06832 177.544C8.06832 179.084 9.38089 180.332 11.0001 180.332C12.6193 180.332 13.9319 179.084 13.9319 177.544Z" fill="#B2B2B2"/>
<path opacity="0.15" d="M8.94523 154.095C8.94523 153.018 9.86666 152.142 10.9991 152.142C12.1315 152.142 13.0535 153.018 13.0535 154.095L13.0535 177.544C13.0535 178.618 12.132 179.497 10.9991 179.497C9.86615 179.497 8.94523 178.621 8.94523 177.544L8.94523 154.095Z" fill="black"/>
<path opacity="0.44" d="M11.9022 179.9C12.977 179.502 13.7385 178.508 13.7385 177.345L13.7385 154.294C13.7385 153.13 12.9795 152.137 11.9022 151.739C11.5506 151.608 11.1716 151.858 11.1716 152.217L11.1716 179.421C11.1716 179.781 11.5506 180.03 11.9022 179.9Z" fill="black"/>
<path d="M12.6673 179.11C12.9349 178.866 13.1491 178.568 13.2964 178.236C13.4436 177.903 13.5206 177.543 13.5225 177.179L13.5225 154.46C13.5206 154.096 13.4436 153.736 13.2964 153.403C13.1491 153.07 12.9349 152.772 12.6673 152.528C12.4184 152.297 11.9989 152.465 11.9989 152.797L11.9989 178.842C11.9989 179.173 12.4184 179.342 12.6673 179.11Z" fill="#EAEAEA"/>
<path d="M9.50172 152.528C9.23421 152.773 9.02003 153.07 8.87287 153.403C8.72571 153.736 8.6488 154.096 8.64708 154.46L8.64708 177.179C8.6488 177.543 8.72571 177.903 8.87287 178.236C9.02003 178.568 9.23421 178.866 9.50172 179.11C9.75067 179.342 10.1707 179.173 10.1707 178.842L10.1707 152.798C10.1717 152.465 9.75168 152.297 9.50172 152.528Z" fill="#EAEAEA"/>
<path d="M13.0315 178.476C13.2588 178.083 13.3786 177.636 13.3787 177.181L13.3787 154.462C13.3786 154.007 13.2588 153.56 13.0315 153.167C12.9597 153.043 12.7603 153.091 12.7603 153.233L12.7603 178.408C12.7603 178.55 12.9597 178.598 13.0315 178.476Z" fill="white"/>
<path d="M10.5 285.5C10.5 283.5 12.1667 283 13 283L8.5 282L3 289L9 291.5L12.5 289C11 289 10.5 288 10.5 285.5Z" fill="#4E5963"/>
<path d="M-1 278L7 278.5L8.5 282.5L7.5 287L1 289L-1 278Z" fill="#4E5862"/>
</g>
<defs>
<clipPath id="clip0_2427_5163">
<rect width="289" height="22" fill="white" transform="translate(22) rotate(90)"/>
</clipPath>
</defs>
</svg>
