<svg width="25" height="25" viewBox="0 0 25 25" fill="none" xmlns="http://www.w3.org/2000/svg">
<path d="M0.93934 19.6058L1.291 19.9575L0.939339 19.6058C0.353554 20.1916 0.353554 21.1414 0.939339 21.7272L1.29289 21.3736L0.93934 21.7272L2.09292 22.8807L2.09295 22.8808L2.10609 22.8942L2.45964 22.5406L2.1061 22.8942L2.11947 22.9073L3.27267 24.0605C3.85846 24.6463 4.80821 24.6463 5.39399 24.0605L5.04044 23.7069L5.39399 24.0605C5.97978 23.4747 5.97978 22.525 5.39399 21.9392L5.28819 21.8334L7.25 19.8716L7.93926 20.5608C8.52504 21.1466 9.47479 21.1466 10.0606 20.5608C10.6464 19.975 10.6464 19.0253 10.0606 18.4395L5.39391 13.7728C4.80813 13.187 3.85838 13.187 3.27259 13.7728C2.68681 14.3586 2.68681 15.3084 3.27259 15.8942L5.12868 17.7502L3.16687 19.7121L3.06066 19.6058C2.47487 19.0201 1.52513 19.0201 0.93934 19.6058ZM2 0.5C1.17157 0.5 0.5 1.17157 0.5 2V5.5C0.5 5.89782 0.658035 6.27936 0.93934 6.56066L13.2953 18.9166L12.6061 19.6058C12.0203 20.1916 12.0203 21.1414 12.6061 21.7272C13.1919 22.313 14.1416 22.313 14.7274 21.7272L16.4658 19.9887L16.4696 19.985L16.4773 19.9774L16.4774 19.9773L16.485 19.9696L16.4887 19.9658L17.1667 19.2878L19.7121 21.8332L19.6061 21.9392C19.0203 22.525 19.0203 23.4747 19.6061 24.0605C20.1919 24.6463 21.1416 24.6463 21.7274 24.0605L24.0607 21.7272C24.6465 21.1414 24.6465 20.1916 24.0607 19.6058C23.475 19.0201 22.5252 19.0201 21.9394 19.6058L21.8334 19.7118L19.2881 17.1665L19.9658 16.4887L19.9696 16.485L19.9773 16.4774L19.9774 16.4773L19.985 16.4696L19.9887 16.4658L21.7274 14.7272C22.3132 14.1414 22.3132 13.1916 21.7274 12.6058C21.1416 12.0201 20.1919 12.0201 19.6061 12.6058L18.9166 13.2953L6.56066 0.93934C6.27936 0.658035 5.89783 0.5 5.5 0.5H2ZM4.87868 3.5L16.7953 15.4166L15.4166 16.7953L3.5 4.87868V3.5H4.87868ZM19.5001 0.5C19.1023 0.5 18.7207 0.658035 18.4394 0.93934L14.3561 5.02267C13.7703 5.60846 13.7703 6.55821 14.3561 7.14399C14.9419 7.72978 15.8916 7.72978 16.4774 7.14399L20.1214 3.5H21.5001V4.87868L17.8561 8.52267C17.2703 9.10846 17.2703 10.0582 17.8561 10.644C18.4419 11.2298 19.3916 11.2298 19.9774 10.644L24.0607 6.56066C24.342 6.27936 24.5001 5.89782 24.5001 5.5V2C24.5001 1.17157 23.8285 0.5 23.0001 0.5H19.5001Z" fill="#FFAC4A" stroke="#B65F3A" stroke-linecap="round" stroke-linejoin="round"/>
</svg>
